Alike-Regular.ufo
<glyph name="exclam" format="2">
  <advance width="254"/>
  <unicode hex="0021"/>
  <outline>
    <contour>
      <point x="74" y="700" type="curve"/>
      <point x="105" y="170" type="line"/>
      <point x="122" y="164"/>
      <point x="137" y="166"/>
      <point x="151" y="170" type="curve"/>
      <point x="181" y="700" type="line"/>
      <point x="175" y="710"/>
      <point x="144" y="717"/>
      <point x="126" y="717" type="curve" smooth="yes"/>
      <point x="109" y="717"/>
      <point x="81" y="709"/>
    </contour>
    <contour>
      <point x="61" y="50" type="curve" smooth="yes"/>
      <point x="61" y="23"/>
      <point x="87" y="-15"/>
      <point x="119" y="-15" type="curve" smooth="yes"/>
      <point x="152" y="-15"/>
      <point x="187" y="15"/>
      <point x="187" y="41" type="curve" smooth="yes"/>
      <point x="187" y="67"/>
      <point x="164" y="106"/>
      <point x="128" y="106" type="curve" smooth="yes"/>
      <point x="97" y="106"/>
      <point x="61" y="75"/>
    </contour>
  </outline>
</glyph>
<glyph name="numbersign" format="2">
  <advance width="528"/>
  <unicode hex="0023"/>
  <outline>
    <contour>
      <point x="83" y="215" type="line"/>
      <point x="10" y="0" type="line"/>
      <point x="22" y="-7"/>
      <point x="51" y="-4"/>
      <point x="71" y="0" type="curve"/>
      <point x="92" y="71"/>
      <point x="113" y="143"/>
      <point x="136" y="215" type="curve"/>
      <point x="288" y="215" type="line"/>
      <point x="215" y="0" type="line"/>
      <point x="227" y="-7"/>
      <point x="256" y="-4"/>
      <point x="276" y="0" type="curve"/>
      <point x="297" y="71"/>
      <point x="318" y="143"/>
      <point x="341" y="215" type="curve"/>
      <point x="461" y="215" type="line"/>
      <point x="468" y="226"/>
      <point x="472" y="243"/>
      <point x="472" y="261" type="curve"/>
      <point x="355" y="261" type="line"/>
      <point x="407" y="419" type="line"/>
      <point x="508" y="419" type="line"/>
      <point x="515" y="430"/>
      <point x="519" y="447"/>
      <point x="519" y="465" type="curve"/>
      <point x="422" y="465" type="line"/>
      <point x="454" y="562"/>
      <point x="470" y="608"/>
      <point x="504" y="705" type="curve"/>
      <point x="495" y="710"/>
      <point x="470" y="711"/>
      <point x="443" y="705" type="curve"/>
      <point x="413" y="608"/>
      <point x="401" y="561"/>
      <point x="370" y="465" type="curve"/>
      <point x="217" y="465" type="line"/>
      <point x="249" y="562"/>
      <point x="265" y="608"/>
      <point x="299" y="705" type="curve"/>
      <point x="290" y="710"/>
      <point x="265" y="711"/>
      <point x="238" y="705" type="curve"/>
      <point x="208" y="608"/>
      <point x="196" y="561"/>
      <point x="165" y="465" type="curve"/>
      <point x="54" y="465" type="line"/>
      <point x="47" y="457"/>
      <point x="41" y="433"/>
      <point x="43" y="419" type="curve"/>
      <point x="150" y="419" type="line"/>
      <point x="98" y="261" type="line"/>
      <point x="7" y="261" type="line"/>
      <point x="0" y="253"/>
      <point x="-6" y="229"/>
      <point x="-4" y="215" type="curve"/>
    </contour>
    <contour>
      <point x="150" y="261" type="line"/>
      <point x="202" y="419" type="line"/>
      <point x="355" y="419" type="line"/>
      <point x="303" y="261" type="line"/>
    </contour>
  </outline>
</glyph>
<glyph name="dollar" format="2">
  <advance width="542"/>
  <unicode hex="0024"/>
  <outline>
    <contour>
      <point x="243" y="-1" type="curve"/>
      <point x="238" y="-84" type="line"/>
      <point x="251" y="-88"/>
      <point x="264" y="-90"/>
      <point x="277" y="-90" type="curve" smooth="yes"/>
      <point x="289" y="-90"/>
      <point x="300" y="-88"/>
      <point x="312" y="-84" type="curve"/>
      <point x="304" y="2" type="line"/>
      <point x="405" y="16"/>
      <point x="499" y="75"/>
      <point x="499" y="184" type="curve" smooth="yes"/>
      <point x="499" y="304"/>
      <point x="435" y="343"/>
      <point x="286" y="409" type="curve" smooth="yes"/>
      <point x="167" y="462"/>
      <point x="149" y="493"/>
      <point x="149" y="547" type="curve" smooth="yes"/>
      <point x="149" y="627"/>
      <point x="223" y="658"/>
      <point x="299" y="658" type="curve" smooth="yes"/>
      <point x="328" y="658"/>
      <point x="358" y="653"/>
      <point x="385" y="645" type="curve"/>
      <point x="395" y="518" type="line"/>
      <point x="404" y="514"/>
      <point x="415" y="512"/>
      <point x="425" y="512" type="curve" smooth="yes"/>
      <point x="429" y="512"/>
      <point x="434" y="512"/>
      <point x="438" y="513" type="curve"/>
      <point x="456" y="564"/>
      <point x="469" y="616"/>
      <point x="467" y="675" type="curve"/>
      <point x="421" y="693"/>
      <point x="368" y="703"/>
      <point x="315" y="704" type="curve"/>
      <point x="324" y="789" type="line"/>
      <point x="312" y="793"/>
      <point x="300" y="795"/>
      <point x="288" y="795" type="curve" smooth="yes"/>
      <point x="275" y="795"/>
      <point x="262" y="793"/>
      <point x="249" y="789" type="curve"/>
      <point x="255" y="701" type="line"/>
      <point x="149" y="689"/>
      <point x="58" y="636"/>
      <point x="58" y="531" type="curve" smooth="yes"/>
      <point x="58" y="452"/>
      <point x="73" y="392"/>
      <point x="212" y="332" type="curve" smooth="yes"/>
      <point x="383" y="257"/>
      <point x="398" y="224"/>
      <point x="398" y="157" type="curve" smooth="yes"/>
      <point x="398" y="73"/>
      <point x="310" y="52"/>
      <point x="241" y="52" type="curve" smooth="yes"/>
      <point x="198" y="52"/>
      <point x="161" y="61"/>
      <point x="137" y="67" type="curve"/>
      <point x="122" y="194" type="line"/>
      <point x="113" y="198"/>
      <point x="102" y="200"/>
      <point x="92" y="200" type="curve" smooth="yes"/>
      <point x="88" y="200"/>
      <point x="84" y="199"/>
      <point x="80" y="199" type="curve"/>
      <point x="63" y="143"/>
      <point x="55" y="87"/>
      <point x="55" y="32" type="curve"/>
      <point x="105" y="8"/>
      <point x="175" y="0"/>
    </contour>
  </outline>
</glyph>
<glyph name="percent" format="2">
  <advance width="732"/>
  <unicode hex="0025"/>
  <outline>
    <contour>
      <point x="193" y="720" type="curve" smooth="yes"/>
      <point x="91" y="720"/>
      <point x="41" y="632"/>
      <point x="41" y="544" type="curve" smooth="yes"/>
      <point x="41" y="457"/>
      <point x="91" y="372"/>
      <point x="189" y="372" type="curve" smooth="yes"/>
      <point x="282" y="372"/>
      <point x="334" y="458"/>
      <point x="334" y="551" type="curve" smooth="yes"/>
      <point x="334" y="636"/>
      <point x="288" y="720"/>
    </contour>
    <contour>
      <point x="189" y="683" type="curve" smooth="yes"/>
      <point x="242" y="683"/>
      <point x="271" y="621"/>
      <point x="271" y="549" type="curve" smooth="yes"/>
      <point x="271" y="477"/>
      <point x="242" y="410"/>
      <point x="189" y="410" type="curve" smooth="yes"/>
      <point x="134" y="410"/>
      <point x="105" y="477"/>
      <point x="105" y="549" type="curve" smooth="yes"/>
      <point x="105" y="621"/>
      <point x="134" y="683"/>
    </contour>
    <contour>
      <point x="549" y="328" type="curve" smooth="yes"/>
      <point x="447" y="328"/>
      <point x="397" y="240"/>
      <point x="397" y="152" type="curve" smooth="yes"/>
      <point x="397" y="65"/>
      <point x="447" y="-20"/>
      <point x="545" y="-20" type="curve" smooth="yes"/>
      <point x="638" y="-20"/>
      <point x="690" y="66"/>
      <point x="690" y="159" type="curve" smooth="yes"/>
      <point x="690" y="244"/>
      <point x="644" y="328"/>
    </contour>
    <contour>
      <point x="545" y="291" type="curve" smooth="yes"/>
      <point x="598" y="291"/>
      <point x="627" y="229"/>
      <point x="627" y="157" type="curve" smooth="yes"/>
      <point x="627" y="85"/>
      <point x="598" y="18"/>
      <point x="545" y="18" type="curve" smooth="yes"/>
      <point x="490" y="18"/>
      <point x="461" y="85"/>
      <point x="461" y="157" type="curve" smooth="yes"/>
      <point x="461" y="229"/>
      <point x="490" y="291"/>
    </contour>
    <contour>
      <point x="255" y="0" type="curve"/>
      <point x="545" y="706" type="line"/>
      <point x="522" y="710"/>
      <point x="499" y="707"/>
      <point x="478" y="700" type="curve"/>
      <point x="188" y="-7" type="line"/>
      <point x="212" y="-11"/>
      <point x="239" y="-6"/>
    </contour>
  </outline>
</glyph>
<glyph name="ampersand" format="2">
  <advance width="731"/>
  <unicode hex="0026"/>
  <outline>
    <contour>
      <point x="485" y="78" type="curve"/>
      <point x="558" y="0" type="line"/>
      <point x="595" y="0"/>
      <point x="684" y="-3"/>
      <point x="720" y="-5" type="curve"/>
      <point x="726" y="7"/>
      <point x="727" y="18"/>
      <point x="725" y="30" type="curve"/>
      <point x="700" y="32"/>
      <point x="647" y="36"/>
      <point x="616" y="67" type="curve"/>
      <point x="539" y="149" type="line"/>
      <point x="572" y="209"/>
      <point x="608" y="279"/>
      <point x="626" y="347" type="curve"/>
      <point x="648" y="358"/>
      <point x="676" y="361"/>
      <point x="703" y="367" type="curve"/>
      <point x="707" y="376"/>
      <point x="710" y="389"/>
      <point x="708" y="402" type="curve"/>
      <point x="672" y="400"/>
      <point x="639" y="397"/>
      <point x="602" y="397" type="curve" smooth="yes"/>
      <point x="565" y="397"/>
      <point x="535" y="400"/>
      <point x="499" y="402" type="curve"/>
      <point x="493" y="390"/>
      <point x="492" y="379"/>
      <point x="494" y="367" type="curve"/>
      <point x="571" y="347" type="line"/>
      <point x="561" y="303"/>
      <point x="533" y="240"/>
      <point x="505" y="186" type="curve"/>
      <point x="435" y="263"/>
      <point x="376" y="329"/>
      <point x="337" y="376" type="curve"/>
      <point x="404" y="404"/>
      <point x="468" y="480"/>
      <point x="468" y="568" type="curve" smooth="yes"/>
      <point x="468" y="640"/>
      <point x="408" y="700"/>
      <point x="314" y="700" type="curve" smooth="yes"/>
      <point x="204" y="700"/>
      <point x="149" y="628"/>
      <point x="149" y="554" type="curve" smooth="yes"/>
      <point x="149" y="509"/>
      <point x="161" y="464"/>
      <point x="223" y="380" type="curve"/>
      <point x="126" y="355"/>
      <point x="50" y="264"/>
      <point x="50" y="179" type="curve" smooth="yes"/>
      <point x="50" y="81"/>
      <point x="117" y="-13"/>
      <point x="267" y="-15" type="curve" smooth="yes"/>
      <point x="358" y="-16"/>
      <point x="431" y="23"/>
    </contour>
    <contour>
      <point x="450" y="115" type="curve"/>
      <point x="413" y="72"/>
      <point x="362" y="51"/>
      <point x="309" y="51" type="curve" smooth="yes"/>
      <point x="226" y="50"/>
      <point x="144" y="101"/>
      <point x="144" y="194" type="curve" smooth="yes"/>
      <point x="144" y="261"/>
      <point x="176" y="323"/>
      <point x="247" y="349" type="curve"/>
      <point x="291" y="293"/>
      <point x="354" y="220"/>
    </contour>
    <contour>
      <point x="228" y="575" type="curve" smooth="yes"/>
      <point x="228" y="626"/>
      <point x="265" y="654"/>
      <point x="307" y="654" type="curve" smooth="yes"/>
      <point x="367" y="654"/>
      <point x="392" y="619"/>
      <point x="392" y="558" type="curve" smooth="yes"/>
      <point x="392" y="516"/>
      <point x="376" y="440"/>
      <point x="311" y="408" type="curve"/>
      <point x="236" y="500"/>
      <point x="228" y="525"/>
    </contour>
  </outline>
</glyph>
<glyph name="quotesingle" format="2">
  <advance width="191"/>
  <unicode hex="0027"/>
  <outline>
    <contour>
      <point x="115" y="438" type="curve"/>
      <point x="146" y="707" type="line"/>
      <point x="140" y="717"/>
      <point x="114" y="724"/>
      <point x="96" y="724" type="curve" smooth="yes"/>
      <point x="79" y="724"/>
      <point x="53" y="716"/>
      <point x="46" y="707" type="curve"/>
      <point x="75" y="438" type="line"/>
      <point x="88" y="432"/>
      <point x="102" y="433"/>
    </contour>
  </outline>
</glyph>
<glyph name="parenleft" format="2">
  <advance width="284"/>
  <unicode hex="0028"/>
  <outline>
    <contour>
      <point x="36" y="285" type="curve" smooth="yes"/>
      <point x="36" y="120"/>
      <point x="95" y="-110"/>
      <point x="245" y="-220" type="curve"/>
      <point x="259" y="-216"/>
      <point x="268" y="-208"/>
      <point x="274" y="-198" type="curve"/>
      <point x="207" y="-126"/>
      <point x="124" y="55"/>
      <point x="124" y="285" type="curve" smooth="yes"/>
      <point x="124" y="517"/>
      <point x="207" y="698"/>
      <point x="274" y="768" type="curve"/>
      <point x="269" y="780"/>
      <point x="261" y="789"/>
      <point x="245" y="790" type="curve"/>
      <point x="95" y="680"/>
      <point x="36" y="453"/>
    </contour>
  </outline>
</glyph>
<glyph name="asterisk" format="2">
  <advance width="432"/>
  <unicode hex="002A"/>
  <outline>
    <contour>
      <point x="54" y="471" type="line"/>
      <point x="52" y="467" type="line"/>
      <point x="52" y="459" type="line"/>
      <point x="52" y="458"/>
      <point x="53" y="457"/>
      <point x="53" y="456" type="curve"/>
      <point x="53" y="453" type="line"/>
      <point x="53" y="452"/>
      <point x="54" y="452"/>
      <point x="54" y="451" type="curve"/>
      <point x="54" y="450" type="line"/>
      <point x="56" y="445" type="line"/>
      <point x="59" y="439" type="line"/>
      <point x="59" y="438" type="line"/>
      <point x="60" y="438" type="line"/>
      <point x="60" y="437" type="line"/>
      <point x="63" y="433" type="line"/>
      <point x="66" y="430" type="line"/>
      <point x="71" y="424"/>
      <point x="78" y="418"/>
      <point x="83" y="416" type="curve"/>
      <point x="85" y="416" type="line"/>
      <point x="200" y="499" type="line"/>
      <point x="184" y="358" type="line"/>
      <point x="187" y="351"/>
      <point x="204" y="347"/>
      <point x="215" y="347" type="curve" smooth="yes"/>
      <point x="226" y="347"/>
      <point x="243" y="352"/>
      <point x="246" y="358" type="curve"/>
      <point x="231" y="498" type="line"/>
      <point x="346" y="414" type="line"/>
      <point x="354" y="414"/>
      <point x="366" y="426"/>
      <point x="371" y="435" type="curve"/>
      <point x="376" y="445"/>
      <point x="381" y="462"/>
      <point x="378" y="468" type="curve"/>
      <point x="248" y="526" type="line"/>
      <point x="379" y="582" type="line"/>
      <point x="383" y="589"/>
      <point x="378" y="606"/>
      <point x="373" y="615" type="curve"/>
      <point x="367" y="624"/>
      <point x="354" y="636"/>
      <point x="347" y="637" type="curve"/>
      <point x="232" y="553" type="line"/>
      <point x="249" y="695" type="line"/>
      <point x="245" y="702"/>
      <point x="229" y="706"/>
      <point x="218" y="706" type="curve" smooth="yes"/>
      <point x="207" y="706"/>
      <point x="191" y="701"/>
      <point x="186" y="695" type="curve"/>
      <point x="201" y="554" type="line"/>
      <point x="86" y="639" type="line"/>
      <point x="79" y="639"/>
      <point x="67" y="627"/>
      <point x="61" y="618" type="curve"/>
      <point x="56" y="608"/>
      <point x="53" y="591"/>
      <point x="55" y="585" type="curve"/>
      <point x="184" y="527" type="line"/>
    </contour>
  </outline>
</glyph>
<glyph name="plus" format="2">
  <advance width="485"/>
  <unicode hex="002B"/>
  <outline>
    <contour>
      <point x="274" y="349" type="line"/>
      <point x="274" y="510" type="line"/>
      <point x="263" y="516"/>
      <point x="226" y="521"/>
      <point x="208" y="521" type="curve"/>
      <point x="208" y="349" type="line"/>
      <point x="53" y="349" type="line"/>
      <point x="46" y="341"/>
      <point x="40" y="300"/>
      <point x="42" y="285" type="curve"/>
      <point x="208" y="285" type="line"/>
      <point x="208" y="124" type="line"/>
      <point x="216" y="117"/>
      <point x="260" y="110"/>
      <point x="274" y="113" type="curve"/>
      <point x="274" y="285" type="line"/>
      <point x="432" y="285" type="line"/>
      <point x="439" y="296"/>
      <point x="443" y="331"/>
      <point x="443" y="349" type="curve"/>
    </contour>
  </outline>
</glyph>
<glyph name="comma" format="2">
  <advance width="235"/>
  <unicode hex="002C"/>
  <outline>
    <contour>
      <point x="47" y="50" type="curve" smooth="yes"/>
      <point x="47" y="13"/>
      <point x="73" y="-15"/>
      <point x="105" y="-15" type="curve" smooth="yes"/>
      <point x="128" y="-15"/>
      <point x="140" y="-21"/>
      <point x="140" y="-33" type="curve" smooth="yes"/>
      <point x="140" y="-70"/>
      <point x="113" y="-116"/>
      <point x="80" y="-137" type="curve"/>
      <point x="86" y="-152"/>
      <point x="95" y="-161"/>
      <point x="106" y="-165" type="curve"/>
      <point x="158" y="-136"/>
      <point x="193" y="-72"/>
      <point x="193" y="-1" type="curve" smooth="yes"/>
      <point x="193" y="26"/>
      <point x="186" y="51"/>
      <point x="172" y="73" type="curve" smooth="yes"/>
      <point x="158" y="95"/>
      <point x="139" y="106"/>
      <point x="114" y="106" type="curve" smooth="yes"/>
      <point x="75" y="106"/>
      <point x="47" y="83"/>
    </contour>
  </outline>
</glyph>
<glyph name="hyphen" format="2">
  <advance width="526"/>
  <unicode hex="002D"/>
  <outline>
    <contour>
      <point x="63" y="285" type="curve"/>
      <point x="453" y="285" type="line"/>
      <point x="460" y="296"/>
      <point x="464" y="331"/>
      <point x="464" y="349" type="curve"/>
      <point x="74" y="349" type="line"/>
      <point x="67" y="341"/>
      <point x="61" y="299"/>
    </contour>
  </outline>
</glyph>
<glyph name="period" format="2">
  <advance width="220"/>
  <unicode hex="002E"/>
  <outline>
    <contour>
      <point x="47" y="50" type="curve" smooth="yes"/>
      <point x="47" y="23"/>
      <point x="73" y="-15"/>
      <point x="105" y="-15" type="curve" smooth="yes"/>
      <point x="138" y="-15"/>
      <point x="173" y="15"/>
      <point x="173" y="41" type="curve" smooth="yes"/>
      <point x="173" y="67"/>
      <point x="150" y="106"/>
      <point x="114" y="106" type="curve" smooth="yes"/>
      <point x="83" y="106"/>
      <point x="47" y="75"/>
    </contour>
  </outline>
</glyph>
<glyph name="slash" format="2">
  <advance width="466"/>
  <unicode hex="002F"/>
  <outline>
    <contour>
      <point x="370" y="700" type="curve"/>
      <point x="31" y="-100" type="line"/>
      <point x="55" y="-103"/>
      <point x="77" y="-100"/>
      <point x="99" y="-92" type="curve"/>
      <point x="437" y="707" type="line"/>
      <point x="415" y="710"/>
      <point x="392" y="705"/>
    </contour>
  </outline>
</glyph>
<glyph name="zero" format="2">
  <advance width="610"/>
  <unicode hex="0030"/>
  <outline>
    <contour>
      <point x="305" y="25" type="curve" smooth="yes"/>
      <point x="195" y="25"/>
      <point x="158" y="190"/>
      <point x="158" y="342" type="curve" smooth="yes"/>
      <point x="158" y="484"/>
      <point x="192" y="673"/>
      <point x="305" y="673" type="curve" smooth="yes"/>
      <point x="418" y="673"/>
      <point x="452" y="484"/>
      <point x="452" y="342" type="curve" smooth="yes"/>
      <point x="452" y="190"/>
      <point x="415" y="25"/>
    </contour>
    <contour>
      <point x="305" y="-15" type="curve" smooth="yes"/>
      <point x="438" y="-15"/>
      <point x="558" y="80"/>
      <point x="558" y="338" type="curve" smooth="yes"/>
      <point x="558" y="567"/>
      <point x="458" y="713"/>
      <point x="305" y="713" type="curve" smooth="yes"/>
      <point x="152" y="713"/>
      <point x="52" y="567"/>
      <point x="52" y="338" type="curve" smooth="yes"/>
      <point x="52" y="80"/>
      <point x="172" y="-15"/>
    </contour>
  </outline>
</glyph>
<glyph name="one" format="2">
  <advance width="360"/>
  <unicode hex="0031"/>
  <outline>
    <contour>
      <point x="238" y="50" type="line"/>
      <point x="238" y="690" type="line"/>
      <point x="225" y="696"/>
      <point x="211" y="700"/>
      <point x="198" y="701" type="curve"/>
      <point x="151" y="683"/>
      <point x="97" y="668"/>
      <point x="34" y="656" type="curve"/>
      <point x="28" y="645"/>
      <point x="27" y="634"/>
      <point x="29" y="621" type="curve"/>
      <point x="138" y="611" type="line"/>
      <point x="138" y="50" type="line"/>
      <point x="106" y="37"/>
      <point x="78" y="35"/>
      <point x="49" y="30" type="curve"/>
      <point x="45" y="18"/>
      <point x="45" y="7"/>
      <point x="47" y="-5" type="curve"/>
      <point x="84" y="-3"/>
      <point x="151" y="0"/>
      <point x="189" y="0" type="curve" smooth="yes"/>
      <point x="226" y="0"/>
      <point x="295" y="-3"/>
      <point x="331" y="-5" type="curve"/>
      <point x="337" y="7"/>
      <point x="338" y="18"/>
      <point x="336" y="30" type="curve"/>
    </contour>
  </outline>
</glyph>
<glyph name="two" format="2">
  <advance width="518"/>
  <unicode hex="0032"/>
  <outline>
    <contour>
      <point x="413" y="75" type="line"/>
      <point x="130" y="75" type="line"/>
      <point x="127" y="78" type="line"/>
      <point x="185" y="144"/>
      <point x="460" y="381"/>
      <point x="460" y="532" type="curve" smooth="yes"/>
      <point x="460" y="700"/>
      <point x="335" y="713"/>
      <point x="237" y="713" type="curve" smooth="yes"/>
      <point x="175" y="713"/>
      <point x="99" y="694"/>
      <point x="49" y="670" type="curve"/>
      <point x="48" y="610"/>
      <point x="59" y="558"/>
      <point x="71" y="506" type="curve"/>
      <point x="83" y="502"/>
      <point x="105" y="505"/>
      <point x="113" y="509" type="curve"/>
      <point x="126" y="640" type="line"/>
      <point x="154" y="651"/>
      <point x="187" y="660"/>
      <point x="222" y="660" type="curve" smooth="yes"/>
      <point x="291" y="660"/>
      <point x="350" y="633"/>
      <point x="350" y="535" type="curve" smooth="yes"/>
      <point x="350" y="370"/>
      <point x="139" y="173"/>
      <point x="39" y="55" type="curve"/>
      <point x="39" y="0" type="line"/>
      <point x="481" y="0" type="line"/>
      <point x="481" y="58"/>
      <point x="479" y="117"/>
      <point x="471" y="175" type="curve"/>
      <point x="458" y="180"/>
      <point x="451" y="180"/>
      <point x="435" y="178" type="curve"/>
    </contour>
  </outline>
</glyph>
<glyph name="three" format="2">
  <advance width="512"/>
  <unicode hex="0033"/>
  <outline>
    <contour>
      <point x="459" y="180" type="curve" smooth="yes"/>
      <point x="459" y="295"/>
      <point x="396" y="351"/>
      <point x="278" y="368" type="curve"/>
      <point x="278" y="372" type="line"/>
      <point x="355" y="390"/>
      <point x="430" y="454"/>
      <point x="430" y="543" type="curve" smooth="yes"/>
      <point x="430" y="669"/>
      <point x="342" y="713"/>
      <point x="245" y="713" type="curve" smooth="yes"/>
      <point x="182" y="713"/>
      <point x="116" y="697"/>
      <point x="64" y="674" type="curve"/>
      <point x="64" y="618"/>
      <point x="74" y="566"/>
      <point x="87" y="515" type="curve"/>
      <point x="91" y="514"/>
      <point x="94" y="514"/>
      <point x="98" y="514" type="curve" smooth="yes"/>
      <point x="106" y="514"/>
      <point x="115" y="516"/>
      <point x="123" y="520" type="curve"/>
      <point x="142" y="645" type="line"/>
      <point x="167" y="656"/>
      <point x="195" y="663"/>
      <point x="222" y="663" type="curve" smooth="yes"/>
      <point x="284" y="663"/>
      <point x="338" y="628"/>
      <point x="338" y="535" type="curve" smooth="yes"/>
      <point x="338" y="451"/>
      <point x="271" y="387"/>
      <point x="169" y="383" type="curve"/>
      <point x="169" y="343" type="line"/>
      <point x="283" y="341"/>
      <point x="353" y="291"/>
      <point x="353" y="178" type="curve" smooth="yes"/>
      <point x="353" y="82"/>
      <point x="287" y="35"/>
      <point x="214" y="35" type="curve" smooth="yes"/>
      <point x="184" y="35"/>
      <point x="153" y="41"/>
      <point x="124" y="51" type="curve"/>
      <point x="107" y="180" type="line"/>
      <point x="99" y="183"/>
      <point x="91" y="186"/>
      <point x="82" y="186" type="curve" smooth="yes"/>
      <point x="78" y="186"/>
      <point x="75" y="186"/>
      <point x="71" y="185" type="curve"/>
      <point x="53" y="130"/>
      <point x="48" y="76"/>
      <point x="46" y="21" type="curve"/>
      <point x="98" y="-3"/>
      <point x="163" y="-17"/>
      <point x="225" y="-17" type="curve" smooth="yes"/>
      <point x="346" y="-17"/>
      <point x="459" y="55"/>
    </contour>
  </outline>
</glyph>
<glyph name="four" format="2">
  <advance width="560"/>
  <unicode hex="0034"/>
  <outline>
    <contour>
      <point x="282" y="506" type="line"/>
      <point x="342" y="598" type="line"/>
      <point x="344" y="598" type="line"/>
      <point x="339" y="494" type="line"/>
      <point x="339" y="272" type="line"/>
      <point x="116" y="272" type="line"/>
    </contour>
    <contour>
      <point x="339" y="204" type="line"/>
      <point x="339" y="50" type="line"/>
      <point x="313" y="40"/>
      <point x="287" y="34"/>
      <point x="259" y="30" type="curve"/>
      <point x="255" y="18"/>
      <point x="255" y="7"/>
      <point x="257" y="-5" type="curve"/>
      <point x="294" y="-3"/>
      <point x="351" y="0"/>
      <point x="389" y="0" type="curve" smooth="yes"/>
      <point x="426" y="0"/>
      <point x="475" y="-3"/>
      <point x="511" y="-5" type="curve"/>
      <point x="517" y="7"/>
      <point x="518" y="18"/>
      <point x="516" y="30" type="curve"/>
      <point x="434" y="50" type="line"/>
      <point x="434" y="204" type="line"/>
      <point x="529" y="204" type="line"/>
      <point x="541" y="225"/>
      <point x="543" y="253"/>
      <point x="539" y="272" type="curve"/>
      <point x="434" y="272" type="line"/>
      <point x="434" y="738" type="line"/>
      <point x="406" y="736"/>
      <point x="386" y="730"/>
      <point x="364" y="720" type="curve"/>
      <point x="30" y="239" type="line"/>
      <point x="29" y="226"/>
      <point x="33" y="215"/>
      <point x="37" y="204" type="curve"/>
    </contour>
  </outline>
</glyph>
<glyph name="five" format="2">
  <advance width="502"/>
  <unicode hex="0035"/>
  <outline>
    <contour>
      <point x="467" y="222" type="curve" smooth="yes"/>
      <point x="467" y="350"/>
      <point x="374" y="429"/>
      <point x="242" y="429" type="curve" smooth="yes"/>
      <point x="207" y="429"/>
      <point x="171" y="425"/>
      <point x="133" y="416" type="curve"/>
      <point x="137" y="610" type="line"/>
      <point x="410" y="610" type="line"/>
      <point x="422" y="632"/>
      <point x="426" y="657"/>
      <point x="426" y="677" type="curve" smooth="yes"/>
      <point x="426" y="686"/>
      <point x="425" y="694"/>
      <point x="424" y="700" type="curve"/>
      <point x="76" y="700" type="line"/>
      <point x="76" y="355" type="line"/>
      <point x="114" y="361"/>
      <point x="148" y="365"/>
      <point x="180" y="365" type="curve" smooth="yes"/>
      <point x="293" y="365"/>
      <point x="365" y="320"/>
      <point x="365" y="203" type="curve" smooth="yes"/>
      <point x="365" y="94"/>
      <point x="296" y="36"/>
      <point x="215" y="36" type="curve" smooth="yes"/>
      <point x="186" y="36"/>
      <point x="155" y="43"/>
      <point x="124" y="58" type="curve"/>
      <point x="105" y="189" type="line"/>
      <point x="96" y="193"/>
      <point x="78" y="195"/>
      <point x="70" y="195" type="curve"/>
      <point x="57" y="140"/>
      <point x="49" y="85"/>
      <point x="46" y="30" type="curve"/>
      <point x="95" y="-3"/>
      <point x="151" y="-18"/>
      <point x="207" y="-18" type="curve" smooth="yes"/>
      <point x="341" y="-18"/>
      <point x="467" y="83"/>
    </contour>
  </outline>
</glyph>
<glyph name="six" format="2">
  <advance width="546"/>
  <unicode hex="0036"/>
  <outline>
    <contour>
      <point x="442" y="666" type="curve"/>
      <point x="443" y="668"/>
      <point x="443" y="672"/>
      <point x="443" y="677" type="curve" smooth="yes"/>
      <point x="443" y="692"/>
      <point x="440" y="715"/>
      <point x="436" y="720" type="curve"/>
      <point x="206" y="687"/>
      <point x="42" y="562"/>
      <point x="42" y="295" type="curve" smooth="yes"/>
      <point x="42" y="110"/>
      <point x="128" y="-15"/>
      <point x="296" y="-15" type="curve" smooth="yes"/>
      <point x="417" y="-15"/>
      <point x="524" y="75"/>
      <point x="524" y="217" type="curve" smooth="yes"/>
      <point x="524" y="385"/>
      <point x="422" y="463"/>
      <point x="314" y="463" type="curve" smooth="yes"/>
      <point x="266" y="463"/>
      <point x="199" y="445"/>
      <point x="148" y="410" type="curve"/>
      <point x="175" y="558"/>
      <point x="278" y="643"/>
    </contour>
    <contour>
      <point x="140" y="323" type="curve" smooth="yes"/>
      <point x="140" y="336"/>
      <point x="140" y="349"/>
      <point x="141" y="362" type="curve"/>
      <point x="186" y="392"/>
      <point x="243" y="408"/>
      <point x="286" y="408" type="curve" smooth="yes"/>
      <point x="363" y="408"/>
      <point x="424" y="347"/>
      <point x="424" y="218" type="curve" smooth="yes"/>
      <point x="424" y="110"/>
      <point x="373" y="28"/>
      <point x="295" y="28" type="curve" smooth="yes"/>
      <point x="210" y="28"/>
      <point x="140" y="115"/>
    </contour>
  </outline>
</glyph>
<glyph name="seven" format="2">
  <advance width="475"/>
  <unicode hex="0037"/>
  <outline>
    <contour>
      <point x="99" y="625" type="line"/>
      <point x="383" y="625" type="line"/>
      <point x="386" y="622" type="line"/>
      <point x="99" y="0" type="line"/>
      <point x="189" y="0" type="line"/>
      <point x="465" y="660" type="line"/>
      <point x="467" y="673"/>
      <point x="469" y="687"/>
      <point x="465" y="700" type="curve"/>
      <point x="26" y="700" type="line"/>
      <point x="28" y="631"/>
      <point x="35" y="573"/>
      <point x="42" y="520" type="curve"/>
      <point x="54" y="516"/>
      <point x="67" y="516"/>
      <point x="81" y="520" type="curve"/>
    </contour>
  </outline>
</glyph>
<glyph name="eight" format="2">
  <advance width="547"/>
  <unicode hex="0038"/>
  <outline>
    <contour>
      <point x="508" y="188" type="curve" smooth="yes"/>
      <point x="508" y="280"/>
      <point x="429" y="333"/>
      <point x="352" y="375" type="curve"/>
      <point x="439" y="431"/>
      <point x="470" y="485"/>
      <point x="470" y="547" type="curve" smooth="yes"/>
      <point x="470" y="639"/>
      <point x="399" y="712"/>
      <point x="278" y="712" type="curve" smooth="yes"/>
      <point x="149" y="712"/>
      <point x="72" y="628"/>
      <point x="72" y="534" type="curve" smooth="yes"/>
      <point x="72" y="459"/>
      <point x="119" y="402"/>
      <point x="185" y="361" type="curve"/>
      <point x="97" y="322"/>
      <point x="38" y="277"/>
      <point x="38" y="178" type="curve" smooth="yes"/>
      <point x="38" y="57"/>
      <point x="138" y="-15"/>
      <point x="264" y="-15" type="curve" smooth="yes"/>
      <point x="381" y="-15"/>
      <point x="508" y="57"/>
    </contour>
    <contour>
      <point x="130" y="183" type="curve" smooth="yes"/>
      <point x="130" y="244"/>
      <point x="168" y="299"/>
      <point x="229" y="336" type="curve"/>
      <point x="322" y="292"/>
      <point x="419" y="242"/>
      <point x="419" y="159" type="curve" smooth="yes"/>
      <point x="419" y="72"/>
      <point x="356" y="26"/>
      <point x="277" y="26" type="curve" smooth="yes"/>
      <point x="197" y="26"/>
      <point x="130" y="79"/>
    </contour>
    <contour>
      <point x="382" y="540" type="curve" smooth="yes"/>
      <point x="382" y="473"/>
      <point x="345" y="431"/>
      <point x="308" y="401" type="curve"/>
      <point x="228" y="440"/>
      <point x="157" y="477"/>
      <point x="157" y="560" type="curve" smooth="yes"/>
      <point x="157" y="629"/>
      <point x="199" y="671"/>
      <point x="265" y="671" type="curve" smooth="yes"/>
      <point x="318" y="671"/>
      <point x="382" y="639"/>
    </contour>
  </outline>
</glyph>
<glyph name="less" format="2">
  <advance width="541"/>
  <unicode hex="003C"/>
  <outline>
    <contour>
      <point x="483" y="497" type="line"/>
      <point x="483" y="559" type="line"/>
      <point x="38" y="323" type="line"/>
      <point x="38" y="273" type="line"/>
      <point x="483" y="37" type="line"/>
      <point x="483" y="99" type="line"/>
      <point x="125" y="298" type="line"/>
    </contour>
  </outline>
</glyph>
<glyph name="equal" format="2">
  <advance width="542"/>
  <unicode hex="003D"/>
  <outline>
    <contour>
      <point x="71" y="351" type="curve"/>
      <point x="461" y="351" type="line"/>
      <point x="468" y="362"/>
      <point x="472" y="397"/>
      <point x="472" y="415" type="curve"/>
      <point x="82" y="415" type="line"/>
      <point x="75" y="407"/>
      <point x="69" y="365"/>
    </contour>
    <contour>
      <point x="71" y="197" type="curve"/>
      <point x="461" y="197" type="line"/>
      <point x="468" y="208"/>
      <point x="472" y="243"/>
      <point x="472" y="261" type="curve"/>
      <point x="82" y="261" type="line"/>
      <point x="75" y="253"/>
      <point x="69" y="211"/>
    </contour>
  </outline>
</glyph>
<glyph name="greater" format="2">
  <advance width="541"/>
  <unicode hex="003E"/>
  <outline>
    <contour>
      <point x="58" y="559" type="line"/>
      <point x="58" y="497" type="line"/>
      <point x="416" y="298" type="line"/>
      <point x="58" y="99" type="line"/>
      <point x="58" y="37" type="line"/>
      <point x="503" y="273" type="line"/>
      <point x="503" y="323" type="line"/>
    </contour>
  </outline>
</glyph>
<glyph name="question" format="2">
  <advance width="432"/>
  <unicode hex="003F"/>
  <outline>
    <contour>
      <point x="122" y="50" type="curve" smooth="yes"/>
      <point x="122" y="23"/>
      <point x="148" y="-15"/>
      <point x="180" y="-15" type="curve" smooth="yes"/>
      <point x="213" y="-15"/>
      <point x="248" y="15"/>
      <point x="248" y="41" type="curve" smooth="yes"/>
      <point x="248" y="67"/>
      <point x="225" y="106"/>
      <point x="189" y="106" type="curve" smooth="yes"/>
      <point x="158" y="106"/>
      <point x="122" y="75"/>
    </contour>
    <contour>
      <point x="191" y="167" type="curve" smooth="yes"/>
      <point x="200" y="167"/>
      <point x="203" y="170"/>
      <point x="204" y="174" type="curve"/>
      <point x="196" y="203"/>
      <point x="189" y="227"/>
      <point x="189" y="249" type="curve" smooth="yes"/>
      <point x="189" y="405"/>
      <point x="388" y="418"/>
      <point x="388" y="577" type="curve" smooth="yes"/>
      <point x="388" y="661"/>
      <point x="306" y="705"/>
      <point x="220" y="705" type="curve" smooth="yes"/>
      <point x="158" y="705"/>
      <point x="107" y="693"/>
      <point x="50" y="663" type="curve"/>
      <point x="49" y="651"/>
      <point x="48" y="639"/>
      <point x="48" y="628" type="curve" smooth="yes"/>
      <point x="48" y="597"/>
      <point x="53" y="567"/>
      <point x="63" y="528" type="curve"/>
      <point x="75" y="524"/>
      <point x="89" y="525"/>
      <point x="97" y="529" type="curve"/>
      <point x="110" y="571"/>
      <point x="114" y="601"/>
      <point x="119" y="646" type="curve"/>
      <point x="140" y="663"/>
      <point x="175" y="670"/>
      <point x="202" y="670" type="curve" smooth="yes"/>
      <point x="255" y="670"/>
      <point x="291" y="637"/>
      <point x="291" y="576" type="curve" smooth="yes"/>
      <point x="291" y="459"/>
      <point x="127" y="396"/>
      <point x="127" y="275" type="curve" smooth="yes"/>
      <point x="127" y="244"/>
      <point x="139" y="211"/>
      <point x="162" y="173" type="curve"/>
      <point x="170" y="169"/>
      <point x="182" y="167"/>
    </contour>
  </outline>
</glyph>
<glyph name="at" format="2">
  <advance width="830"/>
  <unicode hex="0040"/>
  <outline>
    <contour>
      <point x="631" y="-128" type="curve"/>
      <point x="613" y="-91" type="line"/>
      <point x="560" y="-120"/>
      <point x="508" y="-132"/>
      <point x="435" y="-132" type="curve" smooth="yes"/>
      <point x="242" y="-132"/>
      <point x="135" y="-6"/>
      <point x="135" y="186" type="curve" smooth="yes"/>
      <point x="135" y="368"/>
      <point x="251" y="538"/>
      <point x="442" y="538" type="curve" smooth="yes"/>
      <point x="614" y="538"/>
      <point x="711" y="433"/>
      <point x="711" y="263" type="curve" smooth="yes"/>
      <point x="711" y="96"/>
      <point x="637" y="19"/>
      <point x="590" y="19" type="curve" smooth="yes"/>
      <point x="561" y="19"/>
      <point x="538" y="45"/>
      <point x="538" y="107" type="curve" smooth="yes"/>
      <point x="538" y="124"/>
      <point x="539" y="143"/>
      <point x="543" y="165" type="curve" smooth="yes"/>
      <point x="580" y="393" type="line"/>
      <point x="580" y="421" type="line"/>
      <point x="542" y="421" type="line"/>
      <point x="529" y="380" type="line"/>
      <point x="526" y="380" type="line"/>
      <point x="510" y="403"/>
      <point x="486" y="426"/>
      <point x="440" y="426" type="curve" smooth="yes"/>
      <point x="294" y="426"/>
      <point x="227" y="257"/>
      <point x="227" y="131" type="curve" smooth="yes"/>
      <point x="227" y="43"/>
      <point x="277" y="-18"/>
      <point x="341" y="-18" type="curve" smooth="yes"/>
      <point x="383" y="-18"/>
      <point x="431" y="9"/>
      <point x="475" y="72" type="curve"/>
      <point x="479" y="72" type="line"/>
      <point x="491" y="-4"/>
      <point x="535" y="-40"/>
      <point x="585" y="-40" type="curve" smooth="yes"/>
      <point x="673" y="-40"/>
      <point x="781" y="68"/>
      <point x="781" y="255" type="curve" smooth="yes"/>
      <point x="781" y="447"/>
      <point x="651" y="589"/>
      <point x="447" y="589" type="curve" smooth="yes"/>
      <point x="222" y="589"/>
      <point x="51" y="395"/>
      <point x="51" y="174" type="curve" smooth="yes"/>
      <point x="51" y="-39"/>
      <point x="204" y="-187"/>
      <point x="417" y="-187" type="curve" smooth="yes"/>
      <point x="478" y="-187"/>
      <point x="556" y="-177"/>
    </contour>
    <contour>
      <point x="449" y="378" type="curve" smooth="yes"/>
      <point x="479" y="378"/>
      <point x="498" y="358"/>
      <point x="493" y="306" type="curve" smooth="yes"/>
      <point x="474" y="101"/>
      <point x="407" y="52"/>
      <point x="366" y="52" type="curve" smooth="yes"/>
      <point x="329" y="52"/>
      <point x="313" y="87"/>
      <point x="313" y="134" type="curve" smooth="yes"/>
      <point x="313" y="231"/>
      <point x="376" y="378"/>
    </contour>
  </outline>
</glyph>
<glyph name="B" format="2">
  <advance width="636"/>
  <unicode hex="0042"/>
  <outline>
    <contour>
      <point x="172" y="0" type="curve"/>
      <point x="325" y="-5" type="line"/>
      <point x="462" y="-5"/>
      <point x="593" y="39"/>
      <point x="593" y="190" type="curve" smooth="yes"/>
      <point x="593" y="317"/>
      <point x="501" y="361"/>
      <point x="395" y="373" type="curve"/>
      <point x="395" y="375" type="line"/>
      <point x="480" y="389"/>
      <point x="550" y="451"/>
      <point x="550" y="540" type="curve" smooth="yes"/>
      <point x="550" y="648"/>
      <point x="464" y="702"/>
      <point x="301" y="701" type="curve" smooth="yes"/>
      <point x="167" y="700" type="line" smooth="yes"/>
      <point x="130" y="700"/>
      <point x="81" y="703"/>
      <point x="45" y="705" type="curve"/>
      <point x="39" y="693"/>
      <point x="38" y="682"/>
      <point x="40" y="670" type="curve"/>
      <point x="117" y="650" type="line"/>
      <point x="117" y="50" type="line"/>
      <point x="89" y="40"/>
      <point x="63" y="34"/>
      <point x="37" y="30" type="curve"/>
      <point x="33" y="18"/>
      <point x="33" y="7"/>
      <point x="35" y="-5" type="curve"/>
      <point x="72" y="-3"/>
      <point x="134" y="0"/>
    </contour>
    <contour>
      <point x="313" y="40" type="curve"/>
      <point x="222" y="45" type="line"/>
      <point x="222" y="342" type="line"/>
      <point x="293" y="342" type="line" smooth="yes"/>
      <point x="434" y="342"/>
      <point x="481" y="297"/>
      <point x="481" y="191" type="curve" smooth="yes"/>
      <point x="481" y="96"/>
      <point x="440" y="40"/>
    </contour>
    <contour>
      <point x="280" y="392" type="curve" smooth="yes"/>
      <point x="222" y="392" type="line"/>
      <point x="222" y="652" type="line"/>
      <point x="240" y="653"/>
      <point x="257" y="654"/>
      <point x="272" y="654" type="curve" smooth="yes"/>
      <point x="412" y="654"/>
      <point x="443" y="606"/>
      <point x="443" y="536" type="curve" smooth="yes"/>
      <point x="443" y="448"/>
      <point x="406" y="392"/>
    </contour>
  </outline>
</glyph>
<glyph name="C" format="2">
  <advance width="646"/>
  <unicode hex="0043"/>
  <anchor x="378" y="0" name="bottom"/>
  <outline>
    <contour>
      <point x="592" y="109" type="curve"/>
      <point x="541" y="66"/>
      <point x="481" y="33"/>
      <point x="398" y="33" type="curve" smooth="yes"/>
      <point x="241" y="33"/>
      <point x="160" y="162"/>
      <point x="160" y="350" type="curve" smooth="yes"/>
      <point x="160" y="528"/>
      <point x="263" y="667"/>
      <point x="404" y="667" type="curve" smooth="yes"/>
      <point x="452" y="667"/>
      <point x="489" y="663"/>
      <point x="533" y="645" type="curve"/>
      <point x="544" y="516" type="line"/>
      <point x="557" y="510"/>
      <point x="575" y="509"/>
      <point x="588" y="511" type="curve"/>
      <point x="607" y="562"/>
      <point x="622" y="614"/>
      <point x="619" y="675" type="curve"/>
      <point x="566" y="704"/>
      <point x="494" y="720"/>
      <point x="397" y="720" type="curve" smooth="yes"/>
      <point x="232" y="720"/>
      <point x="44" y="603"/>
      <point x="44" y="350" type="curve" smooth="yes"/>
      <point x="44" y="95"/>
      <point x="209" y="-20"/>
      <point x="387" y="-20" type="curve" smooth="yes"/>
      <point x="475" y="-20"/>
      <point x="553" y="15"/>
      <point x="615" y="76" type="curve"/>
      <point x="614" y="91"/>
      <point x="609" y="104"/>
    </contour>
  </outline>
</glyph>
<glyph name="E" format="2">
  <advance width="625"/>
  <unicode hex="0045"/>
  <anchor x="322" y="705" name="top"/>
  <outline>
    <contour>
      <point x="222" y="330" type="line"/>
      <point x="408" y="330" type="line"/>
      <point x="427" y="241" type="line"/>
      <point x="439" y="238"/>
      <point x="455" y="238"/>
      <point x="467" y="243" type="curve"/>
      <point x="464" y="275"/>
      <point x="463" y="318"/>
      <point x="463" y="361" type="curve" smooth="yes"/>
      <point x="463" y="400"/>
      <point x="464" y="439"/>
      <point x="467" y="468" type="curve"/>
      <point x="455" y="477"/>
      <point x="439" y="477"/>
      <point x="427" y="473" type="curve"/>
      <point x="408" y="385" type="line"/>
      <point x="222" y="385" type="line"/>
      <point x="222" y="655" type="line"/>
      <point x="479" y="655" type="line"/>
      <point x="505" y="522" type="line"/>
      <point x="521" y="520"/>
      <point x="528" y="520"/>
      <point x="541" y="525" type="curve"/>
      <point x="551" y="582"/>
      <point x="553" y="641"/>
      <point x="552" y="700" type="curve"/>
      <point x="167" y="700" type="line" smooth="yes"/>
      <point x="130" y="700"/>
      <point x="81" y="703"/>
      <point x="45" y="705" type="curve"/>
      <point x="39" y="693"/>
      <point x="38" y="682"/>
      <point x="40" y="670" type="curve"/>
      <point x="117" y="650" type="line"/>
      <point x="117" y="50" type="line"/>
      <point x="92" y="40"/>
      <point x="66" y="35"/>
      <point x="41" y="30" type="curve"/>
      <point x="37" y="18"/>
      <point x="37" y="7"/>
      <point x="39" y="-5" type="curve"/>
      <point x="76" y="-3"/>
      <point x="134" y="0"/>
      <point x="172" y="0" type="curve" smooth="yes"/>
      <point x="580" y="0" type="line"/>
      <point x="580" y="10"/>
      <point x="580" y="21"/>
      <point x="580" y="31" type="curve" smooth="yes"/>
      <point x="580" y="79"/>
      <point x="578" y="127"/>
      <point x="568" y="175" type="curve"/>
      <point x="555" y="180"/>
      <point x="549" y="180"/>
      <point x="533" y="178" type="curve"/>
      <point x="512" y="45" type="line"/>
      <point x="222" y="45" type="line"/>
    </contour>
  </outline>
</glyph>
<glyph name="F" format="2">
  <advance width="561"/>
  <unicode hex="0046"/>
  <outline>
    <contour>
      <point x="222" y="49" type="line"/>
      <point x="222" y="340" type="line"/>
      <point x="379" y="340" type="line"/>
      <point x="398" y="251" type="line"/>
      <point x="410" y="248"/>
      <point x="426" y="248"/>
      <point x="438" y="253" type="curve"/>
      <point x="435" y="285"/>
      <point x="434" y="328"/>
      <point x="434" y="371" type="curve" smooth="yes"/>
      <point x="434" y="410"/>
      <point x="435" y="449"/>
      <point x="438" y="478" type="curve"/>
      <point x="426" y="487"/>
      <point x="410" y="487"/>
      <point x="398" y="483" type="curve"/>
      <point x="379" y="395" type="line"/>
      <point x="222" y="395" type="line"/>
      <point x="222" y="655" type="line"/>
      <point x="470" y="655" type="line"/>
      <point x="495" y="522" type="line"/>
      <point x="511" y="520"/>
      <point x="518" y="520"/>
      <point x="531" y="525" type="curve"/>
      <point x="538" y="569"/>
      <point x="543" y="614"/>
      <point x="543" y="661" type="curve" smooth="yes"/>
      <point x="543" y="674"/>
      <point x="543" y="687"/>
      <point x="542" y="700" type="curve"/>
      <point x="167" y="700" type="line" smooth="yes"/>
      <point x="130" y="700"/>
      <point x="81" y="703"/>
      <point x="45" y="705" type="curve"/>
      <point x="39" y="693"/>
      <point x="38" y="682"/>
      <point x="40" y="670" type="curve"/>
      <point x="117" y="650" type="line"/>
      <point x="117" y="50" type="line"/>
      <point x="92" y="37"/>
      <point x="71" y="35"/>
      <point x="49" y="30" type="curve"/>
      <point x="45" y="18"/>
      <point x="45" y="7"/>
      <point x="47" y="-5" type="curve"/>
      <point x="84" y="-3"/>
      <point x="129" y="0"/>
      <point x="167" y="0" type="curve" smooth="yes"/>
      <point x="204" y="0"/>
      <point x="276" y="-3"/>
      <point x="312" y="-5" type="curve"/>
      <point x="318" y="7"/>
      <point x="319" y="18"/>
      <point x="317" y="30" type="curve"/>
    </contour>
  </outline>
</glyph>
<glyph name="G" format="2">
  <advance width="716"/>
  <unicode hex="0047"/>
  <outline>
    <contour>
      <point x="620" y="49" type="curve"/>
      <point x="620" y="250" type="line"/>
      <point x="646" y="263"/>
      <point x="671" y="267"/>
      <point x="697" y="270" type="curve"/>
      <point x="697" y="274"/>
      <point x="698" y="277"/>
      <point x="698" y="281" type="curve" smooth="yes"/>
      <point x="698" y="289"/>
      <point x="696" y="297"/>
      <point x="692" y="305" type="curve"/>
      <point x="656" y="303"/>
      <point x="606" y="300"/>
      <point x="569" y="300" type="curve" smooth="yes"/>
      <point x="532" y="300"/>
      <point x="479" y="303"/>
      <point x="443" y="305" type="curve"/>
      <point x="439" y="297"/>
      <point x="437" y="289"/>
      <point x="437" y="281" type="curve" smooth="yes"/>
      <point x="437" y="277"/>
      <point x="437" y="274"/>
      <point x="438" y="270" type="curve"/>
      <point x="515" y="250" type="line"/>
      <point x="515" y="58" type="line"/>
      <point x="474" y="41"/>
      <point x="443" y="33"/>
      <point x="397" y="33" type="curve" smooth="yes"/>
      <point x="240" y="33"/>
      <point x="160" y="166"/>
      <point x="160" y="350" type="curve" smooth="yes"/>
      <point x="160" y="523"/>
      <point x="254" y="668"/>
      <point x="417" y="668" type="curve" smooth="yes"/>
      <point x="455" y="668"/>
      <point x="502" y="659"/>
      <point x="544" y="643" type="curve"/>
      <point x="555" y="507" type="line"/>
      <point x="564" y="503"/>
      <point x="575" y="501"/>
      <point x="586" y="501" type="curve" smooth="yes"/>
      <point x="590" y="501"/>
      <point x="595" y="501"/>
      <point x="599" y="502" type="curve"/>
      <point x="617" y="560"/>
      <point x="630" y="618"/>
      <point x="630" y="677" type="curve"/>
      <point x="564" y="709"/>
      <point x="493" y="720"/>
      <point x="424" y="720" type="curve" smooth="yes"/>
      <point x="203" y="720"/>
      <point x="44" y="583"/>
      <point x="44" y="350" type="curve" smooth="yes"/>
      <point x="44" y="100"/>
      <point x="202" y="-20"/>
      <point x="378" y="-20" type="curve" smooth="yes"/>
      <point x="459" y="-20"/>
      <point x="544" y="5"/>
    </contour>
  </outline>
</glyph>
<glyph name="H" format="2">
  <advance width="779"/>
  <unicode hex="0048"/>
  <outline>
    <contour>
      <point x="662" y="50" type="line"/>
      <point x="662" y="650" type="line"/>
      <point x="689" y="660"/>
      <point x="715" y="665"/>
      <point x="742" y="670" type="curve"/>
      <point x="746" y="682"/>
      <point x="746" y="693"/>
      <point x="744" y="705" type="curve"/>
      <point x="707" y="703"/>
      <point x="645" y="700"/>
      <point x="607" y="700" type="curve" smooth="yes"/>
      <point x="570" y="700"/>
      <point x="521" y="703"/>
      <point x="485" y="705" type="curve"/>
      <point x="479" y="693"/>
      <point x="478" y="682"/>
      <point x="480" y="670" type="curve"/>
      <point x="557" y="650" type="line"/>
      <point x="557" y="395" type="line"/>
      <point x="222" y="395" type="line"/>
      <point x="222" y="650" type="line"/>
      <point x="249" y="660"/>
      <point x="275" y="665"/>
      <point x="302" y="670" type="curve"/>
      <point x="306" y="682"/>
      <point x="306" y="693"/>
      <point x="304" y="705" type="curve"/>
      <point x="267" y="703"/>
      <point x="205" y="700"/>
      <point x="167" y="700" type="curve" smooth="yes"/>
      <point x="130" y="700"/>
      <point x="81" y="703"/>
      <point x="45" y="705" type="curve"/>
      <point x="39" y="693"/>
      <point x="38" y="682"/>
      <point x="40" y="670" type="curve"/>
      <point x="117" y="650" type="line"/>
      <point x="117" y="50" type="line"/>
      <point x="92" y="40"/>
      <point x="65" y="35"/>
      <point x="37" y="30" type="curve"/>
      <point x="33" y="18"/>
      <point x="33" y="7"/>
      <point x="35" y="-5" type="curve"/>
      <point x="72" y="-3"/>
      <point x="134" y="0"/>
      <point x="172" y="0" type="curve" smooth="yes"/>
      <point x="209" y="0"/>
      <point x="258" y="-3"/>
      <point x="294" y="-5" type="curve"/>
      <point x="300" y="7"/>
      <point x="301" y="18"/>
      <point x="299" y="30" type="curve"/>
      <point x="222" y="50" type="line"/>
      <point x="222" y="340" type="line"/>
      <point x="557" y="340" type="line"/>
      <point x="557" y="50" type="line"/>
      <point x="531" y="40"/>
      <point x="505" y="34"/>
      <point x="477" y="30" type="curve"/>
      <point x="473" y="18"/>
      <point x="473" y="7"/>
      <point x="475" y="-5" type="curve"/>
      <point x="512" y="-3"/>
      <point x="574" y="0"/>
      <point x="612" y="0" type="curve" smooth="yes"/>
      <point x="649" y="0"/>
      <point x="698" y="-3"/>
      <point x="734" y="-5" type="curve"/>
      <point x="740" y="7"/>
      <point x="741" y="18"/>
      <point x="739" y="30" type="curve"/>
    </contour>
  </outline>
</glyph>
<glyph name="I" format="2">
  <advance width="339"/>
  <unicode hex="0049"/>
  <anchor x="169" y="706" name="top"/>
  <outline>
    <contour>
      <point x="222" y="50" type="line"/>
      <point x="222" y="650" type="line"/>
      <point x="249" y="660"/>
      <point x="275" y="665"/>
      <point x="302" y="670" type="curve"/>
      <point x="306" y="682"/>
      <point x="306" y="693"/>
      <point x="304" y="705" type="curve"/>
      <point x="267" y="703"/>
      <point x="205" y="700"/>
      <point x="167" y="700" type="curve" smooth="yes"/>
      <point x="130" y="700"/>
      <point x="81" y="703"/>
      <point x="45" y="705" type="curve"/>
      <point x="39" y="693"/>
      <point x="38" y="682"/>
      <point x="40" y="670" type="curve"/>
      <point x="117" y="650" type="line"/>
      <point x="117" y="50" type="line"/>
      <point x="92" y="38"/>
      <point x="65" y="34"/>
      <point x="37" y="30" type="curve"/>
      <point x="33" y="18"/>
      <point x="33" y="7"/>
      <point x="35" y="-5" type="curve"/>
      <point x="72" y="-3"/>
      <point x="134" y="0"/>
      <point x="172" y="0" type="curve" smooth="yes"/>
      <point x="209" y="0"/>
      <point x="258" y="-3"/>
      <point x="294" y="-5" type="curve"/>
      <point x="300" y="7"/>
      <point x="301" y="18"/>
      <point x="299" y="30" type="curve"/>
    </contour>
  </outline>
</glyph>
<glyph name="J" format="2">
  <advance width="324"/>
  <unicode hex="004A"/>
  <outline>
    <contour>
      <point x="111" y="650" type="line"/>
      <point x="111" y="139" type="line" smooth="yes"/>
      <point x="111" y="32"/>
      <point x="70" y="-40"/>
      <point x="-9" y="-81" type="curve"/>
      <point x="-9" y="-91"/>
      <point x="2" y="-105"/>
      <point x="11" y="-106" type="curve"/>
      <point x="148" y="-53"/>
      <point x="216" y="22"/>
      <point x="216" y="139" type="curve" smooth="yes"/>
      <point x="216" y="650" type="line"/>
      <point x="243" y="662"/>
      <point x="269" y="666"/>
      <point x="296" y="670" type="curve"/>
      <point x="300" y="682"/>
      <point x="300" y="693"/>
      <point x="298" y="705" type="curve"/>
      <point x="261" y="703"/>
      <point x="199" y="700"/>
      <point x="161" y="700" type="curve" smooth="yes"/>
      <point x="124" y="700"/>
      <point x="75" y="703"/>
      <point x="39" y="705" type="curve"/>
      <point x="33" y="693"/>
      <point x="32" y="682"/>
      <point x="34" y="670" type="curve"/>
    </contour>
  </outline>
</glyph>
<glyph name="K" format="2">
  <advance width="666"/>
  <unicode hex="004B"/>
  <outline>
    <contour>
      <point x="340" y="389" type="line"/>
      <point x="542" y="628" type="line"/>
      <point x="569" y="658"/>
      <point x="624" y="668"/>
      <point x="646" y="670" type="curve"/>
      <point x="650" y="682"/>
      <point x="650" y="693"/>
      <point x="648" y="705" type="curve"/>
      <point x="611" y="703"/>
      <point x="582" y="700"/>
      <point x="544" y="700" type="curve" smooth="yes"/>
      <point x="507" y="700"/>
      <point x="456" y="703"/>
      <point x="420" y="705" type="curve"/>
      <point x="414" y="693"/>
      <point x="413" y="682"/>
      <point x="415" y="670" type="curve"/>
      <point x="444" y="666"/>
      <point x="471" y="662"/>
      <point x="492" y="650" type="curve"/>
      <point x="260" y="365" type="line"/>
      <point x="222" y="365" type="line"/>
      <point x="222" y="650" type="line"/>
      <point x="246" y="661"/>
      <point x="273" y="667"/>
      <point x="302" y="670" type="curve"/>
      <point x="306" y="682"/>
      <point x="306" y="693"/>
      <point x="304" y="705" type="curve"/>
      <point x="267" y="703"/>
      <point x="205" y="700"/>
      <point x="167" y="700" type="curve" smooth="yes"/>
      <point x="130" y="700"/>
      <point x="81" y="703"/>
      <point x="45" y="705" type="curve"/>
      <point x="39" y="693"/>
      <point x="38" y="682"/>
      <point x="40" y="670" type="curve"/>
      <point x="117" y="650" type="line"/>
      <point x="117" y="50" type="line"/>
      <point x="90" y="40"/>
      <point x="64" y="34"/>
      <point x="37" y="30" type="curve"/>
      <point x="33" y="18"/>
      <point x="33" y="7"/>
      <point x="35" y="-5" type="curve"/>
      <point x="72" y="-3"/>
      <point x="134" y="0"/>
      <point x="172" y="0" type="curve" smooth="yes"/>
      <point x="209" y="0"/>
      <point x="258" y="-3"/>
      <point x="294" y="-5" type="curve"/>
      <point x="300" y="7"/>
      <point x="301" y="18"/>
      <point x="299" y="30" type="curve"/>
      <point x="222" y="50" type="line"/>
      <point x="222" y="310" type="line"/>
      <point x="288" y="310" type="line"/>
      <point x="480" y="50" type="line"/>
      <point x="455" y="37"/>
      <point x="428" y="33"/>
      <point x="400" y="30" type="curve"/>
      <point x="396" y="18"/>
      <point x="396" y="7"/>
      <point x="398" y="-5" type="curve"/>
      <point x="435" y="-3"/>
      <point x="512" y="0"/>
      <point x="550" y="0" type="curve" smooth="yes"/>
      <point x="587" y="0"/>
      <point x="636" y="-3"/>
      <point x="672" y="-5" type="curve"/>
      <point x="678" y="7"/>
      <point x="679" y="18"/>
      <point x="677" y="30" type="curve"/>
      <point x="652" y="32"/>
      <point x="594" y="44"/>
      <point x="581" y="62" type="curve" smooth="yes"/>
    </contour>
  </outline>
</glyph>
<glyph name="L" format="2">
  <advance width="548"/>
  <unicode hex="004C"/>
  <outline>
    <contour>
      <point x="462" y="55" type="line"/>
      <point x="222" y="55" type="line"/>
      <point x="222" y="650" type="line"/>
      <point x="249" y="664"/>
      <point x="275" y="667"/>
      <point x="302" y="670" type="curve"/>
      <point x="306" y="682"/>
      <point x="306" y="693"/>
      <point x="304" y="705" type="curve"/>
      <point x="267" y="703"/>
      <point x="205" y="700"/>
      <point x="167" y="700" type="curve" smooth="yes"/>
      <point x="130" y="700"/>
      <point x="81" y="703"/>
      <point x="45" y="705" type="curve"/>
      <point x="39" y="693"/>
      <point x="38" y="682"/>
      <point x="40" y="670" type="curve"/>
      <point x="117" y="650" type="line"/>
      <point x="117" y="50" type="line"/>
      <point x="97" y="41"/>
      <point x="70" y="36"/>
      <point x="41" y="30" type="curve"/>
      <point x="37" y="18"/>
      <point x="37" y="7"/>
      <point x="39" y="-5" type="curve"/>
      <point x="76" y="-3"/>
      <point x="134" y="0"/>
      <point x="172" y="0" type="curve" smooth="yes"/>
      <point x="535" y="0" type="line"/>
      <point x="535" y="58"/>
      <point x="533" y="117"/>
      <point x="525" y="175" type="curve"/>
      <point x="512" y="180"/>
      <point x="505" y="180"/>
      <point x="489" y="178" type="curve"/>
    </contour>
  </outline>
</glyph>
<glyph name="M" format="2">
  <advance width="918"/>
  <unicode hex="004D"/>
  <outline>
    <contour>
      <point x="657" y="680" type="line"/>
      <point x="494" y="265" type="line" smooth="yes"/>
      <point x="479" y="226"/>
      <point x="468" y="189"/>
      <point x="457" y="147" type="curve"/>
      <point x="455" y="147" type="line"/>
      <point x="445" y="188"/>
      <point x="436" y="224"/>
      <point x="419" y="265" type="curve"/>
      <point x="256" y="680" type="line"/>
      <point x="256" y="700" type="line"/>
      <point x="191" y="700" type="line" smooth="yes"/>
      <point x="154" y="700"/>
      <point x="105" y="703"/>
      <point x="69" y="705" type="curve"/>
      <point x="63" y="693"/>
      <point x="62" y="682"/>
      <point x="64" y="670" type="curve"/>
      <point x="141" y="650" type="line"/>
      <point x="101" y="50" type="line"/>
      <point x="76" y="40"/>
      <point x="50" y="34"/>
      <point x="23" y="30" type="curve"/>
      <point x="19" y="18"/>
      <point x="19" y="7"/>
      <point x="21" y="-5" type="curve"/>
      <point x="58" y="-3"/>
      <point x="90" y="0"/>
      <point x="128" y="0" type="curve" smooth="yes"/>
      <point x="165" y="0"/>
      <point x="197" y="-4"/>
      <point x="233" y="-6" type="curve"/>
      <point x="239" y="6"/>
      <point x="240" y="17"/>
      <point x="238" y="29" type="curve"/>
      <point x="161" y="49" type="line"/>
      <point x="186" y="487" type="line"/>
      <point x="189" y="590" type="line"/>
      <point x="192" y="590" type="line"/>
      <point x="203" y="552"/>
      <point x="213" y="518"/>
      <point x="225" y="488" type="curve" smooth="yes"/>
      <point x="422" y="21" type="line"/>
      <point x="434" y="20"/>
      <point x="446" y="24"/>
      <point x="458" y="31" type="curve"/>
      <point x="639" y="488" type="line" smooth="yes"/>
      <point x="652" y="522"/>
      <point x="662" y="556"/>
      <point x="671" y="590" type="curve"/>
      <point x="674" y="590" type="line"/>
      <point x="673" y="575"/>
      <point x="673" y="559"/>
      <point x="673" y="544" type="curve" smooth="yes"/>
      <point x="673" y="525"/>
      <point x="673" y="507"/>
      <point x="675" y="488" type="curve" smooth="yes"/>
      <point x="717" y="50" type="line"/>
      <point x="696" y="37"/>
      <point x="666" y="35"/>
      <point x="637" y="30" type="curve"/>
      <point x="633" y="18"/>
      <point x="633" y="7"/>
      <point x="635" y="-5" type="curve"/>
      <point x="672" y="-3"/>
      <point x="734" y="0"/>
      <point x="772" y="0" type="curve" smooth="yes"/>
      <point x="809" y="0"/>
      <point x="858" y="-3"/>
      <point x="894" y="-5" type="curve"/>
      <point x="900" y="7"/>
      <point x="901" y="18"/>
      <point x="899" y="30" type="curve"/>
      <point x="822" y="50" type="line"/>
      <point x="772" y="650" type="line"/>
      <point x="796" y="660"/>
      <point x="823" y="665"/>
      <point x="852" y="670" type="curve"/>
      <point x="856" y="682"/>
      <point x="856" y="693"/>
      <point x="854" y="705" type="curve"/>
      <point x="817" y="703"/>
      <point x="755" y="700"/>
      <point x="717" y="700" type="curve" smooth="yes"/>
      <point x="657" y="700" type="line"/>
    </contour>
  </outline>
</glyph>
<glyph name="N" format="2">
  <advance width="757"/>
  <unicode hex="004E"/>
  <anchor x="373" y="705" name="top"/>
  <outline>
    <contour>
      <point x="231" y="648" type="line"/>
      <point x="206" y="700" type="line"/>
      <point x="166" y="700" type="line" smooth="yes"/>
      <point x="129" y="700"/>
      <point x="80" y="703"/>
      <point x="44" y="705" type="curve"/>
      <point x="38" y="693"/>
      <point x="37" y="682"/>
      <point x="39" y="670" type="curve"/>
      <point x="116" y="650" type="line"/>
      <point x="116" y="50" type="line"/>
      <point x="91" y="41"/>
      <point x="65" y="34"/>
      <point x="38" y="30" type="curve"/>
      <point x="34" y="18"/>
      <point x="34" y="7"/>
      <point x="36" y="-5" type="curve"/>
      <point x="73" y="-3"/>
      <point x="100" y="0"/>
      <point x="138" y="0" type="curve" smooth="yes"/>
      <point x="175" y="0"/>
      <point x="207" y="-4"/>
      <point x="243" y="-6" type="curve"/>
      <point x="249" y="6"/>
      <point x="250" y="17"/>
      <point x="248" y="29" type="curve"/>
      <point x="171" y="50" type="line"/>
      <point x="171" y="472" type="line" smooth="yes"/>
      <point x="171" y="501"/>
      <point x="171" y="539"/>
      <point x="166" y="570" type="curve"/>
      <point x="169" y="570" type="line"/>
      <point x="189" y="535"/>
      <point x="206" y="503"/>
      <point x="228" y="475" type="curve" smooth="yes"/>
      <point x="626" y="-30" type="line"/>
      <point x="634" y="-27"/>
      <point x="641" y="-23"/>
      <point x="646" y="-20" type="curve"/>
      <point x="646" y="650" type="line"/>
      <point x="673" y="660"/>
      <point x="699" y="665"/>
      <point x="726" y="670" type="curve"/>
      <point x="730" y="682"/>
      <point x="730" y="693"/>
      <point x="728" y="705" type="curve"/>
      <point x="691" y="703"/>
      <point x="656" y="700"/>
      <point x="618" y="700" type="curve" smooth="yes"/>
      <point x="581" y="700"/>
      <point x="554" y="703"/>
      <point x="518" y="705" type="curve"/>
      <point x="512" y="693"/>
      <point x="511" y="682"/>
      <point x="513" y="670" type="curve"/>
      <point x="590" y="650" type="line"/>
      <point x="591" y="249" type="line" smooth="yes"/>
      <point x="591" y="211"/>
      <point x="595" y="185"/>
      <point x="597" y="153" type="curve"/>
      <point x="594" y="153" type="line"/>
      <point x="578" y="188"/>
      <point x="562" y="222"/>
      <point x="540" y="251" type="curve" smooth="yes"/>
    </contour>
  </outline>
</glyph>
<glyph name="O" format="2">
  <advance width="753"/>
  <unicode hex="004F"/>
  <anchor x="373" y="705" name="top"/>
  <outline>
    <contour>
      <point x="44" y="351" type="curve" smooth="yes"/>
      <point x="44" y="130"/>
      <point x="172" y="-20"/>
      <point x="375" y="-20" type="curve" smooth="yes"/>
      <point x="578" y="-20"/>
      <point x="709" y="130"/>
      <point x="709" y="351" type="curve" smooth="yes"/>
      <point x="709" y="565"/>
      <point x="578" y="720"/>
      <point x="375" y="720" type="curve" smooth="yes"/>
      <point x="172" y="720"/>
      <point x="44" y="565"/>
    </contour>
    <contour>
      <point x="594" y="358" type="curve" smooth="yes"/>
      <point x="594" y="180"/>
      <point x="530" y="26"/>
      <point x="386" y="26" type="curve" smooth="yes"/>
      <point x="233" y="26"/>
      <point x="159" y="181"/>
      <point x="159" y="342" type="curve" smooth="yes"/>
      <point x="159" y="513"/>
      <point x="218" y="674"/>
      <point x="372" y="674" type="curve" smooth="yes"/>
      <point x="517" y="674"/>
      <point x="594" y="515"/>
    </contour>
  </outline>
</glyph>
<glyph name="P" format="2">
  <advance width="590"/>
  <unicode hex="0050"/>
  <outline>
    <contour>
      <point x="276" y="279" type="curve" smooth="yes"/>
      <point x="418" y="279"/>
      <point x="567" y="339"/>
      <point x="567" y="502" type="curve" smooth="yes"/>
      <point x="567" y="631"/>
      <point x="468" y="709"/>
      <point x="302" y="709" type="curve" smooth="yes"/>
      <point x="268" y="709"/>
      <point x="226" y="700"/>
      <point x="167" y="700" type="curve" smooth="yes"/>
      <point x="130" y="700"/>
      <point x="81" y="703"/>
      <point x="45" y="705" type="curve"/>
      <point x="39" y="693"/>
      <point x="38" y="682"/>
      <point x="40" y="670" type="curve"/>
      <point x="117" y="650" type="line"/>
      <point x="117" y="50" type="line"/>
      <point x="93" y="38"/>
      <point x="66" y="34"/>
      <point x="37" y="30" type="curve"/>
      <point x="33" y="18"/>
      <point x="33" y="7"/>
      <point x="35" y="-5" type="curve"/>
      <point x="72" y="-3"/>
      <point x="134" y="0"/>
      <point x="172" y="0" type="curve" smooth="yes"/>
      <point x="209" y="0"/>
      <point x="278" y="-3"/>
      <point x="314" y="-5" type="curve"/>
      <point x="320" y="7"/>
      <point x="321" y="18"/>
      <point x="319" y="30" type="curve"/>
      <point x="222" y="50" type="line"/>
      <point x="222" y="282" type="line"/>
      <point x="239" y="281"/>
      <point x="258" y="279"/>
    </contour>
    <contour>
      <point x="295" y="664" type="curve" smooth="yes"/>
      <point x="387" y="664"/>
      <point x="460" y="601"/>
      <point x="460" y="496" type="curve" smooth="yes"/>
      <point x="460" y="374"/>
      <point x="382" y="325"/>
      <point x="284" y="325" type="curve" smooth="yes"/>
      <point x="265" y="325"/>
      <point x="243" y="327"/>
      <point x="222" y="331" type="curve"/>
      <point x="222" y="655" type="line"/>
      <point x="247" y="661"/>
      <point x="272" y="664"/>
    </contour>
  </outline>
</glyph>
<glyph name="Q" format="2">
  <advance width="743"/>
  <unicode hex="0051"/>
  <outline>
    <contour>
      <point x="44" y="351" type="curve" smooth="yes"/>
      <point x="44" y="141"/>
      <point x="159" y="-5"/>
      <point x="345" y="-19" type="curve"/>
      <point x="430" y="-104"/>
      <point x="558" y="-208"/>
      <point x="663" y="-208" type="curve" smooth="yes"/>
      <point x="718" y="-208"/>
      <point x="779" y="-165"/>
      <point x="816" y="-133" type="curve"/>
      <point x="817" y="-128"/>
      <point x="807" y="-112"/>
      <point x="804" y="-111" type="curve"/>
      <point x="785" y="-120"/>
      <point x="754" y="-128"/>
      <point x="721" y="-128" type="curve" smooth="yes"/>
      <point x="611" y="-128"/>
      <point x="510" y="-85"/>
      <point x="425" y="-16" type="curve"/>
      <point x="599" y="6"/>
      <point x="709" y="149"/>
      <point x="709" y="351" type="curve" smooth="yes"/>
      <point x="709" y="565"/>
      <point x="578" y="720"/>
      <point x="375" y="720" type="curve" smooth="yes"/>
      <point x="172" y="720"/>
      <point x="44" y="565"/>
    </contour>
    <contour>
      <point x="594" y="358" type="curve" smooth="yes"/>
      <point x="594" y="180"/>
      <point x="530" y="26"/>
      <point x="386" y="26" type="curve" smooth="yes"/>
      <point x="233" y="26"/>
      <point x="159" y="181"/>
      <point x="159" y="342" type="curve" smooth="yes"/>
      <point x="159" y="513"/>
      <point x="218" y="674"/>
      <point x="372" y="674" type="curve" smooth="yes"/>
      <point x="517" y="674"/>
      <point x="594" y="515"/>
    </contour>
  </outline>
</glyph>
<glyph name="R" format="2">
  <advance width="652"/>
  <unicode hex="0052"/>
  <outline>
    <contour>
      <point x="222" y="50" type="line"/>
      <point x="222" y="315" type="line"/>
      <point x="238" y="314"/>
      <point x="255" y="313"/>
      <point x="272" y="313" type="curve" smooth="yes"/>
      <point x="295" y="313"/>
      <point x="317" y="314"/>
      <point x="339" y="316" type="curve"/>
      <point x="413" y="167"/>
      <point x="433" y="83"/>
      <point x="472" y="37" type="curve" smooth="yes"/>
      <point x="501" y="2"/>
      <point x="536" y="-15"/>
      <point x="581" y="-15" type="curve" smooth="yes"/>
      <point x="593" y="-15"/>
      <point x="636" y="-14"/>
      <point x="647" y="0" type="curve"/>
      <point x="648" y="11"/>
      <point x="648" y="21"/>
      <point x="641" y="32" type="curve"/>
      <point x="629" y="31" type="line"/>
      <point x="559" y="31"/>
      <point x="553" y="64"/>
      <point x="446" y="300" type="curve" smooth="yes"/>
      <point x="441" y="311"/>
      <point x="433" y="326"/>
      <point x="424" y="332" type="curve"/>
      <point x="424" y="336" type="line"/>
      <point x="513" y="366"/>
      <point x="561" y="421"/>
      <point x="561" y="512" type="curve" smooth="yes"/>
      <point x="561" y="641"/>
      <point x="453" y="715"/>
      <point x="281" y="706" type="curve"/>
      <point x="187" y="700" type="line" smooth="yes"/>
      <point x="144" y="698"/>
      <point x="81" y="703"/>
      <point x="45" y="705" type="curve"/>
      <point x="39" y="693"/>
      <point x="38" y="682"/>
      <point x="40" y="670" type="curve"/>
      <point x="117" y="650" type="line"/>
      <point x="117" y="50" type="line"/>
      <point x="91" y="39"/>
      <point x="65" y="33"/>
      <point x="37" y="30" type="curve"/>
      <point x="33" y="18"/>
      <point x="33" y="7"/>
      <point x="35" y="-5" type="curve"/>
      <point x="72" y="-3"/>
      <point x="134" y="0"/>
      <point x="172" y="0" type="curve" smooth="yes"/>
      <point x="209" y="0"/>
      <point x="258" y="-3"/>
      <point x="294" y="-5" type="curve"/>
      <point x="300" y="7"/>
      <point x="301" y="18"/>
      <point x="299" y="30" type="curve"/>
    </contour>
    <contour>
      <point x="463" y="506" type="curve" smooth="yes"/>
      <point x="463" y="413"/>
      <point x="398" y="354"/>
      <point x="282" y="354" type="curve" smooth="yes"/>
      <point x="263" y="354"/>
      <point x="243" y="356"/>
      <point x="222" y="361" type="curve"/>
      <point x="222" y="649" type="line"/>
      <point x="248" y="656"/>
      <point x="272" y="660"/>
      <point x="295" y="660" type="curve" smooth="yes"/>
      <point x="388" y="660"/>
      <point x="463" y="607"/>
    </contour>
  </outline>
</glyph>
<glyph name="S" format="2">
  <advance width="545"/>
  <unicode hex="0053"/>
  <outline>
    <contour>
      <point x="258" y="-19" type="curve" smooth="yes"/>
      <point x="381" y="-19"/>
      <point x="512" y="43"/>
      <point x="512" y="174" type="curve" smooth="yes"/>
      <point x="512" y="299"/>
      <point x="445" y="340"/>
      <point x="290" y="409" type="curve" smooth="yes"/>
      <point x="166" y="464"/>
      <point x="147" y="496"/>
      <point x="147" y="553" type="curve" smooth="yes"/>
      <point x="147" y="636"/>
      <point x="224" y="668"/>
      <point x="303" y="668" type="curve" smooth="yes"/>
      <point x="334" y="668"/>
      <point x="365" y="663"/>
      <point x="393" y="655" type="curve"/>
      <point x="404" y="522" type="line"/>
      <point x="413" y="518"/>
      <point x="424" y="516"/>
      <point x="435" y="516" type="curve" smooth="yes"/>
      <point x="439" y="516"/>
      <point x="444" y="516"/>
      <point x="448" y="517" type="curve"/>
      <point x="467" y="570"/>
      <point x="481" y="625"/>
      <point x="479" y="686" type="curve"/>
      <point x="428" y="706"/>
      <point x="368" y="716"/>
      <point x="309" y="716" type="curve" smooth="yes"/>
      <point x="177" y="716"/>
      <point x="52" y="662"/>
      <point x="52" y="536" type="curve" smooth="yes"/>
      <point x="52" y="453"/>
      <point x="68" y="391"/>
      <point x="213" y="328" type="curve" smooth="yes"/>
      <point x="391" y="250"/>
      <point x="407" y="216"/>
      <point x="407" y="146" type="curve" smooth="yes"/>
      <point x="407" y="58"/>
      <point x="315" y="37"/>
      <point x="243" y="37" type="curve" smooth="yes"/>
      <point x="198" y="37"/>
      <point x="160" y="46"/>
      <point x="135" y="52" type="curve"/>
      <point x="119" y="185" type="line"/>
      <point x="110" y="189"/>
      <point x="98" y="191"/>
      <point x="88" y="191" type="curve" smooth="yes"/>
      <point x="83" y="191"/>
      <point x="79" y="190"/>
      <point x="75" y="190" type="curve"/>
      <point x="57" y="131"/>
      <point x="49" y="73"/>
      <point x="49" y="16" type="curve"/>
      <point x="104" y="-10"/>
      <point x="182" y="-19"/>
    </contour>
  </outline>
</glyph>
<glyph name="T" format="2">
  <advance width="623"/>
  <unicode hex="0054"/>
  <outline>
    <contour>
      <point x="256" y="655" type="line"/>
      <point x="256" y="50" type="line"/>
      <point x="231" y="41"/>
      <point x="206" y="34"/>
      <point x="176" y="30" type="curve"/>
      <point x="172" y="18"/>
      <point x="172" y="7"/>
      <point x="174" y="-5" type="curve"/>
      <point x="211" y="-3"/>
      <point x="273" y="0"/>
      <point x="311" y="0" type="curve" smooth="yes"/>
      <point x="348" y="0"/>
      <point x="403" y="-3"/>
      <point x="439" y="-5" type="curve"/>
      <point x="445" y="7"/>
      <point x="446" y="18"/>
      <point x="444" y="30" type="curve"/>
      <point x="361" y="50" type="line"/>
      <point x="361" y="655" type="line"/>
      <point x="526" y="655" type="line"/>
      <point x="555" y="512" type="line"/>
      <point x="571" y="510"/>
      <point x="582" y="510"/>
      <point x="595" y="515" type="curve"/>
      <point x="603" y="577"/>
      <point x="608" y="638"/>
      <point x="606" y="700" type="curve"/>
      <point x="21" y="700" type="line"/>
      <point x="19" y="632"/>
      <point x="25" y="572"/>
      <point x="31" y="515" type="curve"/>
      <point x="44" y="510"/>
      <point x="55" y="510"/>
      <point x="71" y="512" type="curve"/>
      <point x="100" y="655" type="line"/>
    </contour>
  </outline>
</glyph>
<glyph name="U" format="2">
  <advance width="745"/>
  <unicode hex="0055"/>
  <anchor x="397" y="704" name="top"/>
  <outline>
    <contour>
      <point x="641" y="275" type="curve" smooth="yes"/>
      <point x="641" y="650" type="line"/>
      <point x="662" y="660"/>
      <point x="689" y="665"/>
      <point x="721" y="670" type="curve"/>
      <point x="725" y="682"/>
      <point x="725" y="693"/>
      <point x="723" y="705" type="curve"/>
      <point x="686" y="703"/>
      <point x="654" y="700"/>
      <point x="616" y="700" type="curve" smooth="yes"/>
      <point x="579" y="700"/>
      <point x="550" y="703"/>
      <point x="514" y="705" type="curve"/>
      <point x="508" y="693"/>
      <point x="507" y="682"/>
      <point x="509" y="670" type="curve"/>
      <point x="586" y="650" type="line"/>
      <point x="586" y="305" type="line" smooth="yes"/>
      <point x="586" y="180"/>
      <point x="582" y="30"/>
      <point x="407" y="30" type="curve" smooth="yes"/>
      <point x="277" y="30"/>
      <point x="206" y="92"/>
      <point x="206" y="235" type="curve" smooth="yes"/>
      <point x="206" y="650" type="line"/>
      <point x="233" y="662"/>
      <point x="259" y="666"/>
      <point x="286" y="670" type="curve"/>
      <point x="290" y="682"/>
      <point x="290" y="693"/>
      <point x="288" y="705" type="curve"/>
      <point x="251" y="703"/>
      <point x="189" y="700"/>
      <point x="151" y="700" type="curve" smooth="yes"/>
      <point x="114" y="700"/>
      <point x="65" y="703"/>
      <point x="29" y="705" type="curve"/>
      <point x="23" y="693"/>
      <point x="22" y="682"/>
      <point x="24" y="670" type="curve"/>
      <point x="101" y="650" type="line"/>
      <point x="101" y="265" type="line" smooth="yes"/>
      <point x="101" y="32"/>
      <point x="202" y="-20"/>
      <point x="382" y="-20" type="curve" smooth="yes"/>
      <point x="551" y="-20"/>
      <point x="641" y="35"/>
    </contour>
  </outline>
</glyph>
<glyph name="V" format="2">
  <advance width="673"/>
  <unicode hex="0056"/>
  <outline>
    <contour>
      <point x="365" y="-20" type="curve"/>
      <point x="605" y="650" type="line"/>
      <point x="628" y="661"/>
      <point x="659" y="666"/>
      <point x="687" y="670" type="curve"/>
      <point x="691" y="682"/>
      <point x="691" y="693"/>
      <point x="689" y="705" type="curve"/>
      <point x="652" y="703"/>
      <point x="619" y="700"/>
      <point x="581" y="700" type="curve" smooth="yes"/>
      <point x="544" y="700"/>
      <point x="514" y="703"/>
      <point x="478" y="705" type="curve"/>
      <point x="472" y="693"/>
      <point x="471" y="682"/>
      <point x="473" y="670" type="curve"/>
      <point x="550" y="650" type="line"/>
      <point x="417" y="267" type="line"/>
      <point x="401" y="217"/>
      <point x="385" y="165"/>
      <point x="371" y="117" type="curve"/>
      <point x="369" y="117" type="line"/>
      <point x="361" y="163"/>
      <point x="347" y="207"/>
      <point x="327" y="262" type="curve" smooth="yes"/>
      <point x="182" y="650" type="line"/>
      <point x="208" y="660"/>
      <point x="234" y="666"/>
      <point x="262" y="670" type="curve"/>
      <point x="266" y="682"/>
      <point x="266" y="693"/>
      <point x="264" y="705" type="curve"/>
      <point x="227" y="703"/>
      <point x="165" y="700"/>
      <point x="127" y="700" type="curve" smooth="yes"/>
      <point x="90" y="700"/>
      <point x="26" y="703"/>
      <point x="-10" y="705" type="curve"/>
      <point x="-16" y="693"/>
      <point x="-17" y="682"/>
      <point x="-15" y="670" type="curve"/>
      <point x="62" y="650" type="line"/>
      <point x="329" y="-30" type="line"/>
      <point x="341" y="-30"/>
      <point x="355" y="-26"/>
    </contour>
  </outline>
</glyph>
<glyph name="W" format="2">
  <advance width="992"/>
  <unicode hex="0057"/>
  <outline>
    <contour>
      <point x="460" y="564" type="line"/>
      <point x="363" y="254" type="line"/>
      <point x="344" y="199"/>
      <point x="328" y="146"/>
      <point x="320" y="95" type="curve"/>
      <point x="318" y="95" type="line"/>
      <point x="309" y="146"/>
      <point x="292" y="205"/>
      <point x="278" y="257" type="curve" smooth="yes"/>
      <point x="173" y="650" type="line"/>
      <point x="200" y="661"/>
      <point x="228" y="667"/>
      <point x="257" y="670" type="curve"/>
      <point x="261" y="682"/>
      <point x="261" y="693"/>
      <point x="259" y="705" type="curve"/>
      <point x="222" y="703"/>
      <point x="160" y="700"/>
      <point x="122" y="700" type="curve" smooth="yes"/>
      <point x="85" y="700"/>
      <point x="21" y="703"/>
      <point x="-15" y="705" type="curve"/>
      <point x="-21" y="693"/>
      <point x="-22" y="682"/>
      <point x="-20" y="670" type="curve"/>
      <point x="57" y="650" type="line"/>
      <point x="278" y="-30" type="line"/>
      <point x="290" y="-30"/>
      <point x="315" y="-26"/>
      <point x="325" y="-20" type="curve"/>
      <point x="488" y="487" type="line"/>
      <point x="674" y="-30" type="line"/>
      <point x="686" y="-30"/>
      <point x="715" y="-26"/>
      <point x="725" y="-20" type="curve"/>
      <point x="910" y="650" type="line"/>
      <point x="937" y="660"/>
      <point x="965" y="665"/>
      <point x="992" y="670" type="curve"/>
      <point x="996" y="682"/>
      <point x="996" y="693"/>
      <point x="994" y="705" type="curve"/>
      <point x="957" y="703"/>
      <point x="925" y="700"/>
      <point x="887" y="700" type="curve" smooth="yes"/>
      <point x="850" y="700"/>
      <point x="810" y="703"/>
      <point x="774" y="705" type="curve"/>
      <point x="768" y="693"/>
      <point x="767" y="682"/>
      <point x="769" y="670" type="curve"/>
      <point x="856" y="650" type="line"/>
      <point x="754" y="262" type="line" smooth="yes"/>
      <point x="740" y="211"/>
      <point x="726" y="156"/>
      <point x="717" y="106" type="curve"/>
      <point x="715" y="106" type="line"/>
      <point x="707" y="152"/>
      <point x="687" y="215"/>
      <point x="672" y="262" type="curve" smooth="yes"/>
      <point x="548" y="650" type="line"/>
      <point x="575" y="664"/>
      <point x="602" y="665"/>
      <point x="629" y="670" type="curve"/>
      <point x="633" y="682"/>
      <point x="633" y="693"/>
      <point x="631" y="705" type="curve"/>
      <point x="594" y="703"/>
      <point x="532" y="700"/>
      <point x="494" y="700" type="curve" smooth="yes"/>
      <point x="457" y="700"/>
      <point x="393" y="703"/>
      <point x="357" y="705" type="curve"/>
      <point x="351" y="693"/>
      <point x="350" y="682"/>
      <point x="352" y="670" type="curve"/>
      <point x="429" y="650" type="line"/>
    </contour>
  </outline>
</glyph>
<glyph name="X" format="2">
  <advance width="671"/>
  <unicode hex="0058"/>
  <outline>
    <contour>
      <point x="382" y="381" type="line"/>
      <point x="575" y="650" type="line"/>
      <point x="601" y="661"/>
      <point x="635" y="668"/>
      <point x="657" y="670" type="curve"/>
      <point x="661" y="682"/>
      <point x="661" y="693"/>
      <point x="659" y="705" type="curve"/>
      <point x="622" y="703"/>
      <point x="590" y="700"/>
      <point x="552" y="700" type="curve" smooth="yes"/>
      <point x="515" y="700"/>
      <point x="482" y="703"/>
      <point x="446" y="705" type="curve"/>
      <point x="440" y="693"/>
      <point x="439" y="682"/>
      <point x="441" y="670" type="curve"/>
      <point x="518" y="650" type="line"/>
      <point x="354" y="422" type="line"/>
      <point x="212" y="650" type="line"/>
      <point x="234" y="660"/>
      <point x="264" y="665"/>
      <point x="293" y="670" type="curve"/>
      <point x="297" y="682"/>
      <point x="297" y="693"/>
      <point x="295" y="705" type="curve"/>
      <point x="258" y="703"/>
      <point x="193" y="700"/>
      <point x="155" y="700" type="curve" smooth="yes"/>
      <point x="118" y="700"/>
      <point x="54" y="703"/>
      <point x="18" y="705" type="curve"/>
      <point x="12" y="693"/>
      <point x="11" y="682"/>
      <point x="13" y="670" type="curve"/>
      <point x="90" y="650" type="line"/>
      <point x="285" y="343" type="line"/>
      <point x="74" y="50" type="line"/>
      <point x="50" y="38"/>
      <point x="23" y="34"/>
      <point x="-6" y="30" type="curve"/>
      <point x="-10" y="18"/>
      <point x="-10" y="7"/>
      <point x="-8" y="-5" type="curve"/>
      <point x="29" y="-3"/>
      <point x="56" y="0"/>
      <point x="94" y="0" type="curve" smooth="yes"/>
      <point x="131" y="0"/>
      <point x="173" y="-3"/>
      <point x="209" y="-5" type="curve"/>
      <point x="215" y="7"/>
      <point x="216" y="18"/>
      <point x="214" y="30" type="curve"/>
      <point x="137" y="50" type="line"/>
      <point x="312" y="299" type="line"/>
      <point x="471" y="50" type="line"/>
      <point x="449" y="42"/>
      <point x="422" y="36"/>
      <point x="390" y="30" type="curve"/>
      <point x="386" y="18"/>
      <point x="386" y="7"/>
      <point x="388" y="-5" type="curve"/>
      <point x="425" y="-3"/>
      <point x="502" y="0"/>
      <point x="540" y="0" type="curve" smooth="yes"/>
      <point x="577" y="0"/>
      <point x="637" y="-3"/>
      <point x="673" y="-5" type="curve"/>
      <point x="679" y="7"/>
      <point x="680" y="18"/>
      <point x="678" y="30" type="curve"/>
      <point x="653" y="32"/>
      <point x="603" y="40"/>
      <point x="585" y="58" type="curve"/>
    </contour>
  </outline>
</glyph>
<glyph name="Y" format="2">
  <advance width="655"/>
  <unicode hex="0059"/>
  <anchor x="334" y="705" name="top"/>
  <outline>
    <contour>
      <point x="384" y="50" type="line"/>
      <point x="384" y="321" type="line"/>
      <point x="576" y="650" type="line"/>
      <point x="601" y="662"/>
      <point x="633" y="666"/>
      <point x="661" y="670" type="curve"/>
      <point x="665" y="682"/>
      <point x="665" y="693"/>
      <point x="663" y="705" type="curve"/>
      <point x="626" y="703"/>
      <point x="594" y="700"/>
      <point x="556" y="700" type="curve" smooth="yes"/>
      <point x="519" y="700"/>
      <point x="479" y="703"/>
      <point x="443" y="705" type="curve"/>
      <point x="437" y="693"/>
      <point x="436" y="682"/>
      <point x="438" y="670" type="curve"/>
      <point x="515" y="650" type="line"/>
      <point x="349" y="366" type="line"/>
      <point x="345" y="366" type="line"/>
      <point x="180" y="650" type="line"/>
      <point x="207" y="663"/>
      <point x="234" y="666"/>
      <point x="261" y="670" type="curve"/>
      <point x="265" y="682"/>
      <point x="265" y="693"/>
      <point x="263" y="705" type="curve"/>
      <point x="226" y="703"/>
      <point x="161" y="700"/>
      <point x="123" y="700" type="curve" smooth="yes"/>
      <point x="86" y="700"/>
      <point x="28" y="703"/>
      <point x="-8" y="705" type="curve"/>
      <point x="-14" y="693"/>
      <point x="-15" y="682"/>
      <point x="-13" y="670" type="curve"/>
      <point x="64" y="650" type="line"/>
      <point x="279" y="301" type="line"/>
      <point x="279" y="50" type="line"/>
      <point x="252" y="37"/>
      <point x="226" y="34"/>
      <point x="199" y="30" type="curve"/>
      <point x="195" y="18"/>
      <point x="195" y="7"/>
      <point x="197" y="-5" type="curve"/>
      <point x="234" y="-3"/>
      <point x="296" y="0"/>
      <point x="334" y="0" type="curve" smooth="yes"/>
      <point x="371" y="0"/>
      <point x="430" y="-3"/>
      <point x="466" y="-5" type="curve"/>
      <point x="472" y="7"/>
      <point x="473" y="18"/>
      <point x="471" y="30" type="curve"/>
    </contour>
  </outline>
</glyph>
<glyph name="Z" format="2">
  <advance width="595"/>
  <unicode hex="005A"/>
  <outline>
    <contour>
      <point x="34" y="0" type="curve"/>
      <point x="552" y="0" type="line"/>
      <point x="552" y="10"/>
      <point x="552" y="19"/>
      <point x="552" y="29" type="curve" smooth="yes"/>
      <point x="552" y="82"/>
      <point x="551" y="134"/>
      <point x="542" y="185" type="curve"/>
      <point x="529" y="190"/>
      <point x="518" y="190"/>
      <point x="502" y="188" type="curve"/>
      <point x="473" y="45" type="line"/>
      <point x="154" y="45" type="line"/>
      <point x="547" y="660" type="line"/>
      <point x="550" y="672"/>
      <point x="550" y="686"/>
      <point x="547" y="700" type="curve"/>
      <point x="51" y="700" type="line"/>
      <point x="51" y="638"/>
      <point x="56" y="577"/>
      <point x="61" y="515" type="curve"/>
      <point x="74" y="510"/>
      <point x="85" y="510"/>
      <point x="101" y="512" type="curve"/>
      <point x="130" y="655" type="line"/>
      <point x="431" y="655" type="line"/>
      <point x="34" y="45" type="line"/>
      <point x="31" y="30"/>
      <point x="32" y="15"/>
    </contour>
  </outline>
</glyph>
<glyph name="bracketleft" format="2">
  <advance width="290"/>
  <unicode hex="005B"/>
  <outline>
    <contour>
      <point x="270" y="739" type="curve"/>
      <point x="83" y="739" type="line"/>
      <point x="83" y="-136" type="line"/>
      <point x="270" y="-136" type="line"/>
      <point x="276" y="-120"/>
      <point x="274" y="-106"/>
      <point x="270" y="-93" type="curve"/>
      <point x="166" y="-93" type="line"/>
      <point x="166" y="695" type="line"/>
      <point x="270" y="695" type="line"/>
      <point x="276" y="710"/>
      <point x="277" y="724"/>
    </contour>
  </outline>
</glyph>
<glyph name="asciicircum" format="2">
  <advance width="481"/>
  <unicode hex="005E"/>
  <outline>
    <contour>
      <point x="240" y="748" type="line"/>
      <point x="11" y="520" type="line"/>
      <point x="20" y="508"/>
      <point x="55" y="482"/>
      <point x="66" y="482" type="curve"/>
      <point x="242" y="656" type="line"/>
      <point x="244" y="656" type="line"/>
      <point x="420" y="482" type="line"/>
      <point x="431" y="482"/>
      <point x="466" y="508"/>
      <point x="475" y="520" type="curve"/>
      <point x="246" y="748" type="line"/>
    </contour>
  </outline>
</glyph>
<glyph name="underscore" format="2">
  <advance width="654"/>
  <unicode hex="005F"/>
  <outline>
    <contour>
      <point x="62" y="-124" type="curve"/>
      <point x="580" y="-124" type="line"/>
      <point x="587" y="-113"/>
      <point x="591" y="-78"/>
      <point x="591" y="-60" type="curve"/>
      <point x="73" y="-60" type="line"/>
      <point x="66" y="-68"/>
      <point x="60" y="-110"/>
    </contour>
  </outline>
</glyph>
<glyph name="grave" format="2">
  <advance width="187"/>
  <unicode hex="0060"/>
  <anchor x="109" y="505" name="_top"/>
  <outline>
    <contour>
      <point x="164" y="583" type="curve"/>
      <point x="84" y="757" type="line"/>
      <point x="54" y="752"/>
      <point x="24" y="740"/>
      <point x="4" y="717" type="curve"/>
      <point x="45" y="661"/>
      <point x="84" y="608"/>
      <point x="128" y="566" type="curve"/>
      <point x="140" y="568"/>
      <point x="154" y="573"/>
    </contour>
  </outline>
</glyph>
<glyph name="a" format="2">
  <advance width="496"/>
  <unicode hex="0061"/>
  <anchor x="241" y="505" name="top"/>
  <outline>
    <contour>
      <point x="130" y="120" type="curve" smooth="yes"/>
      <point x="130" y="201"/>
      <point x="180" y="230"/>
      <point x="317" y="230" type="curve"/>
      <point x="317" y="95" type="line"/>
      <point x="297" y="65"/>
      <point x="247" y="38"/>
      <point x="210" y="38" type="curve" smooth="yes"/>
      <point x="162" y="38"/>
      <point x="130" y="65"/>
    </contour>
    <contour>
      <point x="415" y="49" type="curve"/>
      <point x="415" y="317" type="line" smooth="yes"/>
      <point x="415" y="475"/>
      <point x="368" y="520"/>
      <point x="257" y="520" type="curve" smooth="yes"/>
      <point x="182" y="520"/>
      <point x="122" y="509"/>
      <point x="59" y="480" type="curve"/>
      <point x="58" y="439"/>
      <point x="67" y="394"/>
      <point x="79" y="350" type="curve"/>
      <point x="89" y="348"/>
      <point x="112" y="349"/>
      <point x="123" y="354" type="curve"/>
      <point x="136" y="460" type="line"/>
      <point x="166" y="471"/>
      <point x="196" y="475"/>
      <point x="230" y="475" type="curve" smooth="yes"/>
      <point x="290" y="475"/>
      <point x="319" y="432"/>
      <point x="318" y="358" type="curve" smooth="yes"/>
      <point x="317" y="270" type="line"/>
      <point x="176" y="273"/>
      <point x="30" y="244"/>
      <point x="30" y="110" type="curve" smooth="yes"/>
      <point x="30" y="25"/>
      <point x="92" y="-17"/>
      <point x="172" y="-17" type="curve" smooth="yes"/>
      <point x="239" y="-17"/>
      <point x="287" y="10"/>
      <point x="321" y="45" type="curve"/>
      <point x="325" y="45" type="line"/>
      <point x="339" y="-7" type="line"/>
      <point x="355" y="-11"/>
      <point x="375" y="-13"/>
      <point x="396" y="-13" type="curve" smooth="yes"/>
      <point x="427" y="-13"/>
      <point x="459" y="-10"/>
      <point x="480" y="-6" type="curve"/>
      <point x="486" y="6"/>
      <point x="487" y="17"/>
      <point x="485" y="29" type="curve"/>
      <point x="462" y="35"/>
      <point x="438" y="38"/>
    </contour>
  </outline>
</glyph>
<glyph name="b" format="2">
  <advance width="572"/>
  <unicode hex="0062"/>
  <outline>
    <contour>
      <point x="167" y="455" type="line"/>
      <point x="167" y="745" type="line"/>
      <point x="154" y="751"/>
      <point x="140" y="755"/>
      <point x="127" y="756" type="curve"/>
      <point x="85" y="745"/>
      <point x="42" y="736"/>
      <point x="-6" y="729" type="curve"/>
      <point x="-12" y="718"/>
      <point x="-13" y="707"/>
      <point x="-11" y="694" type="curve"/>
      <point x="72" y="686" type="line"/>
      <point x="72" y="18" type="line"/>
      <point x="128" y="-6"/>
      <point x="207" y="-20"/>
      <point x="262" y="-20" type="curve" smooth="yes"/>
      <point x="421" y="-20"/>
      <point x="532" y="74"/>
      <point x="532" y="249" type="curve" smooth="yes"/>
      <point x="532" y="408"/>
      <point x="451" y="510"/>
      <point x="322" y="510" type="curve" smooth="yes"/>
      <point x="277" y="510"/>
      <point x="225" y="497"/>
      <point x="172" y="450" type="curve"/>
    </contour>
    <contour>
      <point x="172" y="43" type="curve"/>
      <point x="172" y="392" type="line"/>
      <point x="190" y="417"/>
      <point x="242" y="451"/>
      <point x="292" y="451" type="curve" smooth="yes"/>
      <point x="364" y="451"/>
      <point x="425" y="389"/>
      <point x="425" y="249" type="curve" smooth="yes"/>
      <point x="425" y="104"/>
      <point x="366" y="20"/>
      <point x="272" y="20" type="curve" smooth="yes"/>
      <point x="227" y="20"/>
      <point x="201" y="29"/>
    </contour>
  </outline>
</glyph>
<glyph name="c" format="2">
  <advance width="484"/>
  <unicode hex="0063"/>
  <anchor x="279" y="-20" name="bottom"/>
  <outline>
    <contour>
      <point x="377" y="460" type="curve"/>
      <point x="390" y="354" type="line"/>
      <point x="399" y="350"/>
      <point x="408" y="349"/>
      <point x="418" y="349" type="curve" smooth="yes"/>
      <point x="423" y="349"/>
      <point x="428" y="349"/>
      <point x="434" y="350" type="curve"/>
      <point x="447" y="390"/>
      <point x="454" y="435"/>
      <point x="454" y="486" type="curve"/>
      <point x="402" y="509"/>
      <point x="349" y="518"/>
      <point x="299" y="518" type="curve" smooth="yes"/>
      <point x="156" y="518"/>
      <point x="37" y="426"/>
      <point x="37" y="250" type="curve" smooth="yes"/>
      <point x="37" y="79"/>
      <point x="156" y="-17"/>
      <point x="281" y="-17" type="curve" smooth="yes"/>
      <point x="341" y="-17"/>
      <point x="402" y="6"/>
      <point x="452" y="58" type="curve"/>
      <point x="449" y="68"/>
      <point x="445" y="77"/>
      <point x="434" y="84" type="curve"/>
      <point x="388" y="54"/>
      <point x="340" y="37"/>
      <point x="296" y="37" type="curve" smooth="yes"/>
      <point x="212" y="37"/>
      <point x="144" y="100"/>
      <point x="144" y="250" type="curve" smooth="yes"/>
      <point x="144" y="381"/>
      <point x="196" y="474"/>
      <point x="302" y="474" type="curve" smooth="yes"/>
      <point x="325" y="474"/>
      <point x="357" y="469"/>
    </contour>
  </outline>
</glyph>
<glyph name="d" format="2">
  <advance width="586"/>
  <unicode hex="0064"/>
  <outline>
    <contour>
      <point x="285" y="38" type="curve" smooth="yes"/>
      <point x="194" y="38"/>
      <point x="146" y="112"/>
      <point x="146" y="250" type="curve" smooth="yes"/>
      <point x="146" y="385"/>
      <point x="196" y="471"/>
      <point x="300" y="471" type="curve" smooth="yes"/>
      <point x="338" y="471"/>
      <point x="373" y="461"/>
      <point x="399" y="439" type="curve"/>
      <point x="399" y="91" type="line"/>
      <point x="374" y="64"/>
      <point x="337" y="38"/>
    </contour>
    <contour>
      <point x="499" y="48" type="curve"/>
      <point x="499" y="745" type="line"/>
      <point x="486" y="751"/>
      <point x="472" y="755"/>
      <point x="459" y="756" type="curve"/>
      <point x="417" y="745"/>
      <point x="372" y="736"/>
      <point x="324" y="729" type="curve"/>
      <point x="318" y="718"/>
      <point x="317" y="707"/>
      <point x="319" y="694" type="curve"/>
      <point x="402" y="686" type="line"/>
      <point x="402" y="494" type="line"/>
      <point x="399" y="494" type="line"/>
      <point x="370" y="509"/>
      <point x="329" y="519"/>
      <point x="292" y="519" type="curve" smooth="yes"/>
      <point x="138" y="519"/>
      <point x="40" y="415"/>
      <point x="40" y="241" type="curve" smooth="yes"/>
      <point x="40" y="88"/>
      <point x="131" y="-20"/>
      <point x="244" y="-20" type="curve" smooth="yes"/>
      <point x="300" y="-20"/>
      <point x="343" y="-3"/>
      <point x="399" y="45" type="curve"/>
      <point x="404" y="45" type="line"/>
      <point x="407" y="26"/>
      <point x="412" y="9"/>
      <point x="423" y="-8" type="curve"/>
      <point x="439" y="-12"/>
      <point x="459" y="-14"/>
      <point x="480" y="-14" type="curve" smooth="yes"/>
      <point x="511" y="-14"/>
      <point x="543" y="-11"/>
      <point x="564" y="-7" type="curve"/>
      <point x="570" y="5"/>
      <point x="571" y="15"/>
      <point x="569" y="28" type="curve"/>
      <point x="544" y="30"/>
      <point x="511" y="37"/>
    </contour>
  </outline>
</glyph>
<glyph name="e" format="2">
  <advance width="495"/>
  <unicode hex="0065"/>
  <anchor x="275" y="503" name="top"/>
  <outline>
    <contour>
      <point x="143" y="250" type="curve" smooth="yes"/>
      <point x="143" y="270" type="line"/>
      <point x="445" y="267" type="line"/>
      <point x="459" y="278" type="line"/>
      <point x="460" y="287"/>
      <point x="460" y="295"/>
      <point x="460" y="304" type="curve" smooth="yes"/>
      <point x="460" y="429"/>
      <point x="404" y="517"/>
      <point x="286" y="517" type="curve" smooth="yes"/>
      <point x="148" y="517"/>
      <point x="37" y="420"/>
      <point x="37" y="250" type="curve" smooth="yes"/>
      <point x="37" y="84"/>
      <point x="139" y="-17"/>
      <point x="291" y="-17" type="curve" smooth="yes"/>
      <point x="350" y="-17"/>
      <point x="410" y="11"/>
      <point x="452" y="59" type="curve"/>
      <point x="451" y="69"/>
      <point x="446" y="78"/>
      <point x="434" y="83" type="curve"/>
      <point x="381" y="47"/>
      <point x="355" y="38"/>
      <point x="294" y="38" type="curve" smooth="yes"/>
      <point x="201" y="38"/>
      <point x="143" y="115"/>
    </contour>
    <contour>
      <point x="285" y="474" type="curve" smooth="yes"/>
      <point x="347" y="474"/>
      <point x="365" y="426"/>
      <point x="365" y="323" type="curve"/>
      <point x="147" y="311" type="line"/>
      <point x="163" y="421"/>
      <point x="227" y="474"/>
    </contour>
  </outline>
</glyph>
<glyph name="f" format="2">
  <advance width="352"/>
  <unicode hex="0066"/>
  <outline>
    <contour>
      <point x="315" y="708" type="curve"/>
      <point x="326" y="620" type="line"/>
      <point x="337" y="615"/>
      <point x="357" y="614"/>
      <point x="367" y="616" type="curve"/>
      <point x="376" y="651"/>
      <point x="382" y="688"/>
      <point x="386" y="725" type="curve"/>
      <point x="350" y="747"/>
      <point x="321" y="755"/>
      <point x="268" y="755" type="curve" smooth="yes"/>
      <point x="166" y="755"/>
      <point x="98" y="671"/>
      <point x="98" y="535" type="curve" smooth="yes"/>
      <point x="98" y="475" type="line"/>
      <point x="43" y="475" type="line"/>
      <point x="37" y="468"/>
      <point x="31" y="438"/>
      <point x="33" y="425" type="curve"/>
      <point x="98" y="425" type="line"/>
      <point x="98" y="50" type="line"/>
      <point x="76" y="40"/>
      <point x="52" y="35"/>
      <point x="28" y="30" type="curve"/>
      <point x="24" y="18"/>
      <point x="24" y="7"/>
      <point x="26" y="-5" type="curve"/>
      <point x="63" y="-3"/>
      <point x="110" y="0"/>
      <point x="148" y="0" type="curve" smooth="yes"/>
      <point x="185" y="0"/>
      <point x="254" y="-3"/>
      <point x="290" y="-5" type="curve"/>
      <point x="296" y="7"/>
      <point x="297" y="18"/>
      <point x="295" y="30" type="curve"/>
      <point x="198" y="50" type="line"/>
      <point x="198" y="425" type="line"/>
      <point x="328" y="425" type="line"/>
      <point x="334" y="435"/>
      <point x="338" y="459"/>
      <point x="338" y="475" type="curve"/>
      <point x="198" y="475" type="line"/>
      <point x="198" y="560" type="line" smooth="yes"/>
      <point x="198" y="657"/>
      <point x="223" y="716"/>
      <point x="276" y="716" type="curve" smooth="yes"/>
      <point x="290" y="716"/>
      <point x="301" y="714"/>
    </contour>
  </outline>
</glyph>
<glyph name="g" format="2">
  <advance width="522"/>
  <unicode hex="0067"/>
  <outline>
    <contour>
      <point x="256" y="167" type="curve" smooth="yes"/>
      <point x="344" y="167"/>
      <point x="464" y="215"/>
      <point x="464" y="333" type="curve" smooth="yes"/>
      <point x="464" y="400"/>
      <point x="433" y="444"/>
      <point x="390" y="470" type="curve"/>
      <point x="435" y="473"/>
      <point x="481" y="484"/>
      <point x="517" y="496" type="curve"/>
      <point x="521" y="515"/>
      <point x="504" y="560"/>
      <point x="489" y="569" type="curve"/>
      <point x="356" y="487" type="line"/>
      <point x="324" y="500"/>
      <point x="288" y="505"/>
      <point x="256" y="505" type="curve" smooth="yes"/>
      <point x="163" y="505"/>
      <point x="48" y="462"/>
      <point x="48" y="333" type="curve" smooth="yes"/>
      <point x="48" y="263"/>
      <point x="89" y="218"/>
      <point x="142" y="192" type="curve"/>
      <point x="121" y="172"/>
      <point x="101" y="145"/>
      <point x="101" y="101" type="curve" smooth="yes"/>
      <point x="101" y="74"/>
      <point x="111" y="55"/>
      <point x="134" y="35" type="curve"/>
      <point x="62" y="6"/>
      <point x="40" y="-46"/>
      <point x="40" y="-94" type="curve" smooth="yes"/>
      <point x="40" y="-165"/>
      <point x="104" y="-226"/>
      <point x="256" y="-226" type="curve" smooth="yes"/>
      <point x="375" y="-226"/>
      <point x="507" y="-174"/>
      <point x="507" y="-55" type="curve" smooth="yes"/>
      <point x="507" y="49"/>
      <point x="437" y="71"/>
      <point x="304" y="87" type="curve" smooth="yes"/>
      <point x="168" y="103"/>
      <point x="162" y="120"/>
      <point x="162" y="139" type="curve" smooth="yes"/>
      <point x="162" y="147"/>
      <point x="166" y="158"/>
      <point x="180" y="178" type="curve"/>
      <point x="206" y="170"/>
      <point x="232" y="167"/>
    </contour>
    <contour>
      <point x="256" y="205" type="curve" smooth="yes"/>
      <point x="188" y="205"/>
      <point x="139" y="259"/>
      <point x="139" y="335" type="curve" smooth="yes"/>
      <point x="139" y="418"/>
      <point x="188" y="467"/>
      <point x="256" y="467" type="curve" smooth="yes"/>
      <point x="324" y="467"/>
      <point x="373" y="418"/>
      <point x="373" y="335" type="curve" smooth="yes"/>
      <point x="373" y="259"/>
      <point x="324" y="205"/>
    </contour>
    <contour>
      <point x="271" y="7" type="curve" smooth="yes"/>
      <point x="347" y="-4"/>
      <point x="417" y="-22"/>
      <point x="417" y="-81" type="curve" smooth="yes"/>
      <point x="417" y="-132"/>
      <point x="359" y="-188"/>
      <point x="261" y="-188" type="curve" smooth="yes"/>
      <point x="170" y="-188"/>
      <point x="121" y="-136"/>
      <point x="121" y="-80" type="curve" smooth="yes"/>
      <point x="121" y="-29"/>
      <point x="138" y="-4"/>
      <point x="170" y="23" type="curve"/>
      <point x="207" y="14"/>
      <point x="247" y="11"/>
    </contour>
  </outline>
</glyph>
<glyph name="h" format="2">
  <advance width="598"/>
  <unicode hex="0068"/>
  <outline>
    <contour>
      <point x="184" y="445" type="line"/>
      <point x="184" y="745" type="line"/>
      <point x="171" y="751"/>
      <point x="159" y="755"/>
      <point x="146" y="756" type="curve"/>
      <point x="104" y="745"/>
      <point x="59" y="736"/>
      <point x="11" y="729" type="curve"/>
      <point x="5" y="718"/>
      <point x="4" y="707"/>
      <point x="6" y="694" type="curve"/>
      <point x="89" y="686" type="line"/>
      <point x="89" y="50" type="line"/>
      <point x="70" y="41"/>
      <point x="44" y="36"/>
      <point x="19" y="30" type="curve"/>
      <point x="15" y="18"/>
      <point x="15" y="7"/>
      <point x="17" y="-5" type="curve"/>
      <point x="54" y="-3"/>
      <point x="101" y="0"/>
      <point x="139" y="0" type="curve" smooth="yes"/>
      <point x="176" y="0"/>
      <point x="215" y="-3"/>
      <point x="251" y="-5" type="curve"/>
      <point x="257" y="7"/>
      <point x="258" y="18"/>
      <point x="256" y="30" type="curve"/>
      <point x="189" y="50" type="line"/>
      <point x="189" y="392" type="line"/>
      <point x="220" y="427"/>
      <point x="270" y="450"/>
      <point x="313" y="450" type="curve" smooth="yes"/>
      <point x="367" y="450"/>
      <point x="410" y="433"/>
      <point x="410" y="349" type="curve" smooth="yes"/>
      <point x="410" y="50" type="line"/>
      <point x="389" y="40"/>
      <point x="364" y="35"/>
      <point x="340" y="30" type="curve"/>
      <point x="336" y="18"/>
      <point x="336" y="7"/>
      <point x="338" y="-5" type="curve"/>
      <point x="375" y="-3"/>
      <point x="422" y="0"/>
      <point x="460" y="0" type="curve" smooth="yes"/>
      <point x="497" y="0"/>
      <point x="541" y="-3"/>
      <point x="577" y="-5" type="curve"/>
      <point x="583" y="7"/>
      <point x="584" y="18"/>
      <point x="582" y="30" type="curve"/>
      <point x="510" y="50" type="line"/>
      <point x="510" y="364" type="line" smooth="yes"/>
      <point x="510" y="457"/>
      <point x="462" y="520"/>
      <point x="353" y="520" type="curve" smooth="yes"/>
      <point x="308" y="520"/>
      <point x="249" y="500"/>
      <point x="189" y="445" type="curve"/>
    </contour>
  </outline>
</glyph>
<glyph name="i" format="2">
  <advance width="290"/>
  <unicode hex="0069"/>
  <outline>
    <contour>
      <point x="66" y="669" type="curve" smooth="yes"/>
      <point x="66" y="641"/>
      <point x="93" y="601"/>
      <point x="127" y="601" type="curve" smooth="yes"/>
      <point x="161" y="601"/>
      <point x="198" y="633"/>
      <point x="198" y="660" type="curve" smooth="yes"/>
      <point x="198" y="687"/>
      <point x="173" y="728"/>
      <point x="137" y="728" type="curve" smooth="yes"/>
      <point x="104" y="728"/>
      <point x="66" y="695"/>
    </contour>
    <contour>
      <point x="204" y="50" type="line"/>
      <point x="204" y="499" type="line"/>
      <point x="191" y="505"/>
      <point x="179" y="509"/>
      <point x="166" y="510" type="curve"/>
      <point x="124" y="499"/>
      <point x="74" y="490"/>
      <point x="26" y="483" type="curve"/>
      <point x="20" y="472"/>
      <point x="19" y="461"/>
      <point x="21" y="448" type="curve"/>
      <point x="104" y="440" type="line"/>
      <point x="104" y="50" type="line"/>
      <point x="85" y="41"/>
      <point x="59" y="36"/>
      <point x="34" y="30" type="curve"/>
      <point x="30" y="18"/>
      <point x="30" y="7"/>
      <point x="32" y="-5" type="curve"/>
      <point x="69" y="-3"/>
      <point x="116" y="0"/>
      <point x="154" y="0" type="curve" smooth="yes"/>
      <point x="191" y="0"/>
      <point x="230" y="-3"/>
      <point x="266" y="-5" type="curve"/>
      <point x="272" y="7"/>
      <point x="273" y="18"/>
      <point x="271" y="30" type="curve"/>
    </contour>
  </outline>
</glyph>
<glyph name="j" format="2">
  <advance width="261"/>
  <unicode hex="006A"/>
  <outline>
    <contour>
      <point x="52" y="669" type="curve" smooth="yes"/>
      <point x="52" y="641"/>
      <point x="79" y="601"/>
      <point x="113" y="601" type="curve" smooth="yes"/>
      <point x="147" y="601"/>
      <point x="184" y="633"/>
      <point x="184" y="660" type="curve" smooth="yes"/>
      <point x="184" y="687"/>
      <point x="159" y="728"/>
      <point x="123" y="728" type="curve" smooth="yes"/>
      <point x="90" y="728"/>
      <point x="52" y="695"/>
    </contour>
    <contour>
      <point x="190" y="34" type="curve"/>
      <point x="190" y="499" type="line"/>
      <point x="177" y="505"/>
      <point x="165" y="509"/>
      <point x="152" y="510" type="curve"/>
      <point x="110" y="499"/>
      <point x="60" y="490"/>
      <point x="12" y="483" type="curve"/>
      <point x="6" y="472"/>
      <point x="5" y="461"/>
      <point x="7" y="448" type="curve"/>
      <point x="90" y="440" type="line"/>
      <point x="90" y="30" type="line" smooth="yes"/>
      <point x="90" y="-76"/>
      <point x="76" y="-145"/>
      <point x="-24" y="-203" type="curve"/>
      <point x="-25" y="-220"/>
      <point x="-17" y="-237"/>
      <point x="-5" y="-246" type="curve"/>
      <point x="115" y="-181"/>
      <point x="190" y="-97"/>
    </contour>
  </outline>
</glyph>
<glyph name="k" format="2">
  <advance width="542"/>
  <unicode hex="006B"/>
  <outline>
    <contour>
      <point x="187" y="277" type="line"/>
      <point x="187" y="745" type="line"/>
      <point x="174" y="751"/>
      <point x="162" y="755"/>
      <point x="149" y="756" type="curve"/>
      <point x="107" y="745"/>
      <point x="57" y="736"/>
      <point x="9" y="729" type="curve"/>
      <point x="5" y="721"/>
      <point x="3" y="713"/>
      <point x="3" y="705" type="curve" smooth="yes"/>
      <point x="3" y="702"/>
      <point x="3" y="698"/>
      <point x="4" y="694" type="curve"/>
      <point x="87" y="686" type="line"/>
      <point x="87" y="50" type="line"/>
      <point x="68" y="41"/>
      <point x="42" y="36"/>
      <point x="17" y="30" type="curve"/>
      <point x="15" y="23"/>
      <point x="14" y="16"/>
      <point x="14" y="9" type="curve" smooth="yes"/>
      <point x="14" y="5"/>
      <point x="14" y="0"/>
      <point x="15" y="-5" type="curve"/>
      <point x="52" y="-3"/>
      <point x="99" y="0"/>
      <point x="137" y="0" type="curve" smooth="yes"/>
      <point x="174" y="0"/>
      <point x="213" y="-3"/>
      <point x="249" y="-5" type="curve"/>
      <point x="253" y="3"/>
      <point x="255" y="11"/>
      <point x="255" y="19" type="curve" smooth="yes"/>
      <point x="255" y="23"/>
      <point x="254" y="26"/>
      <point x="254" y="30" type="curve"/>
      <point x="187" y="50" type="line"/>
      <point x="187" y="237" type="line"/>
      <point x="233" y="237" type="line"/>
      <point x="376" y="33" type="line"/>
      <point x="327" y="30" type="line"/>
      <point x="325" y="23"/>
      <point x="324" y="16"/>
      <point x="324" y="9" type="curve" smooth="yes"/>
      <point x="324" y="5"/>
      <point x="324" y="0"/>
      <point x="325" y="-5" type="curve"/>
      <point x="357" y="-2"/>
      <point x="387" y="-1"/>
      <point x="416" y="-1" type="curve" smooth="yes"/>
      <point x="457" y="-1"/>
      <point x="496" y="-3"/>
      <point x="535" y="-5" type="curve"/>
      <point x="539" y="3"/>
      <point x="541" y="11"/>
      <point x="541" y="19" type="curve" smooth="yes"/>
      <point x="541" y="23"/>
      <point x="540" y="26"/>
      <point x="540" y="30" type="curve"/>
      <point x="515" y="32"/>
      <point x="485" y="39"/>
      <point x="473" y="50" type="curve"/>
      <point x="288" y="299" type="line"/>
      <point x="424" y="445" type="line"/>
      <point x="444" y="460"/>
      <point x="477" y="468"/>
      <point x="499" y="470" type="curve"/>
      <point x="501" y="477"/>
      <point x="502" y="484"/>
      <point x="502" y="490" type="curve" smooth="yes"/>
      <point x="502" y="495"/>
      <point x="502" y="500"/>
      <point x="501" y="505" type="curve"/>
      <point x="464" y="503"/>
      <point x="445" y="500"/>
      <point x="407" y="500" type="curve" smooth="yes"/>
      <point x="370" y="500"/>
      <point x="341" y="503"/>
      <point x="305" y="505" type="curve"/>
      <point x="301" y="497"/>
      <point x="299" y="489"/>
      <point x="299" y="481" type="curve" smooth="yes"/>
      <point x="299" y="477"/>
      <point x="299" y="474"/>
      <point x="300" y="470" type="curve"/>
      <point x="373" y="455" type="line"/>
      <point x="213" y="277" type="line"/>
    </contour>
  </outline>
</glyph>
<glyph name="l" format="2">
  <advance width="279"/>
  <unicode hex="006C"/>
  <outline>
    <contour>
      <point x="189" y="50" type="line"/>
      <point x="189" y="745" type="line"/>
      <point x="176" y="751"/>
      <point x="164" y="755"/>
      <point x="151" y="756" type="curve"/>
      <point x="109" y="745"/>
      <point x="59" y="736"/>
      <point x="11" y="729" type="curve"/>
      <point x="5" y="718"/>
      <point x="4" y="707"/>
      <point x="6" y="694" type="curve"/>
      <point x="89" y="686" type="line"/>
      <point x="89" y="50" type="line"/>
      <point x="70" y="41"/>
      <point x="44" y="36"/>
      <point x="19" y="30" type="curve"/>
      <point x="15" y="18"/>
      <point x="15" y="7"/>
      <point x="17" y="-5" type="curve"/>
      <point x="54" y="-3"/>
      <point x="101" y="0"/>
      <point x="139" y="0" type="curve" smooth="yes"/>
      <point x="176" y="0"/>
      <point x="225" y="-3"/>
      <point x="261" y="-5" type="curve"/>
      <point x="267" y="7"/>
      <point x="268" y="18"/>
      <point x="266" y="30" type="curve"/>
    </contour>
  </outline>
</glyph>
<glyph name="m" format="2">
  <advance width="891"/>
  <unicode hex="006D"/>
  <outline>
    <contour>
      <point x="192" y="433" type="line"/>
      <point x="195" y="501" type="line"/>
      <point x="182" y="507"/>
      <point x="174" y="509"/>
      <point x="161" y="510" type="curve"/>
      <point x="118" y="500"/>
      <point x="71" y="491"/>
      <point x="22" y="483" type="curve"/>
      <point x="16" y="472"/>
      <point x="15" y="461"/>
      <point x="17" y="448" type="curve"/>
      <point x="100" y="440" type="line"/>
      <point x="100" y="50" type="line"/>
      <point x="78" y="42"/>
      <point x="54" y="36"/>
      <point x="30" y="30" type="curve"/>
      <point x="26" y="18"/>
      <point x="26" y="7"/>
      <point x="28" y="-5" type="curve"/>
      <point x="65" y="-3"/>
      <point x="112" y="0"/>
      <point x="150" y="0" type="curve" smooth="yes"/>
      <point x="187" y="0"/>
      <point x="226" y="-3"/>
      <point x="262" y="-5" type="curve"/>
      <point x="268" y="7"/>
      <point x="269" y="18"/>
      <point x="267" y="30" type="curve"/>
      <point x="200" y="50" type="line"/>
      <point x="200" y="386" type="line"/>
      <point x="247" y="427"/>
      <point x="292" y="446"/>
      <point x="324" y="446" type="curve" smooth="yes"/>
      <point x="385" y="446"/>
      <point x="412" y="416"/>
      <point x="412" y="326" type="curve" smooth="yes"/>
      <point x="412" y="50" type="line"/>
      <point x="392" y="42"/>
      <point x="372" y="35"/>
      <point x="346" y="30" type="curve"/>
      <point x="342" y="18"/>
      <point x="342" y="7"/>
      <point x="344" y="-5" type="curve"/>
      <point x="381" y="-3"/>
      <point x="424" y="0"/>
      <point x="462" y="0" type="curve" smooth="yes"/>
      <point x="499" y="0"/>
      <point x="541" y="-3"/>
      <point x="577" y="-5" type="curve"/>
      <point x="583" y="7"/>
      <point x="584" y="18"/>
      <point x="582" y="30" type="curve"/>
      <point x="512" y="50" type="line"/>
      <point x="511" y="371" type="line"/>
      <point x="511" y="379" type="line"/>
      <point x="552" y="427"/>
      <point x="594" y="444"/>
      <point x="624" y="444" type="curve" smooth="yes"/>
      <point x="685" y="444"/>
      <point x="712" y="416"/>
      <point x="712" y="326" type="curve" smooth="yes"/>
      <point x="712" y="50" type="line"/>
      <point x="692" y="42"/>
      <point x="672" y="35"/>
      <point x="646" y="30" type="curve"/>
      <point x="642" y="18"/>
      <point x="642" y="7"/>
      <point x="644" y="-5" type="curve"/>
      <point x="681" y="-3"/>
      <point x="724" y="0"/>
      <point x="762" y="0" type="curve" smooth="yes"/>
      <point x="799" y="0"/>
      <point x="841" y="-3"/>
      <point x="877" y="-5" type="curve"/>
      <point x="883" y="7"/>
      <point x="884" y="18"/>
      <point x="882" y="30" type="curve"/>
      <point x="812" y="50" type="line"/>
      <point x="811" y="371" type="line" smooth="yes"/>
      <point x="811" y="466"/>
      <point x="758" y="516"/>
      <point x="671" y="516" type="curve" smooth="yes"/>
      <point x="615" y="516"/>
      <point x="559" y="496"/>
      <point x="502" y="432" type="curve"/>
      <point x="483" y="487"/>
      <point x="436" y="516"/>
      <point x="371" y="516" type="curve" smooth="yes"/>
      <point x="323" y="516"/>
      <point x="254" y="496"/>
      <point x="193" y="432" type="curve"/>
    </contour>
  </outline>
</glyph>
<glyph name="n" format="2">
  <advance width="603"/>
  <unicode hex="006E"/>
  <anchor x="280" y="505" name="top"/>
  <outline>
    <contour>
      <point x="192" y="433" type="line"/>
      <point x="195" y="501" type="line"/>
      <point x="182" y="507"/>
      <point x="174" y="509"/>
      <point x="161" y="510" type="curve"/>
      <point x="118" y="500"/>
      <point x="71" y="491"/>
      <point x="22" y="483" type="curve"/>
      <point x="16" y="472"/>
      <point x="15" y="461"/>
      <point x="17" y="448" type="curve"/>
      <point x="100" y="440" type="line"/>
      <point x="100" y="50" type="line"/>
      <point x="78" y="42"/>
      <point x="54" y="36"/>
      <point x="30" y="30" type="curve"/>
      <point x="26" y="18"/>
      <point x="26" y="7"/>
      <point x="28" y="-5" type="curve"/>
      <point x="65" y="-3"/>
      <point x="112" y="0"/>
      <point x="150" y="0" type="curve" smooth="yes"/>
      <point x="187" y="0"/>
      <point x="226" y="-3"/>
      <point x="262" y="-5" type="curve"/>
      <point x="268" y="7"/>
      <point x="269" y="18"/>
      <point x="267" y="30" type="curve"/>
      <point x="200" y="50" type="line"/>
      <point x="200" y="386" type="line"/>
      <point x="236" y="427"/>
      <point x="284" y="446"/>
      <point x="334" y="446" type="curve" smooth="yes"/>
      <point x="395" y="446"/>
      <point x="422" y="416"/>
      <point x="422" y="326" type="curve" smooth="yes"/>
      <point x="422" y="50" type="line"/>
      <point x="402" y="42"/>
      <point x="382" y="35"/>
      <point x="356" y="30" type="curve"/>
      <point x="352" y="18"/>
      <point x="352" y="7"/>
      <point x="354" y="-5" type="curve"/>
      <point x="391" y="-3"/>
      <point x="434" y="0"/>
      <point x="472" y="0" type="curve" smooth="yes"/>
      <point x="509" y="0"/>
      <point x="551" y="-3"/>
      <point x="587" y="-5" type="curve"/>
      <point x="593" y="7"/>
      <point x="594" y="18"/>
      <point x="592" y="30" type="curve"/>
      <point x="522" y="50" type="line"/>
      <point x="521" y="371" type="line" smooth="yes"/>
      <point x="521" y="466"/>
      <point x="468" y="516"/>
      <point x="381" y="516" type="curve" smooth="yes"/>
      <point x="330" y="516"/>
      <point x="257" y="496"/>
      <point x="193" y="432" type="curve"/>
    </contour>
  </outline>
</glyph>
<glyph name="o" format="2">
  <advance width="576"/>
  <unicode hex="006F"/>
  <anchor x="289" y="506" name="top"/>
  <outline>
    <contour>
      <point x="36" y="250" type="curve" smooth="yes"/>
      <point x="36" y="90"/>
      <point x="133" y="-20"/>
      <point x="288" y="-20" type="curve" smooth="yes"/>
      <point x="443" y="-20"/>
      <point x="540" y="90"/>
      <point x="540" y="250" type="curve" smooth="yes"/>
      <point x="540" y="405"/>
      <point x="443" y="520"/>
      <point x="288" y="520" type="curve" smooth="yes"/>
      <point x="133" y="520"/>
      <point x="36" y="405"/>
    </contour>
    <contour>
      <point x="432" y="236" type="curve" smooth="yes"/>
      <point x="432" y="125"/>
      <point x="397" y="23"/>
      <point x="290" y="23" type="curve" smooth="yes"/>
      <point x="187" y="23"/>
      <point x="144" y="126"/>
      <point x="144" y="243" type="curve" smooth="yes"/>
      <point x="144" y="370"/>
      <point x="179" y="477"/>
      <point x="286" y="477" type="curve" smooth="yes"/>
      <point x="389" y="477"/>
      <point x="432" y="369"/>
    </contour>
  </outline>
</glyph>
<glyph name="p" format="2">
  <advance width="587"/>
  <unicode hex="0070"/>
  <outline>
    <contour>
      <point x="184" y="462" type="line"/>
      <point x="185" y="502" type="line"/>
      <point x="174" y="506"/>
      <point x="164" y="509"/>
      <point x="150" y="510" type="curve"/>
      <point x="75" y="492"/>
      <point x="23" y="484"/>
      <point x="12" y="483" type="curve"/>
      <point x="6" y="472"/>
      <point x="5" y="461"/>
      <point x="7" y="448" type="curve"/>
      <point x="89" y="440" type="line"/>
      <point x="89" y="-200" type="line"/>
      <point x="66" y="-210"/>
      <point x="42" y="-215"/>
      <point x="19" y="-220" type="curve"/>
      <point x="15" y="-232"/>
      <point x="15" y="-243"/>
      <point x="17" y="-255" type="curve"/>
      <point x="54" y="-253"/>
      <point x="101" y="-250"/>
      <point x="139" y="-250" type="curve" smooth="yes"/>
      <point x="176" y="-250"/>
      <point x="235" y="-253"/>
      <point x="271" y="-255" type="curve"/>
      <point x="277" y="-243"/>
      <point x="278" y="-232"/>
      <point x="276" y="-220" type="curve"/>
      <point x="189" y="-200" type="line"/>
      <point x="189" y="3" type="line"/>
      <point x="221" y="-10"/>
      <point x="265" y="-19"/>
      <point x="291" y="-19" type="curve" smooth="yes"/>
      <point x="450" y="-19"/>
      <point x="547" y="78"/>
      <point x="547" y="263" type="curve" smooth="yes"/>
      <point x="547" y="395"/>
      <point x="474" y="520"/>
      <point x="339" y="520" type="curve" smooth="yes"/>
      <point x="294" y="520"/>
      <point x="242" y="504"/>
      <point x="189" y="457" type="curve"/>
    </contour>
    <contour>
      <point x="189" y="59" type="curve"/>
      <point x="189" y="404" type="line"/>
      <point x="207" y="429"/>
      <point x="259" y="460"/>
      <point x="309" y="460" type="curve" smooth="yes"/>
      <point x="390" y="460"/>
      <point x="441" y="394"/>
      <point x="441" y="257" type="curve" smooth="yes"/>
      <point x="441" y="112"/>
      <point x="389" y="27"/>
      <point x="289" y="27" type="curve" smooth="yes"/>
      <point x="244" y="27"/>
      <point x="214" y="42"/>
    </contour>
  </outline>
</glyph>
<glyph name="q" format="2">
  <advance width="566"/>
  <unicode hex="0071"/>
  <outline>
    <contour>
      <point x="499" y="-200" type="line"/>
      <point x="499" y="465" type="line"/>
      <point x="415" y="516"/>
      <point x="345" y="520"/>
      <point x="309" y="520" type="curve" smooth="yes"/>
      <point x="137" y="520"/>
      <point x="40" y="415"/>
      <point x="40" y="240" type="curve" smooth="yes"/>
      <point x="40" y="118"/>
      <point x="99" y="-20"/>
      <point x="249" y="-20" type="curve" smooth="yes"/>
      <point x="294" y="-20"/>
      <point x="346" y="-10"/>
      <point x="399" y="37" type="curve"/>
      <point x="399" y="-200" type="line"/>
      <point x="374" y="-211"/>
      <point x="347" y="-215"/>
      <point x="319" y="-220" type="curve"/>
      <point x="315" y="-232"/>
      <point x="315" y="-243"/>
      <point x="317" y="-255" type="curve"/>
      <point x="354" y="-253"/>
      <point x="411" y="-250"/>
      <point x="449" y="-250" type="curve" smooth="yes"/>
      <point x="486" y="-250"/>
      <point x="525" y="-253"/>
      <point x="561" y="-255" type="curve"/>
      <point x="567" y="-243"/>
      <point x="568" y="-232"/>
      <point x="566" y="-220" type="curve"/>
    </contour>
    <contour>
      <point x="399" y="438" type="curve"/>
      <point x="399" y="95" type="line"/>
      <point x="381" y="70"/>
      <point x="329" y="40"/>
      <point x="279" y="40" type="curve" smooth="yes"/>
      <point x="171" y="40"/>
      <point x="147" y="150"/>
      <point x="147" y="240" type="curve" smooth="yes"/>
      <point x="147" y="385"/>
      <point x="196" y="471"/>
      <point x="299" y="471" type="curve" smooth="yes"/>
      <point x="352" y="471"/>
      <point x="379" y="454"/>
    </contour>
  </outline>
</glyph>
<glyph name="r" format="2">
  <advance width="431"/>
  <unicode hex="0072"/>
  <outline>
    <contour>
      <point x="200" y="50" type="line"/>
      <point x="200" y="337" type="line"/>
      <point x="239" y="427"/>
      <point x="288" y="456"/>
      <point x="335" y="456" type="curve"/>
      <point x="349" y="356" type="line"/>
      <point x="360" y="351"/>
      <point x="384" y="350"/>
      <point x="394" y="352" type="curve"/>
      <point x="408" y="399"/>
      <point x="416" y="447"/>
      <point x="414" y="502" type="curve"/>
      <point x="392" y="515"/>
      <point x="370" y="517"/>
      <point x="348" y="517" type="curve" smooth="yes"/>
      <point x="289" y="517"/>
      <point x="237" y="468"/>
      <point x="196" y="407" type="curve"/>
      <point x="195" y="408" type="line"/>
      <point x="195" y="499" type="line"/>
      <point x="182" y="505"/>
      <point x="175" y="509"/>
      <point x="162" y="510" type="curve"/>
      <point x="120" y="499"/>
      <point x="70" y="490"/>
      <point x="22" y="483" type="curve"/>
      <point x="16" y="472"/>
      <point x="15" y="461"/>
      <point x="17" y="448" type="curve"/>
      <point x="100" y="440" type="line"/>
      <point x="100" y="50" type="line"/>
      <point x="81" y="41"/>
      <point x="55" y="36"/>
      <point x="30" y="30" type="curve"/>
      <point x="26" y="18"/>
      <point x="26" y="7"/>
      <point x="28" y="-5" type="curve"/>
      <point x="65" y="-3"/>
      <point x="112" y="0"/>
      <point x="150" y="0" type="curve" smooth="yes"/>
      <point x="187" y="0"/>
      <point x="256" y="-3"/>
      <point x="292" y="-5" type="curve"/>
      <point x="298" y="7"/>
      <point x="299" y="18"/>
      <point x="297" y="30" type="curve"/>
    </contour>
  </outline>
</glyph>
<glyph name="s" format="2">
  <advance width="432"/>
  <unicode hex="0073"/>
  <outline>
    <contour>
      <point x="109" y="44" type="curve"/>
      <point x="99" y="150" type="line"/>
      <point x="90" y="153"/>
      <point x="79" y="155"/>
      <point x="66" y="155" type="curve" smooth="yes"/>
      <point x="61" y="155"/>
      <point x="62" y="155"/>
      <point x="56" y="154" type="curve"/>
      <point x="41" y="110"/>
      <point x="38" y="73"/>
      <point x="38" y="37" type="curve" smooth="yes"/>
      <point x="38" y="20" type="line"/>
      <point x="93" y="-14"/>
      <point x="144" y="-20"/>
      <point x="207" y="-20" type="curve" smooth="yes"/>
      <point x="305" y="-20"/>
      <point x="397" y="23"/>
      <point x="397" y="125" type="curve" smooth="yes"/>
      <point x="397" y="196"/>
      <point x="358" y="236"/>
      <point x="252" y="287" type="curve" smooth="yes"/>
      <point x="150" y="336"/>
      <point x="133" y="363"/>
      <point x="133" y="402" type="curve" smooth="yes"/>
      <point x="133" y="457"/>
      <point x="183" y="474"/>
      <point x="230" y="474" type="curve" smooth="yes"/>
      <point x="252" y="474"/>
      <point x="277" y="470"/>
      <point x="294" y="465" type="curve"/>
      <point x="310" y="357" type="line"/>
      <point x="320" y="353"/>
      <point x="330" y="351"/>
      <point x="340" y="351" type="curve" smooth="yes"/>
      <point x="345" y="351"/>
      <point x="350" y="352"/>
      <point x="355" y="353" type="curve"/>
      <point x="367" y="387"/>
      <point x="374" y="430"/>
      <point x="374" y="468" type="curve" smooth="yes"/>
      <point x="374" y="475"/>
      <point x="373" y="483"/>
      <point x="373" y="490" type="curve"/>
      <point x="333" y="507"/>
      <point x="279" y="518"/>
      <point x="227" y="518" type="curve" smooth="yes"/>
      <point x="136" y="518"/>
      <point x="50" y="483"/>
      <point x="50" y="382" type="curve" smooth="yes"/>
      <point x="50" y="298"/>
      <point x="95" y="257"/>
      <point x="172" y="221" type="curve" smooth="yes"/>
      <point x="277" y="172"/>
      <point x="305" y="144"/>
      <point x="305" y="102" type="curve" smooth="yes"/>
      <point x="305" y="48"/>
      <point x="254" y="26"/>
      <point x="200" y="26" type="curve" smooth="yes"/>
      <point x="164" y="26"/>
      <point x="137" y="30"/>
    </contour>
  </outline>
</glyph>
<glyph name="t" format="2">
  <advance width="323"/>
  <unicode hex="0074"/>
  <outline>
    <contour>
      <point x="203" y="-16" type="curve" smooth="yes"/>
      <point x="258" y="-16"/>
      <point x="298" y="7"/>
      <point x="313" y="24" type="curve"/>
      <point x="312" y="38"/>
      <point x="307" y="48"/>
      <point x="298" y="54" type="curve"/>
      <point x="279" y="43"/>
      <point x="259" y="34"/>
      <point x="238" y="34" type="curve" smooth="yes"/>
      <point x="200" y="34"/>
      <point x="188" y="52"/>
      <point x="188" y="144" type="curve" smooth="yes"/>
      <point x="188" y="438" type="line"/>
      <point x="293" y="438" type="line"/>
      <point x="303" y="456"/>
      <point x="302" y="475"/>
      <point x="293" y="493" type="curve"/>
      <point x="188" y="493" type="line"/>
      <point x="188" y="605" type="line"/>
      <point x="135" y="605" type="line"/>
      <point x="108" y="512"/>
      <point x="99" y="483"/>
      <point x="15" y="483" type="curve"/>
      <point x="12" y="468"/>
      <point x="12" y="453"/>
      <point x="20" y="438" type="curve"/>
      <point x="90" y="438" type="line"/>
      <point x="90" y="119" type="line" smooth="yes"/>
      <point x="90" y="14"/>
      <point x="138" y="-16"/>
    </contour>
  </outline>
</glyph>
<glyph name="u" format="2">
  <advance width="590"/>
  <unicode hex="0075"/>
  <anchor x="280" y="504" name="top"/>
  <outline>
    <contour>
      <point x="503" y="48" type="curve"/>
      <point x="503" y="499" type="line"/>
      <point x="490" y="505"/>
      <point x="478" y="509"/>
      <point x="465" y="510" type="curve"/>
      <point x="423" y="499"/>
      <point x="383" y="490"/>
      <point x="335" y="483" type="curve"/>
      <point x="329" y="472"/>
      <point x="328" y="461"/>
      <point x="330" y="448" type="curve"/>
      <point x="403" y="440" type="line"/>
      <point x="403" y="118" type="line"/>
      <point x="372" y="83"/>
      <point x="321" y="54"/>
      <point x="278" y="54" type="curve" smooth="yes"/>
      <point x="224" y="54"/>
      <point x="184" y="65"/>
      <point x="184" y="149" type="curve" smooth="yes"/>
      <point x="184" y="499" type="line"/>
      <point x="171" y="505"/>
      <point x="159" y="509"/>
      <point x="146" y="510" type="curve"/>
      <point x="104" y="499"/>
      <point x="64" y="490"/>
      <point x="16" y="483" type="curve"/>
      <point x="10" y="472"/>
      <point x="9" y="461"/>
      <point x="11" y="448" type="curve"/>
      <point x="84" y="440" type="line"/>
      <point x="84" y="134" type="line" smooth="yes"/>
      <point x="84" y="41"/>
      <point x="123" y="-16"/>
      <point x="219" y="-16" type="curve" smooth="yes"/>
      <point x="287" y="-16"/>
      <point x="340" y="5"/>
      <point x="408" y="66" type="curve"/>
      <point x="413" y="66" type="line"/>
      <point x="430" y="-8" type="line"/>
      <point x="446" y="-12"/>
      <point x="466" y="-14"/>
      <point x="486" y="-14" type="curve" smooth="yes"/>
      <point x="516" y="-14"/>
      <point x="547" y="-11"/>
      <point x="568" y="-7" type="curve"/>
      <point x="574" y="6"/>
      <point x="575" y="15"/>
      <point x="573" y="28" type="curve"/>
      <point x="550" y="33"/>
      <point x="526" y="35"/>
    </contour>
  </outline>
</glyph>
<glyph name="v" format="2">
  <advance width="565"/>
  <unicode hex="0076"/>
  <outline>
    <contour>
      <point x="71" y="450" type="line"/>
      <point x="269" y="-30" type="line"/>
      <point x="281" y="-30"/>
      <point x="304" y="-23"/>
      <point x="314" y="-17" type="curve"/>
      <point x="498" y="450" type="line"/>
      <point x="518" y="461"/>
      <point x="543" y="465"/>
      <point x="569" y="470" type="curve"/>
      <point x="573" y="482"/>
      <point x="573" y="493"/>
      <point x="571" y="505" type="curve"/>
      <point x="534" y="503"/>
      <point x="505" y="500"/>
      <point x="467" y="500" type="curve" smooth="yes"/>
      <point x="430" y="500"/>
      <point x="400" y="503"/>
      <point x="364" y="505" type="curve"/>
      <point x="358" y="493"/>
      <point x="357" y="482"/>
      <point x="359" y="470" type="curve"/>
      <point x="438" y="450" type="line"/>
      <point x="343" y="207" type="line"/>
      <point x="329" y="168"/>
      <point x="320" y="132"/>
      <point x="310" y="94" type="curve"/>
      <point x="307" y="94" type="line"/>
      <point x="298" y="139"/>
      <point x="283" y="184"/>
      <point x="265" y="230" type="curve" smooth="yes"/>
      <point x="179" y="450" type="line"/>
      <point x="200" y="461"/>
      <point x="224" y="465"/>
      <point x="248" y="470" type="curve"/>
      <point x="252" y="482"/>
      <point x="252" y="493"/>
      <point x="250" y="505" type="curve"/>
      <point x="213" y="503"/>
      <point x="159" y="500"/>
      <point x="121" y="500" type="curve" smooth="yes"/>
      <point x="84" y="500"/>
      <point x="35" y="503"/>
      <point x="-1" y="505" type="curve"/>
      <point x="-7" y="493"/>
      <point x="-8" y="482"/>
      <point x="-6" y="470" type="curve"/>
    </contour>
  </outline>
</glyph>
<glyph name="w" format="2">
  <advance width="832"/>
  <unicode hex="0077"/>
  <outline>
    <contour>
      <point x="428" y="333" type="line"/>
      <point x="554" y="-28" type="line"/>
      <point x="566" y="-28"/>
      <point x="592" y="-20"/>
      <point x="602" y="-14" type="curve"/>
      <point x="762" y="450" type="line"/>
      <point x="782" y="461"/>
      <point x="807" y="465"/>
      <point x="833" y="470" type="curve"/>
      <point x="837" y="482"/>
      <point x="837" y="493"/>
      <point x="835" y="505" type="curve"/>
      <point x="798" y="503"/>
      <point x="767" y="500"/>
      <point x="729" y="500" type="curve" smooth="yes"/>
      <point x="692" y="500"/>
      <point x="665" y="503"/>
      <point x="629" y="505" type="curve"/>
      <point x="623" y="493"/>
      <point x="622" y="482"/>
      <point x="624" y="470" type="curve"/>
      <point x="701" y="450" type="line"/>
      <point x="630" y="224" type="line" smooth="yes"/>
      <point x="615" y="178"/>
      <point x="601" y="134"/>
      <point x="591" y="89" type="curve"/>
      <point x="588" y="89" type="line"/>
      <point x="576" y="137"/>
      <point x="561" y="183"/>
      <point x="546" y="232" type="curve" smooth="yes"/>
      <point x="479" y="450" type="line"/>
      <point x="496" y="460"/>
      <point x="524" y="464"/>
      <point x="548" y="470" type="curve"/>
      <point x="552" y="482"/>
      <point x="552" y="493"/>
      <point x="550" y="505" type="curve"/>
      <point x="513" y="503"/>
      <point x="473" y="500"/>
      <point x="435" y="500" type="curve" smooth="yes"/>
      <point x="398" y="500"/>
      <point x="352" y="503"/>
      <point x="316" y="505" type="curve"/>
      <point x="310" y="493"/>
      <point x="309" y="482"/>
      <point x="311" y="470" type="curve"/>
      <point x="388" y="450" type="line"/>
      <point x="402" y="408" type="line"/>
      <point x="338" y="237" type="line" smooth="yes"/>
      <point x="323" y="195"/>
      <point x="309" y="145"/>
      <point x="297" y="99" type="curve"/>
      <point x="294" y="99" type="line"/>
      <point x="283" y="144"/>
      <point x="268" y="195"/>
      <point x="252" y="241" type="curve" smooth="yes"/>
      <point x="178" y="450" type="line"/>
      <point x="196" y="459"/>
      <point x="223" y="464"/>
      <point x="247" y="470" type="curve"/>
      <point x="251" y="482"/>
      <point x="251" y="493"/>
      <point x="249" y="505" type="curve"/>
      <point x="212" y="503"/>
      <point x="161" y="500"/>
      <point x="123" y="500" type="curve" smooth="yes"/>
      <point x="86" y="500"/>
      <point x="37" y="503"/>
      <point x="1" y="505" type="curve"/>
      <point x="-5" y="493"/>
      <point x="-6" y="482"/>
      <point x="-4" y="470" type="curve"/>
      <point x="73" y="450" type="line"/>
      <point x="257" y="-27" type="line"/>
      <point x="269" y="-27"/>
      <point x="294" y="-20"/>
      <point x="304" y="-14" type="curve"/>
    </contour>
  </outline>
</glyph>
<glyph name="x" format="2">
  <advance width="538"/>
  <unicode hex="0078"/>
  <outline>
    <contour>
      <point x="321" y="265" type="line"/>
      <point x="472" y="450" type="line"/>
      <point x="493" y="460"/>
      <point x="518" y="465"/>
      <point x="544" y="470" type="curve"/>
      <point x="548" y="482"/>
      <point x="548" y="493"/>
      <point x="546" y="505" type="curve"/>
      <point x="509" y="503"/>
      <point x="479" y="500"/>
      <point x="441" y="500" type="curve" smooth="yes"/>
      <point x="404" y="500"/>
      <point x="368" y="503"/>
      <point x="332" y="505" type="curve"/>
      <point x="326" y="493"/>
      <point x="325" y="482"/>
      <point x="327" y="470" type="curve"/>
      <point x="406" y="450" type="line"/>
      <point x="292" y="308" type="line"/>
      <point x="194" y="450" type="line"/>
      <point x="206" y="457"/>
      <point x="235" y="466"/>
      <point x="261" y="470" type="curve"/>
      <point x="265" y="482"/>
      <point x="265" y="493"/>
      <point x="263" y="505" type="curve"/>
      <point x="226" y="503"/>
      <point x="172" y="500"/>
      <point x="134" y="500" type="curve" smooth="yes"/>
      <point x="97" y="500"/>
      <point x="48" y="503"/>
      <point x="12" y="505" type="curve"/>
      <point x="6" y="493"/>
      <point x="5" y="482"/>
      <point x="7" y="470" type="curve"/>
      <point x="84" y="450" type="line"/>
      <point x="232" y="233" type="line"/>
      <point x="85" y="50" type="line"/>
      <point x="66" y="38"/>
      <point x="40" y="34"/>
      <point x="13" y="30" type="curve"/>
      <point x="9" y="18"/>
      <point x="9" y="7"/>
      <point x="11" y="-5" type="curve"/>
      <point x="48" y="-3"/>
      <point x="75" y="0"/>
      <point x="113" y="0" type="curve" smooth="yes"/>
      <point x="150" y="0"/>
      <point x="175" y="-3"/>
      <point x="211" y="-5" type="curve"/>
      <point x="217" y="7"/>
      <point x="218" y="18"/>
      <point x="216" y="30" type="curve"/>
      <point x="149" y="50" type="line"/>
      <point x="261" y="190" type="line"/>
      <point x="360" y="47" type="line"/>
      <point x="300" y="30" type="line"/>
      <point x="296" y="18"/>
      <point x="296" y="7"/>
      <point x="298" y="-5" type="curve"/>
      <point x="335" y="-3"/>
      <point x="382" y="0"/>
      <point x="420" y="0" type="curve" smooth="yes"/>
      <point x="457" y="0"/>
      <point x="496" y="-3"/>
      <point x="532" y="-5" type="curve"/>
      <point x="538" y="7"/>
      <point x="539" y="18"/>
      <point x="537" y="30" type="curve"/>
      <point x="515" y="36"/>
      <point x="492" y="38"/>
      <point x="470" y="50" type="curve"/>
    </contour>
  </outline>
</glyph>
<glyph name="y" format="2">
  <advance width="573"/>
  <unicode hex="0079"/>
  <anchor x="315" y="504" name="top"/>
  <outline>
    <contour>
      <point x="111" y="-269" type="curve"/>
      <point x="183" y="-270"/>
      <point x="255" y="-179"/>
      <point x="307" y="-47" type="curve" smooth="yes"/>
      <point x="503" y="450" type="line"/>
      <point x="522" y="461"/>
      <point x="548" y="464"/>
      <point x="572" y="470" type="curve"/>
      <point x="576" y="482"/>
      <point x="576" y="493"/>
      <point x="574" y="505" type="curve"/>
      <point x="537" y="503"/>
      <point x="515" y="500"/>
      <point x="477" y="500" type="curve" smooth="yes"/>
      <point x="440" y="500"/>
      <point x="415" y="503"/>
      <point x="379" y="505" type="curve"/>
      <point x="373" y="493"/>
      <point x="372" y="482"/>
      <point x="374" y="470" type="curve"/>
      <point x="443" y="450" type="line"/>
      <point x="358" y="227" type="line" smooth="yes"/>
      <point x="332" y="161"/>
      <point x="327" y="124"/>
      <point x="319" y="94" type="curve"/>
      <point x="316" y="94" type="line"/>
      <point x="304" y="158"/>
      <point x="275" y="224"/>
      <point x="265" y="249" type="curve" smooth="yes"/>
      <point x="182" y="450" type="line"/>
      <point x="203" y="461"/>
      <point x="227" y="464"/>
      <point x="251" y="470" type="curve"/>
      <point x="255" y="482"/>
      <point x="255" y="493"/>
      <point x="253" y="505" type="curve"/>
      <point x="216" y="503"/>
      <point x="167" y="500"/>
      <point x="129" y="500" type="curve" smooth="yes"/>
      <point x="92" y="500"/>
      <point x="47" y="503"/>
      <point x="11" y="505" type="curve"/>
      <point x="5" y="493"/>
      <point x="4" y="482"/>
      <point x="6" y="470" type="curve"/>
      <point x="83" y="450" type="line"/>
      <point x="265" y="-4" type="line"/>
      <point x="232" y="-94"/>
      <point x="192" y="-168"/>
      <point x="156" y="-202" type="curve"/>
      <point x="92" y="-127" type="line"/>
      <point x="80" y="-127"/>
      <point x="62" y="-135"/>
      <point x="54" y="-141" type="curve"/>
      <point x="60" y="-186"/>
      <point x="88" y="-235"/>
    </contour>
  </outline>
</glyph>
<glyph name="z" format="2">
  <advance width="469"/>
  <unicode hex="007A"/>
  <outline>
    <contour>
      <point x="351" y="45" type="line"/>
      <point x="137" y="45" type="line"/>
      <point x="426" y="463" type="line"/>
      <point x="424" y="475"/>
      <point x="420" y="488"/>
      <point x="412" y="500" type="curve"/>
      <point x="37" y="500" type="line"/>
      <point x="39" y="445"/>
      <point x="45" y="394"/>
      <point x="53" y="347" type="curve"/>
      <point x="63" y="345"/>
      <point x="87" y="346"/>
      <point x="98" y="351" type="curve"/>
      <point x="116" y="455" type="line"/>
      <point x="301" y="455" type="line"/>
      <point x="26" y="34" type="line"/>
      <point x="28" y="19"/>
      <point x="32" y="7"/>
      <point x="36" y="0" type="curve"/>
      <point x="430" y="0" type="line"/>
      <point x="431" y="20"/>
      <point x="431" y="41"/>
      <point x="431" y="61" type="curve" smooth="yes"/>
      <point x="431" y="95"/>
      <point x="430" y="129"/>
      <point x="424" y="163" type="curve"/>
      <point x="414" y="165"/>
      <point x="390" y="164"/>
      <point x="379" y="159" type="curve"/>
    </contour>
  </outline>
</glyph>
<glyph name="braceleft" format="2">
  <advance width="309"/>
  <unicode hex="007B"/>
  <outline>
    <contour>
      <point x="102" y="305" type="curve"/>
      <point x="102" y="311" type="line"/>
      <point x="196" y="330"/>
      <point x="207" y="384"/>
      <point x="207" y="486" type="curve" smooth="yes"/>
      <point x="207" y="572" type="line" smooth="yes"/>
      <point x="207" y="685"/>
      <point x="218" y="708"/>
      <point x="278" y="709" type="curve"/>
      <point x="285" y="723"/>
      <point x="285" y="736"/>
      <point x="278" y="750" type="curve"/>
      <point x="147" y="750"/>
      <point x="124" y="709"/>
      <point x="124" y="561" type="curve" smooth="yes"/>
      <point x="124" y="472" type="line" smooth="yes"/>
      <point x="124" y="367"/>
      <point x="99" y="334"/>
      <point x="3" y="334" type="curve"/>
      <point x="-4" y="317"/>
      <point x="-4" y="300"/>
      <point x="3" y="281" type="curve"/>
      <point x="99" y="281"/>
      <point x="124" y="248"/>
      <point x="124" y="143" type="curve" smooth="yes"/>
      <point x="124" y="56" type="line" smooth="yes"/>
      <point x="124" y="-94"/>
      <point x="147" y="-134"/>
      <point x="278" y="-134" type="curve"/>
      <point x="285" y="-121"/>
      <point x="284" y="-107"/>
      <point x="278" y="-94" type="curve"/>
      <point x="218" y="-93"/>
      <point x="207" y="-68"/>
      <point x="207" y="43" type="curve" smooth="yes"/>
      <point x="207" y="130" type="line" smooth="yes"/>
      <point x="207" y="232"/>
      <point x="196" y="286"/>
    </contour>
  </outline>
</glyph>
<glyph name="bar" format="2">
  <advance width="224"/>
  <unicode hex="007C"/>
  <outline>
    <contour>
      <point x="80" y="770" type="curve"/>
      <point x="80" y="-230" type="line"/>
      <point x="88" y="-237"/>
      <point x="130" y="-243"/>
      <point x="144" y="-241" type="curve"/>
      <point x="144" y="759" type="line"/>
      <point x="133" y="766"/>
      <point x="98" y="770"/>
    </contour>
  </outline>
</glyph>
<glyph name="asciitilde" format="2">
  <advance width="491"/>
  <unicode hex="007E"/>
  <outline>
    <contour>
      <point x="349" y="542" type="curve" smooth="yes"/>
      <point x="425" y="542"/>
      <point x="453" y="611"/>
      <point x="462" y="674" type="curve"/>
      <point x="453" y="679"/>
      <point x="438" y="684"/>
      <point x="413" y="684" type="curve"/>
      <point x="400" y="624"/>
      <point x="385" y="603"/>
      <point x="352" y="603" type="curve" smooth="yes"/>
      <point x="280" y="603"/>
      <point x="252" y="710"/>
      <point x="145" y="710" type="curve" smooth="yes"/>
      <point x="78" y="710"/>
      <point x="43" y="660"/>
      <point x="35" y="591" type="curve"/>
      <point x="50" y="586"/>
      <point x="67" y="584"/>
      <point x="84" y="587" type="curve"/>
      <point x="97" y="637"/>
      <point x="119" y="653"/>
      <point x="144" y="653" type="curve" smooth="yes"/>
      <point x="205" y="653"/>
      <point x="245" y="542"/>
    </contour>
  </outline>
</glyph>
<glyph name="exclamdown" format="2">
  <advance width="234"/>
  <unicode hex="00A1"/>
  <outline>
    <contour>
      <point x="95" y="356" type="curve"/>
      <point x="64" y="-174" type="line"/>
      <point x="71" y="-183"/>
      <point x="99" y="-191"/>
      <point x="116" y="-191" type="curve" smooth="yes"/>
      <point x="136" y="-191"/>
      <point x="166" y="-183"/>
      <point x="171" y="-174" type="curve"/>
      <point x="141" y="356" type="line"/>
      <point x="126" y="361"/>
      <point x="110" y="361"/>
    </contour>
    <contour>
      <point x="51" y="476" type="curve" smooth="yes"/>
      <point x="51" y="463"/>
      <point x="58" y="451"/>
      <point x="73" y="438" type="curve"/>
      <point x="88" y="426"/>
      <point x="103" y="420"/>
      <point x="118" y="420" type="curve" smooth="yes"/>
      <point x="151" y="420"/>
      <point x="177" y="456"/>
      <point x="177" y="485" type="curve" smooth="yes"/>
      <point x="177" y="512"/>
      <point x="142" y="541"/>
      <point x="109" y="541" type="curve" smooth="yes"/>
      <point x="78" y="541"/>
      <point x="51" y="505"/>
    </contour>
  </outline>
</glyph>
<glyph name="cent" format="2">
  <advance width="517"/>
  <unicode hex="00A2"/>
  <outline>
    <contour>
      <point x="266" y="72" type="curve"/>
      <point x="260" y="-38" type="line"/>
      <point x="272" y="-41"/>
      <point x="283" y="-43"/>
      <point x="294" y="-43" type="curve" smooth="yes"/>
      <point x="307" y="-43"/>
      <point x="320" y="-40"/>
      <point x="334" y="-36" type="curve"/>
      <point x="321" y="72" type="line"/>
      <point x="371" y="79"/>
      <point x="421" y="102"/>
      <point x="463" y="146" type="curve"/>
      <point x="460" y="156"/>
      <point x="456" y="165"/>
      <point x="445" y="172" type="curve"/>
      <point x="399" y="142"/>
      <point x="351" y="125"/>
      <point x="307" y="125" type="curve" smooth="yes"/>
      <point x="223" y="125"/>
      <point x="155" y="188"/>
      <point x="155" y="338" type="curve" smooth="yes"/>
      <point x="155" y="469"/>
      <point x="207" y="562"/>
      <point x="313" y="562" type="curve" smooth="yes"/>
      <point x="336" y="562"/>
      <point x="368" y="557"/>
      <point x="388" y="548" type="curve"/>
      <point x="401" y="442" type="line"/>
      <point x="410" y="438"/>
      <point x="419" y="437"/>
      <point x="429" y="437" type="curve" smooth="yes"/>
      <point x="434" y="437"/>
      <point x="439" y="437"/>
      <point x="445" y="438" type="curve"/>
      <point x="458" y="478"/>
      <point x="465" y="523"/>
      <point x="465" y="574" type="curve"/>
      <point x="416" y="595"/>
      <point x="368" y="605"/>
      <point x="321" y="606" type="curve"/>
      <point x="335" y="710" type="line"/>
      <point x="323" y="714"/>
      <point x="311" y="716"/>
      <point x="299" y="716" type="curve" smooth="yes"/>
      <point x="286" y="716"/>
      <point x="273" y="714"/>
      <point x="260" y="710" type="curve"/>
      <point x="268" y="603" type="line"/>
      <point x="144" y="586"/>
      <point x="48" y="496"/>
      <point x="48" y="338" type="curve" smooth="yes"/>
      <point x="48" y="178"/>
      <point x="151" y="84"/>
    </contour>
  </outline>
</glyph>
<glyph name="sterling" format="2">
  <advance width="568"/>
  <unicode hex="00A3"/>
  <outline>
    <contour>
      <point x="439" y="55" type="line"/>
      <point x="229" y="55" type="line"/>
      <point x="229" y="304" type="line"/>
      <point x="379" y="304" type="line"/>
      <point x="385" y="314"/>
      <point x="389" y="338"/>
      <point x="389" y="354" type="curve"/>
      <point x="229" y="354" type="line"/>
      <point x="229" y="500" type="line" smooth="yes"/>
      <point x="229" y="602"/>
      <point x="273" y="669"/>
      <point x="347" y="669" type="curve" smooth="yes"/>
      <point x="371" y="669"/>
      <point x="407" y="664"/>
      <point x="426" y="648" type="curve"/>
      <point x="437" y="540" type="line"/>
      <point x="444" y="536"/>
      <point x="456" y="535"/>
      <point x="466" y="535" type="curve" smooth="yes"/>
      <point x="470" y="535"/>
      <point x="475" y="535"/>
      <point x="478" y="536" type="curve"/>
      <point x="492" y="568"/>
      <point x="496" y="641"/>
      <point x="497" y="673" type="curve"/>
      <point x="447" y="698"/>
      <point x="396" y="710"/>
      <point x="348" y="710" type="curve" smooth="yes"/>
      <point x="225" y="710"/>
      <point x="124" y="630"/>
      <point x="124" y="475" type="curve" smooth="yes"/>
      <point x="124" y="354" type="line"/>
      <point x="84" y="354" type="line"/>
      <point x="79" y="348"/>
      <point x="73" y="324"/>
      <point x="73" y="310" type="curve"/>
      <point x="73" y="308"/>
      <point x="74" y="306"/>
      <point x="74" y="304" type="curve"/>
      <point x="124" y="304" type="line"/>
      <point x="124" y="50" type="line"/>
      <point x="103" y="40"/>
      <point x="77" y="34"/>
      <point x="48" y="30" type="curve"/>
      <point x="46" y="23"/>
      <point x="45" y="16"/>
      <point x="45" y="9" type="curve" smooth="yes"/>
      <point x="45" y="5"/>
      <point x="45" y="0"/>
      <point x="46" y="-5" type="curve"/>
      <point x="83" y="-3"/>
      <point x="141" y="0"/>
      <point x="179" y="0" type="curve" smooth="yes"/>
      <point x="512" y="0" type="line"/>
      <point x="513" y="16"/>
      <point x="514" y="32"/>
      <point x="514" y="48" type="curve" smooth="yes"/>
      <point x="514" y="93"/>
      <point x="509" y="138"/>
      <point x="502" y="175" type="curve"/>
      <point x="494" y="178"/>
      <point x="488" y="179"/>
      <point x="481" y="179" type="curve" smooth="yes"/>
      <point x="477" y="179"/>
      <point x="472" y="179"/>
      <point x="466" y="178" type="curve"/>
    </contour>
  </outline>
</glyph>
<glyph name="currency" format="2">
  <advance width="570"/>
  <unicode hex="00A4"/>
  <outline>
    <contour>
      <point x="104" y="358" type="curve" smooth="yes"/>
      <point x="104" y="318"/>
      <point x="117" y="281"/>
      <point x="138" y="251" type="curve"/>
      <point x="67" y="189" type="line"/>
      <point x="80" y="165"/>
      <point x="97" y="150"/>
      <point x="120" y="138" type="curve"/>
      <point x="178" y="210" type="line"/>
      <point x="208" y="188"/>
      <point x="245" y="175"/>
      <point x="285" y="175" type="curve" smooth="yes"/>
      <point x="324" y="175"/>
      <point x="360" y="187"/>
      <point x="389" y="207" type="curve"/>
      <point x="451" y="137" type="line"/>
      <point x="475" y="150"/>
      <point x="490" y="167"/>
      <point x="502" y="190" type="curve"/>
      <point x="431" y="247" type="line"/>
      <point x="454" y="278"/>
      <point x="468" y="316"/>
      <point x="468" y="358" type="curve" smooth="yes"/>
      <point x="468" y="397"/>
      <point x="456" y="433"/>
      <point x="436" y="463" type="curve"/>
      <point x="503" y="521" type="line"/>
      <point x="490" y="545"/>
      <point x="473" y="560"/>
      <point x="450" y="572" type="curve"/>
      <point x="396" y="505" type="line"/>
      <point x="365" y="528"/>
      <point x="327" y="542"/>
      <point x="285" y="542" type="curve" smooth="yes"/>
      <point x="244" y="542"/>
      <point x="207" y="529"/>
      <point x="177" y="506" type="curve"/>
      <point x="119" y="573" type="line"/>
      <point x="95" y="560"/>
      <point x="80" y="543"/>
      <point x="68" y="520" type="curve"/>
      <point x="137" y="464" type="line"/>
      <point x="116" y="434"/>
      <point x="104" y="398"/>
    </contour>
    <contour>
      <point x="158" y="358" type="curve" smooth="yes"/>
      <point x="158" y="430"/>
      <point x="215" y="487"/>
      <point x="285" y="487" type="curve" smooth="yes"/>
      <point x="357" y="487"/>
      <point x="413" y="430"/>
      <point x="413" y="358" type="curve" smooth="yes"/>
      <point x="413" y="288"/>
      <point x="357" y="230"/>
      <point x="285" y="230" type="curve" smooth="yes"/>
      <point x="215" y="230"/>
      <point x="158" y="288"/>
    </contour>
  </outline>
</glyph>
<glyph name="yen" format="2">
  <advance width="739"/>
  <unicode hex="00A5"/>
  <outline>
    <contour>
      <point x="300" y="336" type="line"/>
      <point x="202" y="336" type="line"/>
      <point x="196" y="329"/>
      <point x="190" y="299"/>
      <point x="192" y="286" type="curve"/>
      <point x="322" y="286" type="line"/>
      <point x="322" y="226" type="line"/>
      <point x="202" y="226" type="line"/>
      <point x="196" y="219"/>
      <point x="190" y="189"/>
      <point x="192" y="176" type="curve"/>
      <point x="322" y="176" type="line"/>
      <point x="322" y="50" type="line"/>
      <point x="295" y="37"/>
      <point x="269" y="34"/>
      <point x="242" y="30" type="curve"/>
      <point x="238" y="18"/>
      <point x="238" y="7"/>
      <point x="240" y="-5" type="curve"/>
      <point x="277" y="-3"/>
      <point x="339" y="0"/>
      <point x="377" y="0" type="curve" smooth="yes"/>
      <point x="414" y="0"/>
      <point x="473" y="-3"/>
      <point x="509" y="-5" type="curve"/>
      <point x="515" y="7"/>
      <point x="516" y="18"/>
      <point x="514" y="30" type="curve"/>
      <point x="427" y="50" type="line"/>
      <point x="427" y="176" type="line"/>
      <point x="547" y="176" type="line"/>
      <point x="553" y="186"/>
      <point x="557" y="210"/>
      <point x="557" y="226" type="curve"/>
      <point x="427" y="226" type="line"/>
      <point x="427" y="286" type="line"/>
      <point x="547" y="286" type="line"/>
      <point x="553" y="296"/>
      <point x="557" y="320"/>
      <point x="557" y="336" type="curve"/>
      <point x="436" y="336" type="line"/>
      <point x="619" y="650" type="line"/>
      <point x="644" y="662"/>
      <point x="676" y="666"/>
      <point x="704" y="670" type="curve"/>
      <point x="708" y="682"/>
      <point x="708" y="693"/>
      <point x="706" y="705" type="curve"/>
      <point x="669" y="703"/>
      <point x="637" y="700"/>
      <point x="599" y="700" type="curve" smooth="yes"/>
      <point x="562" y="700"/>
      <point x="522" y="703"/>
      <point x="486" y="705" type="curve"/>
      <point x="480" y="693"/>
      <point x="479" y="682"/>
      <point x="481" y="670" type="curve"/>
      <point x="558" y="650" type="line"/>
      <point x="392" y="366" type="line"/>
      <point x="388" y="366" type="line"/>
      <point x="223" y="650" type="line"/>
      <point x="250" y="663"/>
      <point x="277" y="666"/>
      <point x="304" y="670" type="curve"/>
      <point x="308" y="682"/>
      <point x="308" y="693"/>
      <point x="306" y="705" type="curve"/>
      <point x="269" y="703"/>
      <point x="204" y="700"/>
      <point x="166" y="700" type="curve" smooth="yes"/>
      <point x="129" y="700"/>
      <point x="71" y="703"/>
      <point x="35" y="705" type="curve"/>
      <point x="29" y="693"/>
      <point x="28" y="682"/>
      <point x="30" y="670" type="curve"/>
      <point x="107" y="650" type="line"/>
    </contour>
  </outline>
</glyph>
<glyph name="brokenbar" format="2">
  <advance width="230"/>
  <unicode hex="00A6"/>
  <outline>
    <contour>
      <point x="83" y="197" type="curve"/>
      <point x="83" y="-230" type="line"/>
      <point x="91" y="-237"/>
      <point x="133" y="-243"/>
      <point x="147" y="-241" type="curve"/>
      <point x="147" y="186" type="line"/>
      <point x="136" y="193"/>
      <point x="101" y="197"/>
    </contour>
    <contour>
      <point x="83" y="770" type="curve"/>
      <point x="83" y="370" type="line"/>
      <point x="94" y="363"/>
      <point x="129" y="359"/>
      <point x="147" y="359" type="curve"/>
      <point x="147" y="759" type="line"/>
      <point x="136" y="766"/>
      <point x="101" y="770"/>
    </contour>
  </outline>
</glyph>
<glyph name="section" format="2">
  <advance width="510"/>
  <unicode hex="00A7"/>
  <outline>
    <contour>
      <point x="145" y="-85" type="curve"/>
      <point x="131" y="51" type="line"/>
      <point x="118" y="56"/>
      <point x="105" y="58"/>
      <point x="87" y="55" type="curve"/>
      <point x="77" y="10"/>
      <point x="71" y="-48"/>
      <point x="69" y="-98" type="curve"/>
      <point x="127" y="-129"/>
      <point x="185" y="-142"/>
      <point x="245" y="-142" type="curve" smooth="yes"/>
      <point x="352" y="-142"/>
      <point x="456" y="-79"/>
      <point x="456" y="46" type="curve" smooth="yes"/>
      <point x="456" y="106"/>
      <point x="420" y="144"/>
      <point x="372" y="173" type="curve"/>
      <point x="422" y="202"/>
      <point x="456" y="252"/>
      <point x="456" y="320" type="curve" smooth="yes"/>
      <point x="456" y="495"/>
      <point x="156" y="502"/>
      <point x="156" y="620" type="curve" smooth="yes"/>
      <point x="156" y="706"/>
      <point x="209" y="735"/>
      <point x="284" y="735" type="curve" smooth="yes"/>
      <point x="308" y="735"/>
      <point x="333" y="730"/>
      <point x="355" y="721" type="curve"/>
      <point x="366" y="588" type="line"/>
      <point x="381" y="583"/>
      <point x="396" y="581"/>
      <point x="411" y="584" type="curve"/>
      <point x="426" y="625"/>
      <point x="432" y="698"/>
      <point x="429" y="741" type="curve"/>
      <point x="385" y="765"/>
      <point x="327" y="775"/>
      <point x="268" y="775" type="curve" smooth="yes"/>
      <point x="152" y="775"/>
      <point x="62" y="713"/>
      <point x="62" y="591" type="curve" smooth="yes"/>
      <point x="62" y="536"/>
      <point x="92" y="500"/>
      <point x="133" y="473" type="curve"/>
      <point x="84" y="443"/>
      <point x="51" y="392"/>
      <point x="51" y="325" type="curve" smooth="yes"/>
      <point x="51" y="145"/>
      <point x="359" y="144"/>
      <point x="359" y="23" type="curve" smooth="yes"/>
      <point x="359" y="-66"/>
      <point x="294" y="-101"/>
      <point x="227" y="-101" type="curve" smooth="yes"/>
      <point x="202" y="-101"/>
      <point x="167" y="-94"/>
    </contour>
    <contour>
      <point x="141" y="353" type="curve" smooth="yes"/>
      <point x="141" y="400"/>
      <point x="150" y="424"/>
      <point x="174" y="452" type="curve"/>
      <point x="260" y="410"/>
      <point x="368" y="376"/>
      <point x="368" y="293" type="curve" smooth="yes"/>
      <point x="368" y="245"/>
      <point x="355" y="209"/>
      <point x="329" y="192" type="curve"/>
      <point x="243" y="233"/>
      <point x="141" y="270"/>
    </contour>
  </outline>
</glyph>
<glyph name="dieresis" format="2">
  <advance width="346"/>
  <unicode hex="00A8"/>
  <anchor x="157" y="505" name="_top"/>
  <outline>
    <contour>
      <point x="11" y="652" type="curve" smooth="yes"/>
      <point x="11" y="627"/>
      <point x="35" y="588"/>
      <point x="69" y="588" type="curve" smooth="yes"/>
      <point x="99" y="588"/>
      <point x="134" y="620"/>
      <point x="134" y="645" type="curve" smooth="yes"/>
      <point x="134" y="669"/>
      <point x="111" y="708"/>
      <point x="76" y="708" type="curve" smooth="yes"/>
      <point x="47" y="708"/>
      <point x="11" y="676"/>
    </contour>
    <contour>
      <point x="180" y="652" type="curve" smooth="yes"/>
      <point x="180" y="627"/>
      <point x="204" y="588"/>
      <point x="238" y="588" type="curve" smooth="yes"/>
      <point x="268" y="588"/>
      <point x="303" y="620"/>
      <point x="303" y="645" type="curve" smooth="yes"/>
      <point x="303" y="669"/>
      <point x="280" y="708"/>
      <point x="245" y="708" type="curve" smooth="yes"/>
      <point x="216" y="708"/>
      <point x="180" y="676"/>
    </contour>
  </outline>
</glyph>
<glyph name="copyright" format="2">
  <advance width="705"/>
  <unicode hex="00A9"/>
  <outline>
    <contour>
      <point x="353" y="615" type="curve" smooth="yes"/>
      <point x="175" y="615"/>
      <point x="53" y="480"/>
      <point x="53" y="306" type="curve" smooth="yes"/>
      <point x="53" y="135"/>
      <point x="175" y="0"/>
      <point x="353" y="0" type="curve" smooth="yes"/>
      <point x="530" y="0"/>
      <point x="652" y="135"/>
      <point x="652" y="306" type="curve" smooth="yes"/>
      <point x="652" y="480"/>
      <point x="530" y="615"/>
    </contour>
    <contour>
      <point x="354" y="577" type="curve" smooth="yes"/>
      <point x="500" y="577"/>
      <point x="607" y="462"/>
      <point x="607" y="307" type="curve" smooth="yes"/>
      <point x="607" y="155"/>
      <point x="500" y="38"/>
      <point x="354" y="38" type="curve" smooth="yes"/>
      <point x="207" y="38"/>
      <point x="98" y="155"/>
      <point x="98" y="307" type="curve" smooth="yes"/>
      <point x="98" y="462"/>
      <point x="207" y="577"/>
    </contour>
    <contour>
      <point x="422" y="458" type="curve"/>
      <point x="436" y="373" type="line"/>
      <point x="444" y="369"/>
      <point x="459" y="368"/>
      <point x="467" y="369" type="curve"/>
      <point x="477" y="397"/>
      <point x="484" y="436"/>
      <point x="482" y="474" type="curve"/>
      <point x="446" y="491"/>
      <point x="406" y="500"/>
      <point x="361" y="500" type="curve" smooth="yes"/>
      <point x="258" y="500"/>
      <point x="179" y="437"/>
      <point x="179" y="301" type="curve" smooth="yes"/>
      <point x="179" y="175"/>
      <point x="253" y="101"/>
      <point x="358" y="101" type="curve" smooth="yes"/>
      <point x="412" y="101"/>
      <point x="450" y="119"/>
      <point x="486" y="156" type="curve"/>
      <point x="484" y="164"/>
      <point x="481" y="170"/>
      <point x="472" y="176" type="curve"/>
      <point x="437" y="149"/>
      <point x="410" y="142"/>
      <point x="365" y="142" type="curve" smooth="yes"/>
      <point x="309" y="142"/>
      <point x="258" y="191"/>
      <point x="258" y="301" type="curve" smooth="yes"/>
      <point x="258" y="394"/>
      <point x="290" y="467"/>
      <point x="365" y="468" type="curve"/>
      <point x="383" y="469"/>
      <point x="405" y="465"/>
    </contour>
  </outline>
</glyph>
<glyph name="ordfeminine" format="2">
  <advance width="393"/>
  <unicode hex="00AA"/>
  <outline>
    <contour>
      <point x="113" y="478" type="curve" smooth="yes"/>
      <point x="113" y="529"/>
      <point x="149" y="541"/>
      <point x="235" y="541" type="curve"/>
      <point x="235" y="463" type="line"/>
      <point x="222" y="444"/>
      <point x="191" y="425"/>
      <point x="168" y="425" type="curve" smooth="yes"/>
      <point x="138" y="425"/>
      <point x="113" y="444"/>
    </contour>
    <contour>
      <point x="307" y="428" type="curve"/>
      <point x="307" y="584" type="line"/>
      <point x="303" y="683"/>
      <point x="286" y="720"/>
      <point x="197" y="720" type="curve" smooth="yes"/>
      <point x="150" y="720"/>
      <point x="105" y="714"/>
      <point x="63" y="696" type="curve"/>
      <point x="64" y="677"/>
      <point x="66" y="632"/>
      <point x="75" y="612" type="curve"/>
      <point x="81" y="611"/>
      <point x="100" y="611"/>
      <point x="107" y="615" type="curve"/>
      <point x="116" y="673" type="line"/>
      <point x="136" y="679"/>
      <point x="156" y="683"/>
      <point x="177" y="683" type="curve" smooth="yes"/>
      <point x="220" y="683"/>
      <point x="235" y="670"/>
      <point x="235" y="582" type="curve"/>
      <point x="147" y="584"/>
      <point x="45" y="556"/>
      <point x="45" y="472" type="curve" smooth="yes"/>
      <point x="45" y="425"/>
      <point x="68" y="380"/>
      <point x="144" y="380" type="curve" smooth="yes"/>
      <point x="186" y="380"/>
      <point x="217" y="400"/>
      <point x="239" y="422" type="curve"/>
      <point x="243" y="422" type="line"/>
      <point x="254" y="384" type="line"/>
      <point x="265" y="381"/>
      <point x="281" y="380"/>
      <point x="297" y="380" type="curve" smooth="yes"/>
      <point x="316" y="380"/>
      <point x="336" y="381"/>
      <point x="348" y="383" type="curve"/>
      <point x="352" y="391"/>
      <point x="352" y="408"/>
      <point x="351" y="416" type="curve"/>
      <point x="336" y="418"/>
      <point x="322" y="421"/>
    </contour>
  </outline>
</glyph>
<glyph name="guillemetleft" format="2">
  <advance width="574"/>
  <unicode hex="00AB"/>
  <outline>
    <contour>
      <point x="40" y="270" type="curve"/>
      <point x="282" y="70" type="line"/>
      <point x="305" y="72"/>
      <point x="315" y="84"/>
      <point x="324" y="97" type="curve"/>
      <point x="135" y="288" type="line"/>
      <point x="135" y="292" type="line"/>
      <point x="324" y="483" type="line"/>
      <point x="315" y="496"/>
      <point x="305" y="508"/>
      <point x="282" y="510" type="curve"/>
      <point x="40" y="310" type="line"/>
      <point x="36" y="298"/>
      <point x="36" y="284"/>
    </contour>
    <contour>
      <point x="250" y="270" type="curve"/>
      <point x="492" y="70" type="line"/>
      <point x="515" y="72"/>
      <point x="525" y="84"/>
      <point x="534" y="97" type="curve"/>
      <point x="345" y="288" type="line"/>
      <point x="345" y="292" type="line"/>
      <point x="534" y="483" type="line"/>
      <point x="525" y="496"/>
      <point x="515" y="508"/>
      <point x="492" y="510" type="curve"/>
      <point x="250" y="310" type="line"/>
      <point x="246" y="298"/>
      <point x="246" y="284"/>
    </contour>
  </outline>
</glyph>
<glyph name="logicalnot" format="2">
  <advance width="624"/>
  <unicode hex="00AC"/>
  <outline>
    <contour>
      <point x="549" y="150" type="curve"/>
      <point x="549" y="355" type="line"/>
      <point x="81" y="355" type="line"/>
      <point x="75" y="348"/>
      <point x="68" y="306"/>
      <point x="70" y="292" type="curve"/>
      <point x="483" y="292" type="line"/>
      <point x="483" y="161" type="line"/>
      <point x="490" y="154"/>
      <point x="535" y="148"/>
    </contour>
  </outline>
</glyph>
<glyph name="softhyphen" format="2">
  <advance width="356"/>
  <unicode hex="00AD"/>
  <outline>
    <contour>
      <point x="63" y="285" type="curve"/>
      <point x="283" y="285" type="line"/>
      <point x="290" y="296"/>
      <point x="294" y="331"/>
      <point x="294" y="349" type="curve"/>
      <point x="74" y="349" type="line"/>
      <point x="67" y="341"/>
      <point x="61" y="299"/>
    </contour>
  </outline>
</glyph>
<glyph name="registered" format="2">
  <advance width="705"/>
  <unicode hex="00AE"/>
  <outline>
    <contour>
      <point x="353" y="615" type="curve" smooth="yes"/>
      <point x="175" y="615"/>
      <point x="53" y="480"/>
      <point x="53" y="306" type="curve" smooth="yes"/>
      <point x="53" y="135"/>
      <point x="175" y="0"/>
      <point x="353" y="0" type="curve" smooth="yes"/>
      <point x="530" y="0"/>
      <point x="652" y="135"/>
      <point x="652" y="306" type="curve" smooth="yes"/>
      <point x="652" y="480"/>
      <point x="530" y="615"/>
    </contour>
    <contour>
      <point x="354" y="577" type="curve" smooth="yes"/>
      <point x="500" y="577"/>
      <point x="607" y="462"/>
      <point x="607" y="307" type="curve" smooth="yes"/>
      <point x="607" y="155"/>
      <point x="500" y="38"/>
      <point x="354" y="38" type="curve" smooth="yes"/>
      <point x="207" y="38"/>
      <point x="98" y="155"/>
      <point x="98" y="307" type="curve" smooth="yes"/>
      <point x="98" y="462"/>
      <point x="207" y="577"/>
    </contour>
    <contour>
      <point x="310" y="167" type="line"/>
      <point x="310" y="290" type="line"/>
      <point x="327" y="289"/>
      <point x="345" y="289"/>
      <point x="362" y="291" type="curve"/>
      <point x="397" y="219"/>
      <point x="406" y="178"/>
      <point x="425" y="157" type="curve"/>
      <point x="439" y="140"/>
      <point x="456" y="132"/>
      <point x="477" y="132" type="curve" smooth="yes"/>
      <point x="491" y="132"/>
      <point x="498" y="134"/>
      <point x="509" y="139" type="curve"/>
      <point x="510" y="144"/>
      <point x="511" y="154"/>
      <point x="510" y="159" type="curve"/>
      <point x="502" y="159" type="line" smooth="yes"/>
      <point x="466" y="159"/>
      <point x="466" y="173"/>
      <point x="403" y="300" type="curve"/>
      <point x="443" y="313"/>
      <point x="471" y="340"/>
      <point x="471" y="385" type="curve" smooth="yes"/>
      <point x="471" y="446"/>
      <point x="420" y="482"/>
      <point x="338" y="477" type="curve" smooth="yes"/>
      <point x="313" y="475"/>
      <point x="294" y="475"/>
      <point x="278" y="475" type="curve" smooth="yes"/>
      <point x="252" y="475"/>
      <point x="236" y="476"/>
      <point x="225" y="477" type="curve"/>
      <point x="223" y="470"/>
      <point x="222" y="461"/>
      <point x="223" y="455" type="curve"/>
      <point x="260" y="445" type="line"/>
      <point x="260" y="167" type="line"/>
      <point x="247" y="163"/>
      <point x="233" y="159"/>
      <point x="220" y="157" type="curve"/>
      <point x="218" y="152"/>
      <point x="218" y="143"/>
      <point x="219" y="137" type="curve"/>
      <point x="236" y="138"/>
      <point x="269" y="139"/>
      <point x="286" y="139" type="curve" smooth="yes"/>
      <point x="305" y="139"/>
      <point x="327" y="138"/>
      <point x="345" y="137" type="curve"/>
      <point x="348" y="143"/>
      <point x="348" y="152"/>
      <point x="347" y="157" type="curve"/>
    </contour>
    <contour>
      <point x="415" y="381" type="curve" smooth="yes"/>
      <point x="415" y="329"/>
      <point x="389" y="315"/>
      <point x="339" y="315" type="curve" smooth="yes"/>
      <point x="330" y="315"/>
      <point x="321" y="316"/>
      <point x="310" y="318" type="curve"/>
      <point x="310" y="445" type="line"/>
      <point x="323" y="448"/>
      <point x="334" y="450"/>
      <point x="345" y="450" type="curve" smooth="yes"/>
      <point x="387" y="450"/>
      <point x="415" y="429"/>
    </contour>
  </outline>
</glyph>
<glyph name="macron" format="2">
  <advance width="530"/>
  <unicode hex="00AF"/>
  <outline>
    <contour>
      <point x="1" y="566" type="curve"/>
      <point x="519" y="566" type="line"/>
      <point x="526" y="577"/>
      <point x="530" y="612"/>
      <point x="530" y="630" type="curve"/>
      <point x="12" y="630" type="line"/>
      <point x="5" y="622"/>
      <point x="-1" y="580"/>
    </contour>
  </outline>
</glyph>
<glyph name="degree" format="2">
  <advance width="353"/>
  <unicode hex="00B0"/>
  <outline>
    <contour>
      <point x="179" y="700" type="curve" smooth="yes"/>
      <point x="100" y="700"/>
      <point x="39" y="640"/>
      <point x="39" y="561" type="curve" smooth="yes"/>
      <point x="39" y="484"/>
      <point x="99" y="423"/>
      <point x="176" y="423" type="curve" smooth="yes"/>
      <point x="253" y="423"/>
      <point x="315" y="485"/>
      <point x="315" y="562" type="curve" smooth="yes"/>
      <point x="315" y="638"/>
      <point x="253" y="700"/>
    </contour>
    <contour>
      <point x="176" y="660" type="curve" smooth="yes"/>
      <point x="232" y="660"/>
      <point x="265" y="617"/>
      <point x="265" y="562" type="curve" smooth="yes"/>
      <point x="265" y="507"/>
      <point x="231" y="463"/>
      <point x="177" y="463" type="curve" smooth="yes"/>
      <point x="123" y="463"/>
      <point x="89" y="507"/>
      <point x="89" y="562" type="curve" smooth="yes"/>
      <point x="89" y="616"/>
      <point x="123" y="660"/>
    </contour>
  </outline>
</glyph>
<glyph name="plusminus" format="2">
  <advance width="514"/>
  <unicode hex="00B1"/>
  <outline>
    <contour>
      <point x="288" y="352" type="line"/>
      <point x="288" y="513" type="line"/>
      <point x="277" y="519"/>
      <point x="240" y="524"/>
      <point x="222" y="524" type="curve"/>
      <point x="222" y="352" type="line"/>
      <point x="67" y="352" type="line"/>
      <point x="60" y="344"/>
      <point x="54" y="303"/>
      <point x="56" y="288" type="curve"/>
      <point x="222" y="288" type="line"/>
      <point x="222" y="149" type="line"/>
      <point x="230" y="142"/>
      <point x="274" y="135"/>
      <point x="288" y="138" type="curve"/>
      <point x="288" y="288" type="line"/>
      <point x="446" y="288" type="line"/>
      <point x="453" y="299"/>
      <point x="457" y="334"/>
      <point x="457" y="352" type="curve"/>
    </contour>
    <contour>
      <point x="56" y="46" type="curve"/>
      <point x="446" y="46" type="line"/>
      <point x="453" y="57"/>
      <point x="457" y="92"/>
      <point x="457" y="110" type="curve"/>
      <point x="67" y="110" type="line"/>
      <point x="60" y="102"/>
      <point x="54" y="61"/>
    </contour>
  </outline>
</glyph>
<glyph name="twosuperior" format="2">
  <advance width="389"/>
  <unicode hex="00B2"/>
  <outline>
    <contour>
      <point x="275" y="377" type="line"/>
      <point x="104" y="377" type="line"/>
      <point x="104" y="380" type="line"/>
      <point x="213" y="463"/>
      <point x="312" y="527"/>
      <point x="312" y="615" type="curve" smooth="yes"/>
      <point x="312" y="679"/>
      <point x="276" y="727"/>
      <point x="186" y="727" type="curve" smooth="yes"/>
      <point x="134" y="727"/>
      <point x="93" y="718"/>
      <point x="56" y="700" type="curve"/>
      <point x="54" y="663"/>
      <point x="59" y="629"/>
      <point x="65" y="597" type="curve"/>
      <point x="69" y="596"/>
      <point x="75" y="595"/>
      <point x="81" y="595" type="curve" smooth="yes"/>
      <point x="88" y="595"/>
      <point x="95" y="596"/>
      <point x="99" y="597" type="curve"/>
      <point x="112" y="677" type="line"/>
      <point x="129" y="686"/>
      <point x="156" y="690"/>
      <point x="176" y="690" type="curve" smooth="yes"/>
      <point x="213" y="690"/>
      <point x="234" y="661"/>
      <point x="234" y="608" type="curve" smooth="yes"/>
      <point x="234" y="528"/>
      <point x="163" y="467"/>
      <point x="45" y="377" type="curve"/>
      <point x="45" y="314" type="line"/>
      <point x="326" y="314" type="line"/>
      <point x="327" y="329"/>
      <point x="328" y="345"/>
      <point x="328" y="360" type="curve" smooth="yes"/>
      <point x="328" y="390"/>
      <point x="326" y="419"/>
      <point x="321" y="449" type="curve"/>
      <point x="316" y="449"/>
      <point x="310" y="450"/>
      <point x="305" y="450" type="curve" smooth="yes"/>
      <point x="300" y="450"/>
      <point x="296" y="450"/>
      <point x="291" y="449" type="curve"/>
    </contour>
  </outline>
</glyph>
<glyph name="threesuperior" format="2">
  <advance width="385"/>
  <unicode hex="00B3"/>
  <outline>
    <contour>
      <point x="262" y="420" type="curve" smooth="yes"/>
      <point x="262" y="369"/>
      <point x="235" y="343"/>
      <point x="184" y="343" type="curve" smooth="yes"/>
      <point x="164" y="343"/>
      <point x="127" y="347"/>
      <point x="110" y="356" type="curve"/>
      <point x="97" y="434" type="line"/>
      <point x="93" y="435"/>
      <point x="86" y="436"/>
      <point x="79" y="436" type="curve" smooth="yes"/>
      <point x="73" y="436"/>
      <point x="67" y="435"/>
      <point x="63" y="434" type="curve"/>
      <point x="57" y="402"/>
      <point x="52" y="368"/>
      <point x="54" y="331" type="curve"/>
      <point x="91" y="313"/>
      <point x="130" y="304"/>
      <point x="182" y="304" type="curve" smooth="yes"/>
      <point x="272" y="304"/>
      <point x="340" y="344"/>
      <point x="340" y="422" type="curve" smooth="yes"/>
      <point x="340" y="493"/>
      <point x="293" y="517"/>
      <point x="225" y="528" type="curve"/>
      <point x="225" y="530" type="line"/>
      <point x="283" y="546"/>
      <point x="321" y="572"/>
      <point x="321" y="631" type="curve" smooth="yes"/>
      <point x="321" y="695"/>
      <point x="275" y="727"/>
      <point x="185" y="727" type="curve" smooth="yes"/>
      <point x="133" y="727"/>
      <point x="97" y="718"/>
      <point x="60" y="700" type="curve"/>
      <point x="58" y="663"/>
      <point x="63" y="629"/>
      <point x="69" y="597" type="curve"/>
      <point x="73" y="596"/>
      <point x="79" y="595"/>
      <point x="85" y="595" type="curve" smooth="yes"/>
      <point x="92" y="595"/>
      <point x="99" y="596"/>
      <point x="103" y="597" type="curve"/>
      <point x="116" y="677" type="line"/>
      <point x="133" y="686"/>
      <point x="151" y="690"/>
      <point x="171" y="690" type="curve" smooth="yes"/>
      <point x="213" y="690"/>
      <point x="246" y="671"/>
      <point x="246" y="618" type="curve" smooth="yes"/>
      <point x="246" y="571"/>
      <point x="210" y="542"/>
      <point x="144" y="542" type="curve"/>
      <point x="144" y="501" type="line"/>
      <point x="227" y="501"/>
      <point x="262" y="477"/>
    </contour>
  </outline>
</glyph>
<glyph name="acute" format="2">
  <advance width="203"/>
  <unicode hex="00B4"/>
  <anchor x="98" y="505" name="_top"/>
  <outline>
    <contour>
      <point x="84" y="757" type="curve"/>
      <point x="4" y="583" type="line"/>
      <point x="14" y="573"/>
      <point x="28" y="568"/>
      <point x="40" y="566" type="curve"/>
      <point x="84" y="608"/>
      <point x="123" y="661"/>
      <point x="164" y="717" type="curve"/>
      <point x="144" y="740"/>
      <point x="114" y="752"/>
    </contour>
  </outline>
</glyph>
<glyph name="micro" format="2">
  <advance width="623"/>
  <unicode hex="00B5"/>
  <outline>
    <contour>
      <point x="514" y="41" type="curve"/>
      <point x="514" y="500" type="line"/>
      <point x="494" y="502"/>
      <point x="474" y="505"/>
      <point x="454" y="505" type="curve" smooth="yes"/>
      <point x="440" y="505"/>
      <point x="427" y="504"/>
      <point x="414" y="500" type="curve"/>
      <point x="414" y="118" type="line"/>
      <point x="383" y="83"/>
      <point x="332" y="54"/>
      <point x="289" y="54" type="curve" smooth="yes"/>
      <point x="235" y="54"/>
      <point x="195" y="65"/>
      <point x="195" y="149" type="curve" smooth="yes"/>
      <point x="195" y="500" type="line"/>
      <point x="175" y="502"/>
      <point x="155" y="505"/>
      <point x="135" y="505" type="curve" smooth="yes"/>
      <point x="121" y="505"/>
      <point x="108" y="504"/>
      <point x="95" y="500" type="curve"/>
      <point x="95" y="-165" type="line"/>
      <point x="105" y="-167"/>
      <point x="115" y="-168"/>
      <point x="124" y="-168" type="curve" smooth="yes"/>
      <point x="136" y="-168"/>
      <point x="148" y="-167"/>
      <point x="160" y="-165" type="curve"/>
      <point x="160" y="-1" type="line"/>
      <point x="180" y="-11"/>
      <point x="207" y="-16"/>
      <point x="240" y="-16" type="curve" smooth="yes"/>
      <point x="310" y="-16"/>
      <point x="360" y="10"/>
      <point x="422" y="71" type="curve"/>
      <point x="427" y="71" type="line"/>
      <point x="442" y="-15" type="line"/>
      <point x="458" y="-19"/>
      <point x="479" y="-21"/>
      <point x="501" y="-21" type="curve" smooth="yes"/>
      <point x="534" y="-21"/>
      <point x="568" y="-18"/>
      <point x="589" y="-14" type="curve"/>
      <point x="595" y="-2"/>
      <point x="596" y="9"/>
      <point x="594" y="21" type="curve"/>
      <point x="569" y="24"/>
      <point x="545" y="27"/>
    </contour>
  </outline>
</glyph>
<glyph name="paragraph" format="2">
  <advance width="551"/>
  <unicode hex="00B6"/>
  <outline>
    <contour>
      <point x="168" y="281" type="curve"/>
      <point x="168" y="-80" type="line"/>
      <point x="179" y="-84"/>
      <point x="189" y="-86"/>
      <point x="200" y="-86" type="curve" smooth="yes"/>
      <point x="211" y="-86"/>
      <point x="222" y="-84"/>
      <point x="233" y="-80" type="curve"/>
      <point x="233" y="650" type="line"/>
      <point x="281" y="650" type="line"/>
      <point x="281" y="-80" type="line"/>
      <point x="292" y="-84"/>
      <point x="302" y="-86"/>
      <point x="313" y="-86" type="curve" smooth="yes"/>
      <point x="324" y="-86"/>
      <point x="335" y="-84"/>
      <point x="346" y="-80" type="curve"/>
      <point x="346" y="650" type="line"/>
      <point x="370" y="660"/>
      <point x="397" y="665"/>
      <point x="426" y="670" type="curve"/>
      <point x="430" y="682"/>
      <point x="430" y="693"/>
      <point x="428" y="705" type="curve"/>
      <point x="391" y="703"/>
      <point x="329" y="700"/>
      <point x="291" y="700" type="curve" smooth="yes"/>
      <point x="203" y="700" type="line"/>
      <point x="43" y="708"/>
      <point x="-34" y="601"/>
      <point x="-34" y="493" type="curve" smooth="yes"/>
      <point x="-34" y="391"/>
      <point x="34" y="289"/>
    </contour>
  </outline>
</glyph>
<glyph name="periodcentered" format="2">
  <advance width="244"/>
  <unicode hex="00B7"/>
  <outline>
    <contour>
      <point x="59" y="303" type="curve" smooth="yes"/>
      <point x="59" y="252"/>
      <point x="87" y="235"/>
      <point x="122" y="235" type="curve" smooth="yes"/>
      <point x="157" y="235"/>
      <point x="185" y="252"/>
      <point x="185" y="303" type="curve" smooth="yes"/>
      <point x="185" y="354"/>
      <point x="157" y="371"/>
      <point x="122" y="371" type="curve" smooth="yes"/>
      <point x="87" y="371"/>
      <point x="59" y="354"/>
    </contour>
  </outline>
</glyph>
<glyph name="cedilla" format="2">
  <advance width="255"/>
  <unicode hex="00B8"/>
  <anchor x="129" y="-11" name="_bottom"/>
  <outline>
    <contour>
      <point x="123" y="-47" type="curve"/>
      <point x="116" y="2" type="line"/>
      <point x="80" y="7" type="line"/>
      <point x="82" y="-96" type="line"/>
      <point x="138" y="-96"/>
      <point x="172" y="-117"/>
      <point x="172" y="-154" type="curve" smooth="yes"/>
      <point x="172" y="-179"/>
      <point x="142" y="-204"/>
      <point x="98" y="-204" type="curve" smooth="yes"/>
      <point x="81" y="-204"/>
      <point x="61" y="-201"/>
      <point x="38" y="-192" type="curve"/>
      <point x="29" y="-199"/>
      <point x="24" y="-208"/>
      <point x="23" y="-221" type="curve"/>
      <point x="48" y="-230"/>
      <point x="82" y="-234"/>
      <point x="104" y="-234" type="curve" smooth="yes"/>
      <point x="190" y="-234"/>
      <point x="240" y="-189"/>
      <point x="240" y="-132" type="curve" smooth="yes"/>
      <point x="240" y="-76"/>
      <point x="202" y="-47"/>
    </contour>
  </outline>
</glyph>
<glyph name="onesuperior" format="2">
  <advance width="325"/>
  <unicode hex="00B9"/>
  <outline>
    <contour>
      <point x="210" y="364" type="line"/>
      <point x="210" y="713" type="line"/>
      <point x="180" y="720" type="line"/>
      <point x="143" y="699"/>
      <point x="90" y="684"/>
      <point x="45" y="675" type="curve"/>
      <point x="44" y="663"/>
      <point x="46" y="654"/>
      <point x="50" y="646" type="curve"/>
      <point x="130" y="642" type="line"/>
      <point x="130" y="364" type="line"/>
      <point x="51" y="344" type="line"/>
      <point x="47" y="332"/>
      <point x="47" y="321"/>
      <point x="49" y="309" type="curve"/>
      <point x="86" y="311"/>
      <point x="132" y="314"/>
      <point x="170" y="314" type="curve" smooth="yes"/>
      <point x="207" y="314"/>
      <point x="252" y="311"/>
      <point x="288" y="309" type="curve"/>
      <point x="294" y="321"/>
      <point x="295" y="332"/>
      <point x="293" y="344" type="curve"/>
    </contour>
  </outline>
</glyph>
<glyph name="ordmasculine" format="2">
  <advance width="413"/>
  <unicode hex="00BA"/>
  <outline>
    <contour>
      <point x="212" y="723" type="curve" smooth="yes"/>
      <point x="96" y="723"/>
      <point x="40" y="635"/>
      <point x="40" y="547" type="curve" smooth="yes"/>
      <point x="40" y="460"/>
      <point x="96" y="375"/>
      <point x="208" y="375" type="curve" smooth="yes"/>
      <point x="313" y="375"/>
      <point x="373" y="461"/>
      <point x="373" y="554" type="curve" smooth="yes"/>
      <point x="373" y="639"/>
      <point x="321" y="723"/>
    </contour>
    <contour>
      <point x="208" y="686" type="curve" smooth="yes"/>
      <point x="270" y="686"/>
      <point x="305" y="624"/>
      <point x="305" y="552" type="curve" smooth="yes"/>
      <point x="305" y="480"/>
      <point x="270" y="413"/>
      <point x="208" y="413" type="curve" smooth="yes"/>
      <point x="142" y="413"/>
      <point x="109" y="480"/>
      <point x="109" y="552" type="curve" smooth="yes"/>
      <point x="109" y="624"/>
      <point x="142" y="686"/>
    </contour>
  </outline>
</glyph>
<glyph name="questiondown" format="2">
  <advance width="423"/>
  <unicode hex="00BF"/>
  <outline>
    <contour>
      <point x="310" y="465" type="curve" smooth="yes"/>
      <point x="310" y="494"/>
      <point x="283" y="530"/>
      <point x="252" y="530" type="curve" smooth="yes"/>
      <point x="219" y="530"/>
      <point x="184" y="501"/>
      <point x="184" y="474" type="curve" smooth="yes"/>
      <point x="184" y="445"/>
      <point x="210" y="409"/>
      <point x="243" y="409" type="curve" smooth="yes"/>
      <point x="258" y="409"/>
      <point x="273" y="415"/>
      <point x="288" y="427" type="curve"/>
      <point x="303" y="440"/>
      <point x="310" y="452"/>
    </contour>
    <contour>
      <point x="241" y="348" type="curve" smooth="yes"/>
      <point x="234" y="348"/>
      <point x="229" y="346"/>
      <point x="228" y="341" type="curve"/>
      <point x="238" y="308"/>
      <point x="243" y="283"/>
      <point x="243" y="266" type="curve" smooth="yes"/>
      <point x="246" y="116"/>
      <point x="38" y="89"/>
      <point x="44" y="-62" type="curve"/>
      <point x="44" y="-101"/>
      <point x="60" y="-132"/>
      <point x="92" y="-155" type="curve" smooth="yes"/>
      <point x="125" y="-178"/>
      <point x="165" y="-190"/>
      <point x="212" y="-190" type="curve" smooth="yes"/>
      <point x="272" y="-191"/>
      <point x="329" y="-177"/>
      <point x="382" y="-148" type="curve"/>
      <point x="384" y="-129"/>
      <point x="384" y="-110"/>
      <point x="383" y="-93" type="curve" smooth="yes"/>
      <point x="382" y="-76"/>
      <point x="378" y="-49"/>
      <point x="369" y="-13" type="curve"/>
      <point x="356" y="-9"/>
      <point x="345" y="-9"/>
      <point x="335" y="-14" type="curve"/>
      <point x="325" y="-45"/>
      <point x="318" y="-84"/>
      <point x="313" y="-131" type="curve"/>
      <point x="292" y="-147"/>
      <point x="264" y="-155"/>
      <point x="230" y="-155" type="curve" smooth="yes"/>
      <point x="175" y="-155"/>
      <point x="141" y="-121"/>
      <point x="141" y="-61" type="curve" smooth="yes"/>
      <point x="141" y="51"/>
      <point x="305" y="122"/>
      <point x="305" y="240" type="curve" smooth="yes"/>
      <point x="305" y="269"/>
      <point x="293" y="303"/>
      <point x="270" y="342" type="curve"/>
      <point x="262" y="346"/>
      <point x="252" y="348"/>
    </contour>
  </outline>
</glyph>
<glyph name="Aring" format="2">
  <advance width="684"/>
  <unicode hex="00C5"/>
  <outline>
    <contour>
      <point x="221" y="833" type="curve" smooth="yes"/>
      <point x="221" y="791"/>
      <point x="261" y="729"/>
      <point x="311" y="718" type="curve"/>
      <point x="75" y="50" type="line"/>
      <point x="52" y="40"/>
      <point x="27" y="34"/>
      <point x="-2" y="30" type="curve"/>
      <point x="-6" y="18"/>
      <point x="-6" y="7"/>
      <point x="-4" y="-5" type="curve"/>
      <point x="33" y="-3"/>
      <point x="50" y="0"/>
      <point x="88" y="0" type="curve" smooth="yes"/>
      <point x="125" y="0"/>
      <point x="174" y="-3"/>
      <point x="210" y="-5" type="curve"/>
      <point x="216" y="7"/>
      <point x="217" y="18"/>
      <point x="215" y="30" type="curve"/>
      <point x="138" y="50" type="line"/>
      <point x="203" y="240" type="line"/>
      <point x="435" y="240" type="line"/>
      <point x="509" y="50" type="line"/>
      <point x="485" y="40"/>
      <point x="459" y="34"/>
      <point x="429" y="30" type="curve"/>
      <point x="425" y="18"/>
      <point x="425" y="7"/>
      <point x="427" y="-5" type="curve"/>
      <point x="464" y="-3"/>
      <point x="534" y="0"/>
      <point x="572" y="0" type="curve" smooth="yes"/>
      <point x="609" y="0"/>
      <point x="658" y="-3"/>
      <point x="694" y="-5" type="curve"/>
      <point x="700" y="7"/>
      <point x="701" y="18"/>
      <point x="699" y="30" type="curve"/>
      <point x="622" y="50" type="line"/>
      <point x="354" y="719" type="line"/>
      <point x="403" y="732"/>
      <point x="450" y="779"/>
      <point x="450" y="820" type="curve" smooth="yes"/>
      <point x="450" y="864"/>
      <point x="406" y="934"/>
      <point x="343" y="934" type="curve" smooth="yes"/>
      <point x="288" y="934"/>
      <point x="221" y="879"/>
    </contour>
    <contour>
      <point x="312" y="580" type="curve"/>
      <point x="314" y="580" type="line"/>
      <point x="322" y="534"/>
      <point x="335" y="491"/>
      <point x="358" y="437" type="curve"/>
      <point x="413" y="295" type="line"/>
      <point x="221" y="295" type="line"/>
      <point x="268" y="432" type="line" smooth="yes"/>
      <point x="285" y="482"/>
      <point x="298" y="532"/>
    </contour>
    <contour>
      <point x="279" y="830" type="curve" smooth="yes"/>
      <point x="279" y="852"/>
      <point x="312" y="880"/>
      <point x="340" y="880" type="curve" smooth="yes"/>
      <point x="371" y="880"/>
      <point x="393" y="845"/>
      <point x="393" y="823" type="curve" smooth="yes"/>
      <point x="393" y="799"/>
      <point x="361" y="772"/>
      <point x="333" y="772" type="curve" smooth="yes"/>
      <point x="303" y="772"/>
      <point x="279" y="807"/>
    </contour>
  </outline>
</glyph>
<glyph name="AE" format="2">
  <advance width="884"/>
  <unicode hex="00C6"/>
  <outline>
    <contour>
      <point x="253" y="295" type="line"/>
      <point x="416" y="295" type="line"/>
      <point x="416" y="655" type="line"/>
      <point x="412" y="655" type="line"/>
    </contour>
    <contour>
      <point x="416" y="50" type="curve"/>
      <point x="416" y="240" type="line"/>
      <point x="229" y="240" type="line"/>
      <point x="145" y="50" type="line"/>
      <point x="222" y="30" type="line"/>
      <point x="224" y="18"/>
      <point x="223" y="7"/>
      <point x="217" y="-5" type="curve"/>
      <point x="181" y="-3"/>
      <point x="132" y="0"/>
      <point x="95" y="0" type="curve" smooth="yes"/>
      <point x="57" y="0"/>
      <point x="40" y="-3"/>
      <point x="3" y="-5" type="curve"/>
      <point x="1" y="7"/>
      <point x="1" y="18"/>
      <point x="5" y="30" type="curve"/>
      <point x="34" y="34"/>
      <point x="59" y="40"/>
      <point x="82" y="50" type="curve"/>
      <point x="374" y="700" type="line"/>
      <point x="831" y="700" type="line"/>
      <point x="832" y="641"/>
      <point x="830" y="582"/>
      <point x="820" y="525" type="curve"/>
      <point x="807" y="520"/>
      <point x="800" y="520"/>
      <point x="784" y="522" type="curve"/>
      <point x="758" y="655" type="line"/>
      <point x="521" y="655" type="line"/>
      <point x="521" y="385" type="line"/>
      <point x="687" y="385" type="line"/>
      <point x="706" y="473" type="line"/>
      <point x="718" y="477"/>
      <point x="734" y="477"/>
      <point x="746" y="468" type="curve"/>
      <point x="743" y="439"/>
      <point x="742" y="400"/>
      <point x="742" y="361" type="curve" smooth="yes"/>
      <point x="742" y="318"/>
      <point x="743" y="275"/>
      <point x="746" y="243" type="curve"/>
      <point x="734" y="238"/>
      <point x="718" y="238"/>
      <point x="706" y="241" type="curve"/>
      <point x="687" y="330" type="line"/>
      <point x="521" y="330" type="line"/>
      <point x="521" y="45" type="line"/>
      <point x="788" y="45" type="line"/>
      <point x="812" y="178" type="line"/>
      <point x="828" y="180"/>
      <point x="834" y="180"/>
      <point x="847" y="175" type="curve"/>
      <point x="857" y="127"/>
      <point x="859" y="79"/>
      <point x="859" y="31" type="curve" smooth="yes"/>
      <point x="859" y="21"/>
      <point x="859" y="10"/>
      <point x="859" y="0" type="curve"/>
      <point x="471" y="0" type="line" smooth="yes"/>
      <point x="433" y="0"/>
      <point x="375" y="-3"/>
      <point x="338" y="-5" type="curve"/>
      <point x="336" y="7"/>
      <point x="336" y="18"/>
      <point x="340" y="30" type="curve"/>
      <point x="365" y="35"/>
      <point x="391" y="40"/>
    </contour>
  </outline>
</glyph>
